<svg xmlns="http://www.w3.org/2000/svg" id="_图层_1" viewBox="15.92 123.16 466.34 294.84"><defs><style>.cls-1{fill:#efc440;}.cls-2{fill:#f5f5f5;}.cls-3{fill:#535354;}.cls-4{fill:#333;}.cls-5,.cls-6,.cls-7{fill:#faf7d4;}.cls-8{fill:#ec7552;}.cls-6{opacity:.25;}.cls-7{opacity:.33;}.cls-9{fill:#9e9e9e;}</style></defs><g><ellipse class="cls-7" cx="225.98" cy="270.58" rx="186.93" ry="147.42"/><ellipse class="cls-5" cx="225.98" cy="270.58" rx="148.28" ry="116.95"/><ellipse class="cls-6" cx="225.98" cy="270.58" rx="119.59" ry="94.31"/><ellipse class="cls-5" cx="225.98" cy="270.58" rx="88.49" ry="69.79"/></g><path class="cls-9" d="M230.75,167.38h-2.74c-.65,0-1.32-.49-1.52-1.11l-.52-1.23c-.28-.57-.15-1.41,.29-1.86l1.94-1.94c.45-.45,.45-1.18,0-1.63l-3-3c-.45-.45-1.2-.45-1.64,0l-1.94,1.94c-.45,.45-1.28,.58-1.84,.29l-1.24-.51c-.6-.2-1.09-.88-1.09-1.52v-2.73c0-.63-.52-1.15-1.15-1.15h-2.04v-.03h-2.18c-.44,0-.83,.26-1.02,.63-.09,.16-.14,.35-.14,.55v2.73c0,.23-.06,.47-.18,.69-.2,.37-.53,.68-.92,.8l-1.24,.51c-.57,.29-1.4,.15-1.86-.29l-1.94-1.94c-.45-.45-1.18-.45-1.64,0l-3,3c-.23,.23-.34,.53-.33,.83,0,.3,.11,.6,.33,.83l1.94,1.94c.25,.25,.39,.61,.43,.99,.02,.3-.02,.59-.14,.84l-.51,1.23c-.2,.61-.89,1.11-1.52,1.11h-2.75c-.63,0-1.15,.52-1.15,1.15v4.24c0,.2,.05,.39,.14,.56,.19,.38,.58,.63,1.03,.63h2.75c.58,0,1.21,.42,1.46,.95,.02,.04,.03,.07,.04,.11l.51,1.24c.28,.57,.15,1.4-.29,1.84l-1.94,1.94c-.23,.23-.34,.53-.33,.83,0,.3,.11,.6,.33,.83l3,3c.45,.45,1.18,.45,1.63,0l1.94-1.94c.46-.45,1.29-.58,1.86-.31l1.24,.52c.6,.2,1.11,.89,1.11,1.52v2.75c0,.65,.52,1.15,1.15,1.15h4.24c.63,0,1.15-.52,1.15-1.15v-2.75c0-.63,.49-1.32,1.09-1.52l1.24-.52c.57-.28,1.4-.14,1.84,.31l1.94,1.94c.45,.45,1.2,.45,1.64,0l3-3c.45-.45,.45-1.18,0-1.63l-1.94-1.94c-.45-.45-.58-1.29-.29-1.84l.52-1.24c.2-.6,.88-1.09,1.52-1.09h2.74c.65,0,1.15-.52,1.15-1.15v-4.24c.02-.65-.51-1.15-1.15-1.15Zm-16.52,8.86h0s-.03-.01-.03-.01c-3.1,0-5.61-2.5-5.61-5.59,0-1.54,.62-2.94,1.63-3.95,1.01-1.01,2.41-1.63,3.95-1.63,3.09,0,5.59,2.5,5.59,5.59s-2.47,5.56-5.53,5.59Z"/><path class="cls-9" d="M343.55,249.99h-1.84c-.43,0-.89-.34-1.03-.74l-.35-.83c-.18-.38-.11-.95,.2-1.26l1.31-1.31c.31-.31,.31-.8,0-1.11l-2.01-2.03c-.31-.31-.8-.31-1.11,0l-1.31,1.31c-.31,.31-.86,.4-1.24,.2l-.84-.35c-.4-.14-.74-.6-.74-1.03v-1.84c0-.43-.35-.78-.78-.78h-2.86c-.43,0-.78,.35-.78,.78h0v1.84c0,.43-.34,.89-.74,1.03l-.83,.35c-.38,.2-.94,.09-1.26-.2l-1.31-1.31c-.31-.31-.8-.31-1.11,0l-2.03,2.03c-.16,.16-.23,.36-.23,.56,0,.2,.07,.41,.23,.56l1.31,1.31c.19,.19,.3,.48,.31,.76,0,.17-.03,.34-.1,.48l-.35,.83c-.14,.41-.6,.74-1.03,.74h-1.86c-.43,0-.78,.35-.78,.78v2.86c0,.33,.2,.61,.49,.72,.1,.05,.21,.07,.33,.07h1.84c.27,0,.54,.13,.75,.32,.12,.12,.21,.25,.26,.4l.21,.5,.15,.36c.07,.14,.1,.3,.09,.47,0,.28-.11,.57-.29,.76l-1.31,1.31c-.16,.16-.23,.36-.23,.56,0,.2,.07,.41,.23,.56l2.03,2.03c.31,.31,.8,.31,1.11,0l1.31-1.31c.31-.31,.86-.4,1.26-.22l.83,.35c.41,.14,.74,.6,.74,1.03v1.86c0,.43,.35,.78,.78,.78h1.48s1.38-.01,1.38-.01c.43,0,.78-.35,.78-.78v-1.86c0-.43,.34-.89,.74-1.03l.84-.35c.38-.18,.94-.09,1.24,.21l1.31,1.31c.31,.31,.8,.31,1.11,0l2.01-2.03c.31-.31,.31-.8,0-1.11l-1.31-1.31c-.31-.31-.4-.86-.2-1.24l.35-.84c.14-.4,.6-.74,1.03-.74h1.84c.43,0,.78-.35,.78-.78v-2.86c0-.43-.35-.78-.78-.78Zm-11.18,5.98c-2.1,0-3.77-1.69-3.77-3.76,0-.13,0-.26,.02-.39,.19-1.91,1.8-3.38,3.74-3.38,2.07,0,3.78,1.69,3.78,3.76s-1.7,3.76-3.77,3.76Z"/><g><path class="cls-3" d="M41.19,203.01h-9.91l-3.03,8.14-12.33-.33,19.52-39.65c4.02,0,7.62-.11,11.75-.62l9.18,40.27-14.38,.81-.8-8.62Zm-.71-7.69l-1.26-13.6-5.06,13.6h6.33Z"/><path class="cls-3" d="M58.53,199.54c.02-9.7,7.88-18.51,18.38-18.51,3.23,0,5.86,.84,7.07,1.47-.09,3.15-1.07,6.6-2.75,10.15-.71-1.05-2.17-2.37-4.52-2.37-3.66,0-6.28,2.87-6.28,6.75,0,3.22,1.9,4.62,4.54,4.62,2.32,0,5.18-1.28,6.19-2.27,.19,2.55-.48,5.52-1.36,8.8-1.86,1.76-4.99,3.47-9.39,3.47-7.14,0-11.86-4.74-11.88-12.11Z"/><path class="cls-3" d="M83.51,199.54c.02-9.7,7.88-18.51,18.38-18.51,3.23,0,5.86,.84,7.07,1.47-.09,3.15-1.07,6.6-2.75,10.15-.71-1.05-2.17-2.37-4.52-2.37-3.66,0-6.28,2.87-6.28,6.75,0,3.22,1.9,4.62,4.54,4.62,2.32,0,5.18-1.28,6.19-2.27,.19,2.55-.48,5.52-1.36,8.8-1.86,1.76-4.99,3.47-9.39,3.47-7.14,0-11.86-4.74-11.88-12.11Z"/><path class="cls-3" d="M108.49,199.56c.02-9.67,8.09-18.54,17.84-18.54,7.11,0,11.78,4.75,11.8,12.09-.02,9.68-8.1,18.53-17.84,18.53-7.1,0-11.78-4.74-11.8-12.09Zm17.75-4.79c0-3.08-.77-4.5-2.16-4.5-2.23,0-3.69,3.39-3.69,7.64,0,3.09,.77,4.48,2.15,4.48,2.24,0,3.7-3.38,3.7-7.62Z"/><path class="cls-3" d="M171.38,181.85c.06,1.17-.16,4.76-.93,10.27l-1.61,11.45c-.43,3.06-.2,6.26,.18,7.24-2.5,.36-6.44,.81-8.11,.81-3.26,0-4.59-1.2-4.26-5.59-2.15,3.67-5.65,5.61-9.23,5.61-5.24,0-8.16-4.18-6.86-11.53l1.41-8,.19-1.14c.84-4.92,.62-7.83,.22-8.61,2.45-.58,6.31-1.35,7.94-1.35,3.64,0,5.22,1.55,3.75,9.87l-.22,1.24-1.19,6.46c-.34,1.83,.17,2.98,1.3,2.98,2.08,0,3.77-3.68,4.58-9.43,.7-4.98,.85-8.56,.76-9.83,4.22-.61,8.18-.78,12.06-.44h0Z"/><path class="cls-3" d="M204.88,192.56l-1.41,8-.54,3.04c-.53,3.01-.3,6.22,.12,7.23-2.45,.36-6.31,.83-7.94,.83-3.64,0-5.23-1.48-4.22-7.23l.68-3.87,1.14-6.46c.32-1.83-.17-2.98-1.3-2.98-2.08,0-3.77,3.68-4.58,9.43-.7,4.98-.85,8.56-.76,9.83-4.22,.61-8.18,.78-12.06,.44-.06-1.17,.16-4.76,.93-10.27l1.34-9.56c.69-4.92,.55-7.84,.24-8.61,2.45-.58,6.31-1.35,7.94-1.35,2.96,0,4.34,.99,4.13,5.83,2.09-3.77,5.69-5.83,9.37-5.83,5.24,0,8.21,4.18,6.91,11.53Z"/><path class="cls-3" d="M225.48,201.81c1.95,0,4.28-.91,5.56-1.62,.13,2.42-.66,5.36-1.78,8.68-1.77,1.19-5.22,2.81-9.58,2.81-4.87,0-10.76-2.28-9.48-11.41l1.22-8.68h-3.99c.86-2.9,2.14-5.85,2.59-8.69l3.44-.7c.09-.75,.3-1.69,.71-2.66,1.85-4.35,12.8-3.73,12.8-3.73,0,0-1.16,2.42-2.22,7.09h8.76c-.45,2.83-1.72,5.79-2.58,8.69h-7.6l-.71,5.45c-.48,3.75,1.41,4.77,2.86,4.77h0Z"/></g><g><path class="cls-3" d="M291.05,307.17c-1.2-3.71-1.3-7.5-.72-11.34,1.8,1.09,5.64,2.54,9.59,2.54,3.47,0,5.31-1.1,5.31-2.82,0-1.57-1.54-2.39-4.41-3.71-2.82-1.29-8.25-3.57-8.25-10.62,0-7.97,6.94-13.83,17.55-13.83,4.21,0,7.05,.97,8.62,1.7-.18,3.32-1.32,6.88-1.97,10.32-1.29-1.25-5.19-2.71-8.49-2.71-2.5,0-3.24,.87-3.24,1.93,0,1.64,1.66,2.46,4.46,3.82,2.98,1.46,8.18,3.86,8.18,11.23,0,8.68-7.09,14.99-18.07,14.99-4.05,0-7.01-.83-8.55-1.5Z"/><path class="cls-3" d="M319.55,296.57c.02-9.69,8.08-18.51,17.83-18.51,6.61,0,9.86,4.04,9.86,8.92,0,6.13-5.07,9.74-11.09,9.74-1.93,0-3.68-.46-5.09-1.09,0,.09-.01,.17-.01,.26,0,2.23,2.51,3.8,6.09,3.8,3.27,0,6.26-1.28,7.63-2.25,.16,2.15-.41,4.65-1.14,7.41-2.08,1.63-6.47,3.84-11.59,3.84-7.75,0-12.47-4.74-12.49-12.12Zm17.36-8.77c0-1.35-.58-1.97-1.7-1.97-2.21,0-3.84,2.42-4.49,5.49,.53,.13,1.16,.23,1.8,.23,2.85,0,4.39-1.6,4.39-3.75Z"/><path class="cls-3" d="M366.13,298.84c1.95,0,4.28-.91,5.56-1.62,.13,2.42-.66,5.36-1.78,8.68-1.77,1.19-5.22,2.81-9.58,2.81-4.87,0-10.76-2.28-9.48-11.41l1.22-8.68h-3.99c.86-2.9,2.14-5.85,2.59-8.69l3.44-.7c.09-.75,.3-1.69,.71-2.66,1.85-4.35,12.8-3.73,12.8-3.73,0,0-1.16,2.42-2.22,7.09h8.76c-.45,2.83-1.72,5.79-2.58,8.69h-7.6l-.71,5.45c-.48,3.75,1.41,4.76,2.86,4.76h0Z"/><path class="cls-3" d="M392.02,298.84c1.95,0,4.28-.91,5.56-1.62,.13,2.42-.66,5.36-1.78,8.68-1.77,1.19-5.22,2.81-9.58,2.81-4.87,0-10.76-2.28-9.48-11.41l1.22-8.68h-3.99c.86-2.9,2.14-5.85,2.59-8.69l3.44-.7c.09-.75,.3-1.69,.71-2.66,1.85-4.35,12.8-3.73,12.8-3.73,0,0-1.16,2.42-2.22,7.09h8.76c-.45,2.83-1.72,5.79-2.58,8.69h-7.6l-.71,5.45c-.48,3.75,1.41,4.76,2.86,4.76h0Z"/><path class="cls-3" d="M414.57,287.92l-.21,1.23-1.47,8.42-.52,3.01c-.53,3.04-.3,6.25,.12,7.26-2.46,.35-6.32,.81-7.96,.81-3.64,0-5.21-1.47-4.2-7.26l.67-3.82,1.47-8.42,.19-1.13c.82-4.9,.61-7.83,.21-8.62,2.45-.58,6.31-1.35,7.94-1.35,3.64,0,5.21,1.55,3.77,9.87Zm-2.31-23.75c3.38,0,5.81,2.02,5.81,4.85,0,3.61-3.58,6.38-7.4,6.38-3.37,0-5.75-2.07-5.75-4.91,0-3.63,3.54-6.31,7.33-6.31h0Z"/><path class="cls-3" d="M448.22,289.59l-1.41,8-.54,3.04c-.53,3.01-.3,6.22,.12,7.23-2.45,.36-6.31,.83-7.94,.83-3.64,0-5.23-1.48-4.22-7.23l.68-3.87,1.14-6.46c.32-1.83-.17-2.98-1.3-2.98-2.08,0-3.77,3.68-4.58,9.43-.7,4.98-.85,8.56-.76,9.83-4.22,.61-8.18,.78-12.06,.44-.06-1.17,.16-4.76,.93-10.27l1.34-9.56c.69-4.92,.55-7.84,.24-8.61,2.45-.58,6.31-1.35,7.94-1.35,2.96,0,4.34,.99,4.13,5.83,2.09-3.77,5.69-5.83,9.37-5.83,5.24,0,8.21,4.18,6.91,11.53Z"/><path class="cls-3" d="M482.26,279.87c-.05,1.69-.31,4.87-.93,9.29l-2.02,14.4c-1.54,10.95-8.67,16.48-18.52,16.48-7.38,0-11.75-3.08-11.75-7.7,0-3.66,2.77-5.88,5.38-7.17-2.39-1.64-3.71-4.54-3.71-8.5,0-10.55,8.87-18.6,21.23-18.6,4.34,0,8.02,.98,10.32,1.81h0s0,0,0,0Zm-19.07,31.92c1.9,0,3.78-1.35,4.23-4.56l.78-5.54c-1.13,2.99-3.95,4.84-7.63,5.01-.09,.48-.14,1-.14,1.56,0,2.29,.95,3.54,2.77,3.54h0Zm-.12-16.2c0,2.5,.69,3.75,1.95,3.75,2.07,0,3.51-4.13,4.37-9.86v.07s.31-2.23,.31-2.23c-4.82,.02-6.63,3.95-6.63,8.27Z"/></g><path class="cls-1" d="M128.52,231.48h-4.5c-.32-1.6-.77-3.14-1.31-4.63l3.76-2.18c.91-.52,1.21-1.67,.69-2.58l-3.78-6.55c-.52-.91-1.69-1.21-2.58-.69l-3.92,2.26c-1.06-1.2-2.2-2.32-3.43-3.35l2.18-3.78c.52-.91,.2-2.06-.71-2.58l-6.55-3.78c-.89-.51-2.06-.2-2.58,.69l-2.26,3.92c-1.51-.52-3.06-.91-4.66-1.18v-4.36c0-1.04-.84-1.89-1.89-1.89h-7.54c-1.06,0-1.91,.85-1.91,1.89v4.52c-1.58,.31-3.12,.75-4.61,1.31l-2.17-3.78c-.52-.91-1.67-1.21-2.6-.69l-6.55,3.78c-.57,.32-.9,.9-.94,1.51-.03,.37,.05,.74,.25,1.08l2.25,3.91c-1.2,1.06-2.32,2.19-3.34,3.42l-3.76-2.15c-.34-.2-.71-.27-1.08-.25-.61,.05-1.18,.38-1.52,.94l-3.78,6.55c-.52,.91-.21,2.06,.69,2.58l3.92,2.26c-.51,1.51-.91,3.04-1.17,4.64h-4.36c-1.05,0-1.89,.84-1.89,1.89v7.56c0,1.04,.84,1.89,1.89,1.89h4.52c.31,1.58,.75,3.14,1.31,4.63l-3.78,2.18c-.91,.52-1.21,1.67-.69,2.58l3.78,6.55c.52,.89,1.67,1.21,2.58,.69l3.92-2.26c1.06,1.2,2.2,2.34,3.43,3.35l-2.18,3.78c-.52,.91-.21,2.06,.69,2.58l6.56,3.78c.89,.52,2.06,.22,2.57-.69l2.27-3.92c1.51,.51,3.04,.89,4.64,1.17v4.38c0,1.05,.85,1.89,1.89,1.89h7.57c1.05,0,1.89-.84,1.89-1.89v-4.52c1.58-.32,3.12-.75,4.61-1.31l2.18,3.76c.52,.91,1.66,1.21,2.57,.69l6.55-3.78c.91-.51,1.21-1.67,.69-2.58l-2.26-3.92c1.2-1.06,2.32-2.2,3.35-3.43l3.78,2.18c.91,.52,2.06,.22,2.58-.69l3.78-6.55c.52-.89,.21-2.06-.69-2.58l-3.92-2.26c.51-1.51,.91-3.06,1.18-4.64h4.36c1.04,0,1.89-.85,1.89-1.89v-7.57c0-1.05-.85-1.89-1.89-1.89Zm-34.86-8.99c8.33,0,15.07,6.76,15.07,15.09s-6.75,15.07-15.07,15.07-15.09-6.76-15.09-15.07,6.75-15.09,15.09-15.09Z"/><g><path class="cls-8" d="M240.84,246.11c4.23,.51,8.48,.14,12.72,.21,1.78,.03,2.29-1.48,3.04-2.63,6.8-10.53,15.52-19,26.57-24.97,3.75-2.03,7.7-3.58,11.77-4.83,2.34-.72,4.31-.04,5.84,1.8,1.48,1.77,1.7,3.79,.61,5.83-5.97,11.17-7.63,23.29-7.68,35.71-.09,23.86-.02,47.71-.03,71.57,0,13.31-7.88,21.2-21.13,21.2-15.01,0-30.02-.04-45.03,.01-20.68,.06-36.22-8.9-46.84-26.62-.29-.48-.64-.93-.96-1.39-.19-.53-.34-1.08-.57-1.59-16-35.7,8.75-74.04,47.83-74.11,4.62,0,9.23-.13,13.85-.2Z"/><g><path class="cls-2" d="M228.64,225.05c4.23,.51,8.48,.14,12.72,.21,1.78,.03,2.29-1.48,3.04-2.63,6.8-10.53,15.52-19,26.57-24.97,3.75-2.03,7.7-3.58,11.77-4.83,2.34-.72,4.31-.04,5.84,1.8,1.48,1.77,1.7,3.79,.61,5.83-5.97,11.17-7.63,23.29-7.68,35.71-.09,23.86-.02,47.71-.03,71.57,0,13.31-7.88,21.2-21.13,21.2-15.01,0-30.02-.04-45.03,.01-20.68,.06-36.22-8.9-46.84-26.62-.29-.48-.64-.93-.96-1.39-.19-.53-.34-1.08-.57-1.59-16-35.7,8.75-74.04,47.83-74.11,4.62,0,9.23-.13,13.85-.2Z"/><path class="cls-8" d="M215.1,331.97c-21.49,0-38.04-9.45-49.2-28.09-.15-.25-.32-.48-.49-.71l-.36-.5c-.16-.23-.28-.47-.37-.73l-.19-.57c-.09-.27-.17-.53-.28-.79-7.94-17.71-6.63-37.65,3.5-53.32,10.11-15.65,27.72-25.01,47.08-25.04,3.12,0,6.25-.06,9.37-.12l4.44-.08c.11,0,.27,0,.4,.02,2.62,.31,5.27,.27,8.1,.22,1.34-.02,2.69-.05,4.01-.03,.1-.15,.22-.36,.31-.52,.14-.25,.29-.49,.44-.72,7.25-11.24,16.56-19.98,27.68-25.99,3.69-2,7.72-3.65,12.33-5.06,3.48-1.06,6.68-.08,9.05,2.75,2.28,2.72,2.62,6.07,.96,9.19-4.95,9.25-7.27,20.15-7.32,34.3-.06,15.58-.05,31.16-.04,46.75v24.82c0,14.94-9.26,24.22-24.15,24.22h-16.09c-9.65-.01-19.29-.02-28.94,0h-.24Zm-44.85-32.43l.04,.05c.28,.38,.55,.77,.8,1.17,10.13,16.92,24.53,25.15,44.01,25.15h.22c9.66-.03,19.3-.02,28.96-.01h16.08c11.5,0,18.1-6.62,18.11-18.17v-24.81c-.02-15.59-.03-31.18,.03-46.77,.06-15.17,2.61-26.97,8.04-37.13,.5-.94,.42-1.63-.27-2.47-.8-.96-1.5-1.19-2.63-.84-4.22,1.29-7.89,2.8-11.22,4.6-10.21,5.52-18.78,13.57-25.47,23.95l-.29,.48c-.67,1.15-2.05,3.53-5.23,3.53h-.1c-1.38-.02-2.74,0-4.12,.03-2.82,.05-5.74,.1-8.71-.24l-4.23,.07c-3.15,.06-6.31,.12-9.47,.12-17.57,.03-32.89,8.15-42.02,22.28-9.15,14.15-10.26,31.49-3.06,47.56,.2,.45,.36,.92,.51,1.39l.02,.05Z"/></g></g><path class="cls-4" d="M196.05,291.28c-12.24,0-22.07-9.83-22.07-22.07v-11.23c0-1.2,.8-2.01,2.01-2.01h40.12c1.2,0,2.01,.8,2.01,2.01v11.23c0,12.24-9.83,22.07-22.07,22.07h0Zm-18.06-31.1v9.23c0,10.03,8.02,18.06,18.06,18.06s18.06-8.03,18.06-18.06v-9.23h-36.11Zm73.83,31.1c-12.24,0-22.07-9.83-22.07-22.07v-11.23c0-1.2,.8-2.01,2.01-2.01h40.12c1.2,0,2.01,.8,2.01,2.01v11.23c0,12.24-10.03,22.07-22.07,22.07h0Zm-18.06-31.1v9.23c0,10.03,8.02,18.06,18.06,18.06s18.06-8.03,18.06-18.06v-9.23h-36.11Zm0,0"/><path class="cls-4" d="M216.92,269.61l-1.4-3.81c5.42-2.01,11.64-2.01,17.05,0l-1.4,3.81c-4.61-1.81-9.83-1.81-14.24,0h0Zm-21.47,10.23c-.2,0-.6,0-.8-.2-.4-.4-.4-1,0-1.4l9.83-9.83c.4-.4,1-.4,1.4,0,.4,.4,.4,1,0,1.4l-9.83,9.83c-.2,.2-.4,.2-.6,.2h0Zm0,0"/><path class="cls-4" d="M254.23,279.85c-.2,0-.6,0-.8-.2-.4-.4-.4-1,0-1.4l9.83-9.83c.4-.4,1-.4,1.4,0,.4,.4,.4,1,0,1.4l-9.83,9.83c-.2,.2-.4,.2-.6,.2h0Zm0,0"/></svg>