<svg width="146" height="49" viewBox="0 0 146 49" fill="none" xmlns="http://www.w3.org/2000/svg">
    <g clip-path="url(#buddy_logo_svg_grayscale)">        

        <g vector-part="buddy_bu">
            <!-- b -->
            <path vector-part="buddy_b" d="M20.9743 22.5468C23.9821 23.2435 25.9758 25.5279 25.9758 29.3314C25.9758 35.0424 21.3731 39.6111 10.6751 39.6111C6.19774 39.6111 1.95958 39.3027 0 39.0743V10.0055C1.99376 9.57151 6.18634 9.01184 10.3789 9.01184C19.7325 9.01184 24.4378 11.6275 24.4378 16.6531C24.4378 19.2002 23.1959 21.2447 20.9743 22.5582V22.5468ZM8.35099 21.0505C8.78393 21.0962 9.37636 21.1305 9.98018 21.1305C13.774 21.1305 15.6994 19.7256 15.6994 17.7839C15.6994 16.0477 14.1956 15.1797 11.0739 15.1797C10.0144 15.1797 8.90925 15.2825 8.35099 15.3624V21.0391V21.0505ZM16.8843 29.4913C16.8843 27.3897 15.1412 26.396 11.3587 26.396C10.208 26.396 8.96621 26.4988 8.35099 26.5787V33.1007C8.94343 33.1806 9.7865 33.2606 10.641 33.2606C14.6057 33.2606 16.8957 31.8328 16.8957 29.4799L16.8843 29.4913Z" fill="#F9F9F9"/>

            <!-- u -->
            <path vector-part="buddy_u" d="M45.0931 39.8511C44.1589 38.6175 43.4183 36.8243 43.0196 35.0082C41.8347 38.1606 38.9409 39.8967 35.6597 39.8967C31.3077 39.8967 28.6417 36.8585 28.6417 31.3874V19.2802C31.057 18.1608 33.9964 17.7497 36.8218 16.9615V30.2224C36.8218 31.8786 37.6421 32.8608 39.1004 32.8608C41.1169 32.8608 42.6892 31.0105 42.7006 28.1779V25.1625C42.7006 21.4389 42.5297 18.7662 42.4043 17.7953C45.2981 17.3727 48.021 17.2585 50.687 17.4984C50.7667 18.2065 50.8693 20.765 50.8693 25.1739V30.3823C50.8693 33.3406 51.1199 36.2417 51.963 38.1835C50.0262 39.1543 47.7362 39.7254 45.1045 39.8853L45.0931 39.8511Z" fill="#F9F9F9"/>
        </g>

        <!-- d1 -->
        <g vector-part="buddy_d1">
            <g>
                <path vector-part="buddy_d1_base" d="M72.55 13.889C73.7121 14.0261 74.8855 13.9233 76.0476 13.9461C76.5375 13.9461 76.6742 13.535 76.8793 13.2266C78.7477 10.3254 81.1516 7.9839 84.1821 6.33915C85.2189 5.77947 86.3012 5.35686 87.4177 5.00278C88.0557 4.80861 88.6026 4.99136 89.0241 5.49393C89.4343 5.98507 89.4912 6.53332 89.195 7.10442C87.5544 10.1883 87.0987 13.5235 87.0873 16.9501C87.0645 23.5291 87.0873 30.1081 87.0873 36.6872C87.0873 40.3536 84.9227 42.5352 81.277 42.5352C77.1527 42.5352 73.0171 42.5352 68.8929 42.5352C63.2078 42.558 58.9355 40.0795 56.0075 35.1909C55.9278 35.0538 55.8366 34.9396 55.7455 34.8026C55.6885 34.6541 55.6543 34.5056 55.586 34.3685C51.1883 24.5228 57.9899 13.9576 68.7448 13.9347C70.0094 13.9347 71.2854 13.9005 72.55 13.8776V13.889Z" fill="white"/>

                <path vector-part="buddy_d1_outline" d="M68.8359 43.3689C62.923 43.3689 58.3659 40.7648 55.3012 35.6249C55.267 35.5564 55.21 35.4993 55.1645 35.4307L55.0619 35.2937C55.0164 35.2365 54.9822 35.168 54.9594 35.0995L54.9024 34.9396C54.8796 34.871 54.8569 34.7911 54.8227 34.7226C52.6352 29.834 52.9998 24.34 55.7797 20.0226C58.5595 15.7051 63.4015 13.1237 68.7334 13.1123C69.5879 13.1123 70.4537 13.0895 71.3082 13.078L72.5272 13.0552C72.5272 13.0552 72.607 13.0552 72.6412 13.0552C73.3589 13.1466 74.0881 13.1237 74.8628 13.1123C75.2274 13.1123 75.6033 13.1009 75.9679 13.1123C75.9907 13.0666 76.0249 13.0095 76.059 12.9752C76.0932 12.9067 76.1388 12.8382 76.1844 12.7811C78.1781 9.68573 80.7415 7.27571 83.7948 5.61953C84.8088 5.07128 85.9139 4.61441 87.1899 4.22606C88.1469 3.92909 89.0242 4.20322 89.6736 4.97991C90.3002 5.73375 90.3913 6.65893 89.9356 7.51557C88.5798 10.0627 87.9304 13.0666 87.9191 16.9729C87.9077 21.2676 87.9077 25.5622 87.9191 29.8568V36.6986C87.9191 40.8104 85.3784 43.3804 81.277 43.3804H77.1528C74.4071 43.3804 71.65 43.3804 68.9043 43.3804H68.8473L68.8359 43.3689ZM56.4974 34.4256V34.4484C56.5886 34.5512 56.6569 34.654 56.7253 34.7682C59.5279 39.4512 63.5496 41.7356 68.8929 41.7013C71.65 41.7013 74.3957 41.7013 77.1528 41.7013H81.277C84.4442 41.7013 86.2557 39.8738 86.2557 36.6871V29.8454C86.2557 25.5508 86.2557 21.2447 86.2557 16.9501C86.2671 12.7696 86.9734 9.51441 88.4659 6.71604C88.6026 6.45333 88.5798 6.27058 88.3862 6.03072C88.1697 5.76802 87.976 5.69949 87.6684 5.80228C86.5063 6.15636 85.5038 6.56755 84.5809 7.07012C81.7669 8.58923 79.4199 10.8165 77.5743 13.672L77.4945 13.809C77.3123 14.1289 76.8907 14.7685 76.0249 14.7799C75.6489 14.7799 75.2729 14.7799 74.897 14.7799C74.1222 14.7913 73.3134 14.8027 72.5045 14.7114L71.3424 14.7342C70.4765 14.7456 69.6107 14.7685 68.7334 14.7685C63.9028 14.7685 59.6874 17.0186 57.181 20.9135C54.6632 24.8198 54.3556 29.5941 56.3379 34.0258C56.3949 34.1515 56.4405 34.2771 56.4746 34.4027V34.4256H56.4974Z" fill="#545454"/>
            </g>

            <path vector-part="buddy_d1_eye_left" d="M63.8914 29.4228C64.6402 29.4228 65.2472 28.8142 65.2472 28.0636C65.2472 27.3129 64.6402 26.7043 63.8914 26.7043C63.1426 26.7043 62.5356 27.3129 62.5356 28.0636C62.5356 28.8142 63.1426 29.4228 63.8914 29.4228Z" fill="#545454"/>

            <path vector-part="buddy_d1_eye_right" d="M77.1299 29.4228C77.8787 29.4228 78.4857 28.8142 78.4857 28.0636C78.4857 27.3129 77.8787 26.7043 77.1299 26.7043C76.3812 26.7043 75.7742 27.3129 75.7742 28.0636C75.7742 28.8142 76.3812 29.4228 77.1299 29.4228Z" fill="#545454"/>
        </g>
        <!--end d1-->


        <!-- d2 -->
        <path vector-part="buddy_d2_shadow" d="M104.689 15.6023C105.851 15.7394 107.025 15.6366 108.187 15.6594C108.677 15.6594 108.814 15.2482 109.019 14.9398C110.887 12.0387 113.291 9.69716 116.322 8.05241C117.358 7.49273 118.441 7.07012 119.557 6.71604C120.195 6.52187 120.742 6.70462 121.164 7.20718C121.574 7.69833 121.631 8.24658 121.334 8.81767C119.694 11.9016 119.238 15.2368 119.227 18.6634C119.204 25.2424 119.227 31.8214 119.227 38.4004C119.227 42.0669 117.062 44.2484 113.416 44.2484C109.292 44.2484 105.157 44.2484 101.032 44.2484C95.3472 44.2713 91.0749 41.7927 88.1469 36.9042C88.0672 36.7671 87.976 36.6529 87.8849 36.5158C87.8279 36.3673 87.7937 36.2188 87.7254 36.0818C83.3277 26.2361 90.1293 15.6708 100.884 15.648C102.149 15.648 103.425 15.6137 104.689 15.5909V15.6023Z" fill="#545454"/>

        <g vector-part="buddy_d2">
            <path vector-part="buddy_d2_base" d="M101.34 9.79992C102.502 9.93698 103.675 9.83419 104.838 9.85703C105.327 9.85703 105.464 9.44584 105.669 9.13745C107.538 6.23628 109.942 3.89479 112.972 2.25004C114.009 1.69036 115.091 1.26775 116.208 0.913673C116.846 0.719501 117.393 0.902251 117.814 1.40482C118.224 1.89596 118.281 2.44421 117.985 3.01531C116.344 6.09922 115.889 9.43442 115.877 12.861C115.854 19.44 115.877 26.019 115.877 32.5981C115.877 36.2645 113.713 38.4461 110.067 38.4461C105.943 38.4461 101.807 38.4461 97.6828 38.4461C91.9977 38.4689 87.7254 35.9904 84.7974 31.1018C84.7177 30.9647 84.6265 30.8505 84.5354 30.7134C84.4784 30.565 84.4442 30.4165 84.3759 30.2794C79.9782 20.4337 86.7798 9.86845 97.5347 9.84561C98.7993 9.84561 100.075 9.81134 101.34 9.7885V9.79992Z" fill="#F9F9F9"/>
            
            <path vector-part="buddy_d2_outline" d="M97.6144 39.2799C91.7015 39.2799 87.1557 36.6757 84.0796 31.5359C84.0341 31.4673 83.9885 31.3988 83.9429 31.3417L83.8404 31.2046C83.7948 31.1475 83.7606 31.079 83.7378 30.999L83.6809 30.8391C83.6581 30.7706 83.6353 30.6906 83.6011 30.6221C81.4137 25.7335 81.7783 20.2396 84.5581 15.9221C87.338 11.6046 92.18 9.02326 97.5118 9.01184C98.3663 9.01184 99.2322 8.989 100.087 8.97758L101.306 8.95473C101.306 8.95473 101.374 8.95473 101.42 8.95473C102.137 9.04611 102.867 9.02326 103.641 9.01184C104.006 9.01184 104.382 9.00042 104.746 9.01184C104.769 8.96616 104.803 8.90905 104.837 8.87478C104.872 8.80625 104.917 8.73772 104.963 8.68061C106.957 5.58527 109.52 3.17525 112.573 1.51907C113.587 0.970818 114.692 0.513942 115.968 0.125597C116.925 -0.171373 117.803 0.102753 118.452 0.879443C119.079 1.63329 119.17 2.55846 118.714 3.41511C117.358 5.96219 116.709 8.96616 116.697 12.8724C116.686 17.1671 116.686 21.4617 116.697 25.7564V32.5981C116.697 36.7214 114.157 39.2799 110.055 39.2799H105.635C102.98 39.2799 100.326 39.2799 97.6714 39.2799H97.603H97.6144ZM85.2759 30.3365C85.3556 30.4622 85.424 30.565 85.4923 30.6792C88.2836 35.3393 92.2369 37.6123 97.5916 37.6123H97.6486C100.303 37.6123 102.958 37.6123 105.612 37.6123H110.033C113.2 37.6123 115.011 35.7848 115.011 32.5981V25.7564C115.011 21.4617 115.011 17.1557 115.011 12.861C115.023 8.68061 115.729 5.42536 117.222 2.627C117.358 2.36429 117.335 2.18154 117.142 1.94168C116.925 1.67898 116.732 1.61045 116.424 1.71324C115.262 2.06732 114.259 2.47851 113.337 2.98107C110.534 4.50019 108.176 6.72746 106.33 9.58294L106.25 9.72C106.068 10.0398 105.681 10.6909 104.815 10.6909H104.792C104.416 10.6909 104.04 10.6909 103.664 10.6909C102.889 10.7023 102.08 10.7251 101.272 10.6223L100.109 10.6452C99.2436 10.6566 98.3777 10.6794 97.5005 10.6794C92.6699 10.6794 88.4545 12.9296 85.9481 16.8244C83.4302 20.7307 83.1226 25.5051 85.105 29.9368C85.1619 30.0624 85.2075 30.1881 85.2417 30.3251L85.2759 30.3365Z" fill="#545454"/>
        </g>

        <path vector-part="buddy_d2_eye_left" d="M91.6331 26.8871C91.3939 26.8871 91.166 26.7501 91.0635 26.5216C90.9268 26.2018 91.0635 25.8363 91.3711 25.6993L93.7294 24.637L91.5192 23.3349C91.223 23.1636 91.1205 22.7752 91.2913 22.4783C91.4622 22.1813 91.8496 22.0785 92.1458 22.2613L95.4042 24.1801C95.6093 24.2944 95.7232 24.5228 95.7118 24.7512C95.7004 24.9797 95.5523 25.1967 95.3472 25.2881L91.8838 26.8529C91.804 26.8871 91.7129 26.91 91.6331 26.91V26.8871Z" fill="#545454"/>

        <path vector-part="buddy_d2_eye_right" d="M104.348 25.8135C104.063 25.8135 103.812 25.6193 103.744 25.3338C103.607 24.6941 103.915 23.3464 106.045 22.9009C108.05 22.4783 108.939 23.5291 109.121 24.1345C109.224 24.4657 109.03 24.8084 108.711 24.9112C108.381 25.014 108.039 24.8312 107.936 24.5114C107.902 24.4314 107.629 23.8375 106.307 24.123C104.929 24.42 104.963 25.0254 104.974 25.0939C105.02 25.4251 104.792 25.745 104.461 25.8021C104.427 25.8021 104.393 25.8021 104.348 25.8021V25.8135Z" fill="#545454"/>
        <!--end d2-->

        <!-- y -->
        <g vector-part="buddy_y">
            <path d="M146 18.1837L139.472 34.6541C137.307 40.1138 135.61 46.0418 135.086 49C131.201 48.566 128.273 47.8693 126.723 46.7728C127.475 44.3399 129.207 41.2446 131.588 38.2063C130.517 38.2634 129.435 38.2863 128.33 38.2634L120.639 18.8576C123.636 18.652 126.586 18.3551 129.537 17.921L133.821 32.0728L137.957 18.0124C140.634 18.1837 143.311 18.2408 146 18.1951V18.1837Z" fill="#F9F9F9"/>
            <path d="M128.341 38.252L129.446 41.69L131.964 38.252L130.642 36.87L128.341 38.252Z" fill="#F9F9F9"/>
        </g>        
    </g>

    <defs>
        <clipPath id="buddy_logo_svg_grayscale">
            <rect width="146" height="49" fill="white"/>
        </clipPath>
    </defs>
</svg>
