<?xml version="1.0" encoding="UTF-8"?><svg id="_图层_1" xmlns="http://www.w3.org/2000/svg" viewBox="0 0 500 500"><defs><style>.cls-1{fill:#ec8c88;}.cls-1,.cls-2,.cls-3,.cls-4,.cls-5,.cls-6,.cls-7,.cls-8{fill-rule:evenodd;}.cls-9{fill:#fff;}.cls-10{fill:#107e78;}.cls-11{fill:#5ab8ac;}.cls-2,.cls-12{fill:#f5b236;}.cls-13{fill:#e78d88;}.cls-14{fill:#e78c87;}.cls-15{fill:#157c78;}.cls-16{fill:#dbd7b5;}.cls-17{fill:#f5f5f5;}.cls-18,.cls-3{fill:#d6a135;}.cls-19{fill:#48a797;}.cls-4{fill:#5cb9aa;}.cls-5,.cls-20{fill:#5cb7ae;}.cls-21{fill:#eeb338;}.cls-6{fill:#48a79d;}.cls-22{fill:#137d73;}.cls-23{fill:#ec7552;}.cls-24{fill:#f2b038;}.cls-25{fill:#eeeeef;}.cls-26{fill:#801a2d;}.cls-27{fill:#177d79;}.cls-28{fill:#bf2845;}.cls-29{fill:#e6716f;}.cls-30{fill:#f9f4cd;}.cls-31{fill:#57b7aa;}.cls-7{fill:#cd8276;}.cls-8,.cls-32{fill:#197d75;}.cls-33{fill:#f5ebc8;}.cls-34{fill:#e88a8a;}.cls-35{fill:#d83c6c;}.cls-36{fill:#bd2546;}</style></defs><rect class="cls-25" x="2.78" y="1.6" width="495.4" height="498.4"/><path class="cls-10" d="M249.38,99.82c0,14.94-12.11,27.06-27.05,27.06s-27.06-12.11-27.06-27.06,12.11-27.06,27.06-27.06,27.05,12.11,27.05,27.06Z"/><path class="cls-4" d="M283.39,141.71c-22.05,2.26-41.74-13.78-44-35.82-2.25-21.99,13.7-41.66,35.69-43.98l4.22,39.89,4.09,39.91h0Z"/><path class="cls-6" d="M274.14,60.67c22.01-2.59,41.95,13.13,44.54,35.14,2.59,21.95-13.06,41.87-35,44.52l-4.84-39.82-4.7-39.84h0Z"/><path class="cls-7" d="M282.14,127.5c-13.62,1.39-25.78-8.51-27.18-22.13-1.39-13.58,8.46-25.74,22.05-27.17l2.61,24.65,2.53,24.66h0Z"/><path class="cls-1" d="M275.31,77.43c13.59-1.6,25.91,8.11,27.52,21.71,1.6,13.56-8.07,25.87-21.63,27.51l-2.99-24.6-2.9-24.61h0Z"/><path class="cls-19" d="M443.93,257.86c0,28.66-23.23,51.89-51.89,51.89s-51.88-23.23-51.88-51.89,23.23-51.88,51.88-51.88,51.89,23.24,51.89,51.88Z"/><path class="cls-14" d="M292.79,196.79c0,53.86-43.66,97.52-97.52,97.52s-97.51-43.66-97.51-97.52,43.65-97.51,97.51-97.51,97.52,43.68,97.52,97.51Z"/><path class="cls-36" d="M407.66,188.05c0,53.86-43.66,97.52-97.51,97.52s-97.51-43.67-97.51-97.52,43.65-97.51,97.51-97.51,97.51,43.68,97.51,97.51Z"/><path class="cls-27" d="M384.6,317.61c0,38.64-31.32,69.97-69.96,69.97s-69.96-31.33-69.96-69.97,31.32-69.96,69.96-69.96,69.96,31.33,69.96,69.96Z"/><path class="cls-31" d="M299.1,323.51c0,47.75-38.7,86.47-86.46,86.47s-86.47-38.72-86.47-86.47,38.71-86.47,86.47-86.47,86.46,38.72,86.46,86.47Z"/><path class="cls-11" d="M456.13,171.08c0,11.74-9.51,21.26-21.25,21.26s-21.26-9.52-21.26-21.26,9.51-21.26,21.26-21.26,21.25,9.52,21.25,21.26Z"/><path class="cls-16" d="M362.55,132.57c2.14-.05,3.82-1.85,3.76-3.98-.06-2.15-1.86-3.83-3.99-3.77-2.14,.07-3.83,1.85-3.76,3.99,.06,2.14,1.85,3.83,3.99,3.76Z"/><path class="cls-15" d="M347.73,96.36c-.31,.87-1.26,1.32-2.12,1.01-.86-.31-1.32-1.25-1.01-2.12,.68-1.93,.25-4.39-.99-6.36-.67,1.77-1.77,3.27-3.19,4.22-2.07,1.37-4.52,1.51-6.57,.33-1.88-1.07-3.03-3.03-2.92-5.02,.06-1.26,.67-3.63,4.17-5.19,1.94-.86,3.93-1,5.78-.48-.02-.14-.05-.29-.09-.42-.34-1.44-1.22-3.56-3.51-5.06-1.03,1.88-2.39,3.51-3.95,4.56-2.1,1.39-4.72,1.14-6.85-.64-2.03-1.69-2.86-4.23-2.03-6.16,.72-1.63,2.72-3.42,8.29-2.74,.96,.11,1.88,.31,2.76,.56,.38-1.34,.53-2.71,.4-3.95-.25-2.18-1.34-3.66-3.26-4.39-.86-.34-1.29-1.29-.95-2.15,.32-.86,1.28-1.29,2.14-.96,3.08,1.18,4.98,3.73,5.37,7.15,.2,1.79-.05,3.74-.62,5.62,2.77,1.62,4.67,4.16,5.44,7.4,.25,1.05,.36,2.09,.34,3.13,.06,.05,.11,.1,.17,.15,2.27,2.1,3.61,5.17,3.69,8.13,.03,1.16-.13,2.31-.51,3.37Zm-12.24-5.79c.45,.25,1.64,.74,3.08-.21,1.16-.78,1.98-2.29,2.31-4.05-1.15-.57-2.64-.81-4.43-.02-1.37,.61-2.16,1.44-2.21,2.32,0,.04,0,.07,0,.12,.02,.69,.51,1.41,1.25,1.84Zm-6.87-11.93c.36,.31,1.64,1.24,2.87,.43,1.03-.68,1.98-1.8,2.72-3.11-.57-.15-1.19-.27-1.86-.35-3.37-.4-4.63,.28-4.83,.77-.05,.09-.06,.2-.06,.33,.02,.54,.42,1.33,1.15,1.95Z"/><polygon class="cls-15" points="374.37 102.99 378.57 95.17 363.93 87.3 359.74 95.11 374.37 102.99"/><g id="BLUE_DOTS"><path class="cls-15" d="M436.79,116.29c2.14-.07,3.82-1.86,3.76-4-.06-2.14-1.86-3.81-4-3.76-2.13,.06-3.82,1.85-3.76,3.99,.06,2.14,1.86,3.82,4,3.77Z"/></g><polygon class="cls-15" points="371.22 61.18 379.24 52.03 374.25 47.63 366.21 56.8 371.22 61.18"/><path class="cls-15" d="M344.32,53.07c2.71-.75,5.43-1.74,8.05-2.6,1.67,2.02,3.63,3.38,5.6,5.05-.04-2.86,.19-5.52,.45-8.25,2.49-.79,4.78-1.93,6.94-3.45-4.92-1.08-8.49-2.25-8.1-8.11-2.86,5.25-7.63,3.08-12.58,3.05,4.79,3,3.76,8.1,1.82,13.22"/><path class="cls-16" d="M309.05,121.01c-1.64-3.47,2.63-6.82,2.63-6.82-.81-.67-1.41-1.46-1.81-2.3-1.43-3.04-.13-6.68,3.78-7.69,4.84-.66,7.81,4.49,9.11,7.26,.22,.46,.41,.88,.53,1.17,.05,.22,.15,.43,.26,.67,.88,1.86,3.06,3.74,3.06,3.74,0,0-4.48,2.74-7.44,5.56-2.95,2.84-7.81,2.88-9.87-1.1-.1-.16-.18-.32-.26-.48m-1.77,.84h0c.11,.2,.22,.42,.34,.62,1.15,2.19,3.08,3.6,5.43,4,2.62,.43,5.4-.48,7.47-2.46,2.76-2.65,7.06-5.27,7.12-5.3l2.29-1.4-2.04-1.74c-.53-.45-2.01-1.91-2.59-3.11-.06-.14-.11-.26-.13-.36l-.05-.12-.06-.13v-.05c-.15-.29-.32-.71-.54-1.17-3.63-7.66-8.06-8.77-11.14-8.37l-.11,.02-.12,.03c-2.37,.61-4.19,2.06-5.14,4.07-.93,1.97-.9,4.3,.08,6.35,.24,.49,.51,.96,.85,1.42-.29,.31-.56,.67-.84,1.07-1.93,2.86-1.52,5.18-.84,6.63h0Z"/><path class="cls-36" d="M390.17,89.81c.41,2.11,2.47,3.46,4.56,3.04,2.11-.42,3.46-2.47,3.04-4.57-.43-2.11-2.47-3.46-4.57-3.04-2.1,.42-3.46,2.47-3.03,4.57Z"/><path class="cls-36" d="M427.18,56.83c-.9-.16-1.51-1.01-1.35-1.92,.15-.9,1.01-1.5,1.91-1.35,2.01,.34,4.37-.49,6.09-2.04-1.86-.37-3.52-1.19-4.7-2.44-1.7-1.81-2.24-4.2-1.43-6.41,.73-2.03,2.47-3.5,4.45-3.73,1.26-.15,3.69,.06,5.82,3.24,1.17,1.77,1.65,3.7,1.45,5.61,.13-.04,.27-.09,.4-.15,1.36-.58,3.29-1.81,4.39-4.32-2.02-.69-3.86-1.76-5.16-3.12-1.72-1.83-1.92-4.45-.52-6.86,1.32-2.28,3.69-3.53,5.74-3.03,1.71,.43,3.82,2.11,4.09,7.71,.04,.97,.02,1.91-.09,2.81,1.39,.15,2.76,.06,3.96-.28,2.11-.61,3.38-1.93,3.78-3.95,.19-.9,1.06-1.48,1.97-1.3,.9,.17,1.49,1.05,1.3,1.95-.64,3.23-2.83,5.54-6.13,6.5-1.74,.5-3.7,.59-5.65,.34-1.12,3.01-3.31,5.31-6.37,6.61-.99,.42-2,.7-3.04,.87-.03,.07-.08,.13-.11,.2-1.69,2.58-4.49,4.43-7.38,5.01-1.15,.22-2.32,.26-3.42,.07Zm3.65-13.04c-.18,.49-.45,1.74,.73,3,.96,1.01,2.59,1.56,4.38,1.59,.37-1.23,.36-2.74-.72-4.37-.84-1.25-1.79-1.89-2.66-1.78-.04,0-.07,0-.12,.01-.68,.14-1.31,.75-1.61,1.54Zm10.59-8.79c-.24,.41-.94,1.83,.07,2.9,.85,.9,2.11,1.65,3.52,2.16,.05-.58,.06-1.21,.03-1.89-.16-3.38-1.05-4.51-1.56-4.63-.1-.03-.21-.02-.33,0-.53,.11-1.25,.64-1.73,1.47Z"/><polygon class="cls-15" points="421.32 96.46 429.73 99.29 435.02 83.52 426.61 80.71 421.32 96.46"/><g id="BLUE_DOTS-2"><path class="cls-16" d="M399.01,124.21c.42,2.1,2.47,3.46,4.58,3.04,2.1-.43,3.44-2.47,3.03-4.57-.42-2.09-2.47-3.45-4.58-3.04-2.1,.43-3.45,2.48-3.03,4.57Z"/></g><polygon class="cls-15" points="400.65 50.26 411.03 56.64 414.52 50.97 404.11 44.59 400.65 50.26"/><path class="cls-15" d="M443.17,116.6c1.19,2.54,2.63,5.06,3.91,7.5-1.71,1.99-2.71,4.15-4.02,6.37,2.81-.53,5.46-.75,8.21-.95,1.2,2.32,2.71,4.39,4.57,6.27,.23-5.02,.77-8.75,6.63-9.36-5.67-1.93-4.33-7-5.14-11.89-2.14,5.23-7.34,5.08-12.72,4.03"/><path class="cls-16" d="M129.93,237.14c0,28.66-23.23,51.89-51.88,51.89s-51.88-23.23-51.88-51.89,23.23-51.88,51.88-51.88,51.88,23.24,51.88,51.88Z"/><path class="cls-30" d="M330.94,226.91c0,46.34-37.58,83.92-83.91,83.92s-83.9-37.58-83.9-83.92,37.56-83.91,83.9-83.91,83.91,37.58,83.91,83.91Z"/><path class="cls-22" d="M133.65,221.65c0,5.39-4.37,9.77-9.76,9.77s-9.76-4.37-9.76-9.77,4.37-9.76,9.76-9.76,9.76,4.37,9.76,9.76Z"/><path class="cls-13" d="M93.76,165.63c0,8.73-7.08,15.81-15.81,15.81s-15.81-7.08-15.81-15.81,7.08-15.81,15.81-15.81,15.81,7.08,15.81,15.81Z"/><path class="cls-24" d="M353.49,153.98c0,8.73-7.08,15.81-15.81,15.81s-15.81-7.08-15.81-15.81,7.08-15.81,15.81-15.81,15.81,7.08,15.81,15.81Z"/><path class="cls-33" d="M434.61,215.61c0,5.39-4.37,9.77-9.76,9.77s-9.76-4.37-9.76-9.77,4.37-9.76,9.76-9.76,9.76,4.37,9.76,9.76Z"/><path class="cls-29" d="M463.34,129.44c0,6.66-5.4,12.07-12.06,12.07s-12.07-5.4-12.07-12.07,5.4-12.07,12.07-12.07,12.06,5.4,12.06,12.07Z"/><path class="cls-29" d="M126.19,85.17c0,6.66-5.4,12.07-12.06,12.07s-12.07-5.4-12.07-12.07,5.4-12.07,12.07-12.07,12.06,5.4,12.06,12.07Z"/><path class="cls-21" d="M199.83,370.49c0,8.73-7.08,15.81-15.81,15.81s-15.81-7.08-15.81-15.81,7.08-15.81,15.81-15.81,15.81,7.08,15.81,15.81Z"/><path class="cls-22" d="M169.56,388.5c0,5.39-4.37,9.76-9.77,9.76s-9.76-4.37-9.76-9.76,4.37-9.77,9.76-9.77,9.77,4.37,9.77,9.77Z"/><path class="cls-24" d="M246.52,427.23c-.31,.86-1.26,1.32-2.12,1.01-.86-.31-1.32-1.25-1.01-2.12,.68-1.93,.25-4.39-.99-6.36-.67,1.78-1.77,3.27-3.19,4.22-2.07,1.37-4.52,1.51-6.57,.33-1.88-1.07-3.03-3.03-2.92-5.02,.06-1.26,.67-3.63,4.17-5.19,1.94-.86,3.93-1,5.78-.48-.02-.14-.05-.29-.09-.43-.34-1.43-1.22-3.56-3.51-5.06-1.03,1.88-2.39,3.51-3.95,4.56-2.1,1.38-4.72,1.14-6.85-.64-2.03-1.69-2.86-4.23-2.03-6.16,.72-1.63,2.72-3.42,8.29-2.74,.96,.11,1.88,.31,2.76,.56,.38-1.34,.53-2.71,.4-3.95-.25-2.18-1.34-3.66-3.26-4.39-.86-.34-1.29-1.29-.95-2.15,.32-.86,1.28-1.29,2.14-.96,3.08,1.18,4.98,3.73,5.37,7.15,.2,1.79-.05,3.74-.62,5.62,2.77,1.62,4.67,4.16,5.44,7.4,.25,1.05,.36,2.09,.34,3.13,.06,.05,.11,.1,.17,.15,2.27,2.1,3.61,5.17,3.69,8.13,.03,1.16-.13,2.31-.51,3.37Zm-12.24-5.8c.45,.26,1.64,.75,3.08-.21,1.16-.78,1.98-2.29,2.31-4.04-1.15-.57-2.64-.81-4.43-.02-1.37,.61-2.16,1.44-2.21,2.32,0,.04,0,.07,0,.12,.02,.69,.51,1.42,1.25,1.84Zm-6.87-11.93c.36,.31,1.64,1.23,2.87,.43,1.03-.68,1.98-1.8,2.72-3.12-.57-.14-1.19-.27-1.86-.35-3.37-.4-4.63,.28-4.83,.76-.05,.09-.06,.2-.06,.33,.02,.54,.42,1.33,1.15,1.95Z"/><polygon class="cls-14" points="270.01 392.06 278.04 382.9 273.05 378.5 265 387.68 270.01 392.06"/><path class="cls-24" d="M243.12,383.95c2.71-.75,5.43-1.74,8.05-2.6,1.67,2.02,3.63,3.38,5.6,5.05-.04-2.86,.19-5.52,.45-8.25,2.49-.79,4.78-1.93,6.94-3.45-4.92-1.08-8.49-2.25-8.1-8.11-2.86,5.25-7.63,3.08-12.58,3.05,4.79,3,3.76,8.1,1.82,13.22"/><path class="cls-14" d="M325.97,387.7c-.9-.16-1.51-1.01-1.35-1.92,.15-.9,1.01-1.5,1.91-1.35,2.01,.34,4.37-.49,6.09-2.04-1.86-.37-3.52-1.19-4.7-2.44-1.7-1.81-2.24-4.2-1.43-6.41,.73-2.03,2.47-3.5,4.45-3.73,1.26-.15,3.69,.06,5.82,3.24,1.17,1.77,1.65,3.7,1.45,5.61,.13-.04,.27-.09,.4-.15,1.36-.58,3.29-1.81,4.39-4.32-2.02-.69-3.86-1.76-5.16-3.12-1.72-1.83-1.92-4.45-.52-6.86,1.32-2.28,3.69-3.53,5.74-3.03,1.71,.43,3.82,2.11,4.09,7.71,.04,.97,.02,1.91-.09,2.81,1.39,.15,2.76,.06,3.96-.28,2.11-.61,3.38-1.93,3.78-3.95,.19-.9,1.06-1.48,1.97-1.3,.9,.17,1.49,1.05,1.3,1.95-.64,3.23-2.83,5.54-6.13,6.5-1.74,.5-3.7,.59-5.65,.34-1.12,3.01-3.31,5.31-6.37,6.61-.99,.42-2,.7-3.04,.87-.03,.07-.08,.13-.11,.2-1.69,2.58-4.49,4.43-7.38,5.01-1.15,.22-2.32,.26-3.42,.07Zm3.65-13.04c-.18,.49-.46,1.74,.73,3,.96,1.01,2.59,1.56,4.38,1.59,.37-1.23,.36-2.74-.72-4.37-.84-1.25-1.79-1.89-2.66-1.78-.04,0-.07,0-.12,.01-.68,.14-1.31,.75-1.61,1.54Zm10.59-8.79c-.24,.41-.94,1.83,.07,2.9,.85,.9,2.11,1.65,3.52,2.16,.05-.58,.06-1.21,.03-1.89-.17-3.38-1.05-4.51-1.56-4.63-.1-.03-.21-.02-.33,0-.53,.11-1.25,.64-1.73,1.47Z"/><polygon class="cls-15" points="299.44 381.13 309.83 387.51 313.32 381.84 302.91 375.46 299.44 381.13"/><g><path class="cls-28" d="M61.12,385.97c-1.35,9.2-2.7,18.38-4.05,27.59,20.18-10.28,40.98-18.82,62.19-25.62v-49.61c-21.21,6.8-42,15.35-62.19,25.62,1.35,7.33,2.7,14.67,4.05,22.02Z"/><path class="cls-26" d="M119.59,387.88c-13.32-3.54-26.48-6.4-39.42-8.57,5.56-12.35,11.15-24.56,16.77-36.66,7.48,3.21,15.02,6.65,22.61,10.3,.01,11.65,.03,23.28,.03,34.93Z"/><path class="cls-28" d="M432.95,385.97c1.35,9.19,2.7,18.38,4.05,27.59-20.18-10.28-40.98-18.82-62.19-25.63v-49.6c21.21,6.8,42.01,15.35,62.19,25.62-1.35,7.33-2.7,14.67-4.05,22.02Z"/><path class="cls-26" d="M374.47,387.87c13.32-3.54,26.48-6.4,39.42-8.57-5.55-12.35-11.14-24.56-16.77-36.66-7.48,3.21-15.02,6.65-22.61,10.3-.01,11.65-.02,23.28-.03,34.92Z"/><path class="cls-35" d="M413.52,379.08c-106.33-46.13-227.14-46.06-333.43,.2v-49.6c106.29-46.26,227.1-46.34,333.43-.21v49.61Z"/></g><polygon class="cls-16" points="330.83 423.81 335.04 416 320.4 408.12 316.2 415.93 330.83 423.81"/><polygon class="cls-36" points="291.27 406.74 299.3 397.59 294.31 393.19 286.27 402.36 291.27 406.74"/><path class="cls-15" d="M300.78,373.9c2.71-.75,5.43-1.74,8.05-2.6,1.67,2.02,3.63,3.38,5.6,5.05-.04-2.86,.19-5.52,.45-8.25,2.49-.79,4.78-1.93,6.94-3.45-4.92-1.08-8.49-2.25-8.1-8.11-2.86,5.25-7.63,3.08-12.58,3.05,4.79,3,3.76,8.1,1.82,13.22"/><path class="cls-36" d="M265.52,441.83c-1.64-3.47,2.63-6.82,2.63-6.82-.81-.67-1.41-1.46-1.81-2.3-1.43-3.04-.12-6.68,3.78-7.69,4.84-.66,7.8,4.49,9.11,7.26,.22,.46,.41,.88,.53,1.17,.05,.22,.15,.43,.26,.67,.88,1.86,3.06,3.74,3.06,3.74,0,0-4.48,2.74-7.44,5.56-2.95,2.84-7.8,2.88-9.87-1.1-.1-.16-.18-.32-.26-.48m-1.77,.84h0c.11,.2,.22,.42,.34,.62,1.15,2.19,3.08,3.6,5.43,4,2.62,.43,5.4-.48,7.47-2.46,2.77-2.65,7.06-5.27,7.12-5.3l2.29-1.4-2.04-1.74c-.53-.45-2.01-1.91-2.59-3.11-.06-.14-.11-.26-.13-.36l-.05-.12-.06-.13v-.05c-.15-.29-.32-.71-.54-1.17-3.63-7.66-8.06-8.77-11.14-8.37l-.11,.02-.12,.03c-2.37,.61-4.19,2.06-5.14,4.07-.93,1.97-.9,4.3,.08,6.35,.24,.49,.51,.96,.85,1.42-.29,.31-.56,.67-.84,1.07-1.93,2.86-1.52,5.18-.84,6.63h0Z"/><g><polygon class="cls-8" points="306.32 455.25 306.32 415.15 331.17 455.25 306.32 455.25 306.32 455.25"/><polygon class="cls-32" points="306.32 455.25 306.32 415.15 331.17 455.25 306.32 455.25 306.32 455.25"/></g><g><polygon class="cls-5" points="306.32 455.25 306.32 415.15 281.6 455.25 306.32 455.25 306.32 455.25"/><polygon class="cls-20" points="306.32 455.25 306.32 415.15 281.6 455.25 306.32 455.25 306.32 455.25"/></g><g><polygon class="cls-2" points="249.4 445.96 249.15 464.7 237.79 445.8 249.4 445.96 249.4 445.96"/><polygon class="cls-12" points="249.4 445.96 249.15 464.7 237.79 445.8 249.4 445.96 249.4 445.96"/></g><g><polygon class="cls-3" points="249.4 445.96 249.15 464.7 260.96 446.12 249.4 445.96 249.4 445.96"/><polygon class="cls-18" points="249.4 445.96 249.15 464.7 260.96 446.12 249.4 445.96 249.4 445.96"/></g><path class="cls-34" d="M238.13,439.62c0,8.73-7.08,15.81-15.81,15.81s-15.81-7.08-15.81-15.81,7.08-15.81,15.81-15.81,15.81,7.08,15.81,15.81Z"/><g><path class="cls-9" d="M106.21,346.52c-2.53-7.8,1.67-14.77,8.84-17.09,3.12-1.01,6-.95,7.54-.49,.43,1.53,1.08,5.12,.72,8.16-1.04-.95-3.36-1.91-5.92-1.08-3.13,1.02-4.58,3.88-3.51,7.18,1.29,3.98,4.85,4.3,7.71,3.37,2.67-.87,4.69-2.76,5.21-4.27,.85,1.69,1.1,4.07,1.21,6.78-.88,1.75-3.21,4.05-6.8,5.22-6.5,2.11-12.75-.86-14.99-7.77Z"/><path class="cls-9" d="M128.63,342.51c-1.49-5.52,1.72-10.88,7.29-12.39,5.16-1.4,9.85,1.09,11.24,6.23,1.48,5.47-1.72,10.89-7.34,12.41-5.14,1.39-9.81-1.14-11.19-6.25Zm11.29-3.48c-.67-2.63-2-3.3-3.08-3-1.15,.31-1.57,1.48-.97,3.81,.67,2.63,1.89,3.33,2.97,3.04,1.15-.31,1.68-1.51,1.08-3.84Z"/><path class="cls-9" d="M169.23,334.64c.82,3.77,1.41,5.56,1.63,5.85-2.37,1-4.85,1.8-7.53,2.31-.2-.55-.78-2.7-1.61-6.5l-.82-3.75c-.22-1.03-.88-1.57-1.88-1.35-1.32,.29-2.02,1.67-1.62,3.5l.53,2.42c.67,3.08,1.32,5.27,1.61,6.05-2.58,.97-5.06,1.62-7.56,1.94-.2-.54-.76-2.64-1.57-6.35l-.76-3.48c-.66-3.03-1.47-4.85-2.1-6.3,1.72-1.3,3.98-2.14,6.09-3.25,.66,.92,1.47,2.09,2.18,3.66,.35-2.73,2.4-4.68,5.09-5.27,3.55-.78,6.29,1.25,7.27,5.77l1.04,4.75h0Z"/><path class="cls-9" d="M192.3,337.76c.66,3.95-2.35,7.53-9.62,8.74-5.4,.9-9.55-.44-10.02-3.26-.28-1.65,1.05-3.33,3.01-4.41-.82-.52-1.45-1.34-1.67-2.64-.17-.99-.11-2.31,1.12-3.5-1.99-.55-3.34-1.88-3.7-4.06-.71-4.3,3.25-7.17,7.63-7.9,1.04-.17,2.02-.22,2.92-.15l7.25-1.21c.23,1.38,0,2.9,0,4.34l-2.57-.86c.51,.68,.86,1.5,1.02,2.46,.71,4.26-3.27,6.72-7.68,7.45-.41,.07-.8,.12-1.19,.16,.11,.46,.56,.86,2.97,.92l5.44,.12c3.16,.08,4.69,1.38,5.09,3.78Zm-14.4-10.67c.15,.89,.85,1.36,1.65,1.23,.8-.13,1.74-.86,1.56-1.93-.15-.9-.84-1.31-1.63-1.18-.79,.13-1.76,.8-1.58,1.88Zm7,13.35c-.08-.48-.41-.63-1.26-.66l-3.69-.09c-.37,.42-.56,.89-.49,1.28,.14,.84,1,1.6,3.31,1.21,1.31-.22,2.29-.8,2.13-1.75Z"/><path class="cls-9" d="M205.53,326.29c-3.04-1.36-4.96,.1-4.57,3.48v.02c.38,3.13,.82,5.37,1.04,6.18-2.66,.72-5.19,1.14-7.71,1.23-.14-.56-.51-2.7-.97-6.47l-.43-3.53c-.38-3.08-1.01-4.97-1.5-6.47,1.84-1.13,4.16-1.76,6.37-2.66,.57,.98,1.26,2.21,1.82,3.84,1.07-2.79,3.6-4.53,6.59-4.9,.45,2.73,.19,5.9-.65,9.29Z"/><path class="cls-9" d="M227.14,332.8c-1.74,1.04-3.84,1.74-6.31,2.08-.78-.82-1.46-1.95-1.93-3.12-.98,2.34-2.95,3.51-5.02,3.67-2.69,.21-5.1-1.31-5.34-4.5-.3-3.93,3.01-6.43,8.01-6.82,.64-.05,1.18-.05,1.57-.04-.28-1.3-1.15-2.32-3.35-2.15-1.81,.14-3.82,1.06-4.84,1.72-.47-1.31-.78-2.83-.98-4.55,1.34-1.11,4.33-2.68,8.01-2.97,4.86-.38,8.07,1.6,8.51,7.33l.23,2.98c.19,2.42,.55,4.77,1.44,6.38h0Zm-8.93-5.78c-.28,0-.61,0-.98,.02-1.61,.12-2.41,.7-2.34,1.62,.05,.67,.55,1.15,1.41,1.08,1.08-.08,1.73-.98,1.91-2.73Z"/><path class="cls-9" d="M243.25,332.17c-.91,.78-2.95,1.83-5.55,1.92-3.17,.1-7.47-1.2-7.65-6.98l-.16-4.99-2.44,.08c.2-1.87,.65-3.8,.6-5.62l2.42-.6,.55-4.03c1.81-.91,4.04-1.29,6.18-1.96l.2,6.3,6.02-.19c.06,1.82-.4,3.74-.6,5.62l-5.24,.17,.09,2.88c.07,2.32,1.61,2.92,2.57,2.89,1.32-.04,2.68-.67,3.48-1.13,.27,1.53,0,3.46-.47,5.65Z"/><path class="cls-9" d="M265.74,332.63c-1.83,.87-3.99,1.36-6.48,1.46-.81-1.03-1.44-2.47-1.77-3.89-1.03,2.44-3.42,3.79-6.1,3.74-3.63-.07-5.82-2.68-5.73-7.3l.19-9.69c2.29-1,5.06-1.33,7.73-2.02l-.22,10.83c-.02,1.05,.5,1.73,1.51,1.75,1.35,.03,2.35-1.15,2.39-3.03l.05-2.48c.06-3.16-.05-5.43-.16-6.26,2.73-.34,5.3-.4,7.8-.13,.06,.58,.12,2.74,.04,6.54l-.08,3.99c-.05,2.43,.09,4.8,.81,6.49h0Z"/><path class="cls-9" d="M276.33,334.31c-2.75,.22-5.31,.16-7.8-.23-.04-.58,0-2.75,.25-6.54l1.21-18.27c2.33-.89,5.11-1.1,7.82-1.66l-1.35,20.44c-.21,3.15-.2,5.43-.13,6.26Z"/><path class="cls-9" d="M296.72,335.49c-1.91,.7-4.1,1-6.58,.87-.62-.95-1.07-2.19-1.32-3.43-1.4,2.12-3.55,2.9-5.61,2.68-2.68-.29-4.76-2.24-4.42-5.41,.43-3.92,4.16-5.76,9.13-5.21,.64,.07,1.17,.17,1.55,.25-.03-1.33-.7-2.49-2.89-2.73-1.8-.2-3.95,.33-5.07,.79-.22-1.38-.24-2.93-.12-4.66,1.52-.84,4.75-1.83,8.42-1.43,4.85,.53,7.63,3.07,7,8.78l-.33,2.97c-.27,2.41-.34,4.79,.23,6.53h0Zm-7.7-7.34c-.27-.06-.6-.12-.96-.16-1.6-.18-2.5,.24-2.6,1.16-.07,.67,.33,1.23,1.18,1.33,1.08,.12,1.88-.64,2.38-2.33Z"/><path class="cls-9" d="M312.63,337.96c-1.04,.59-3.24,1.24-5.81,.82-3.13-.51-7.1-2.6-6.17-8.32l.8-4.93-2.41-.39c.55-1.8,1.37-3.6,1.66-5.4l2.49-.13,1.31-3.85c1.96-.54,4.21-.49,6.44-.74l-1.01,6.22,5.94,.97c-.29,1.8-1.11,3.6-1.66,5.4l-5.17-.84-.46,2.85c-.37,2.29,1.02,3.18,1.97,3.33,1.31,.21,2.76-.14,3.63-.44-.03,1.56-.67,3.39-1.55,5.46Z"/><path class="cls-9" d="M323.01,341.15c-2.75-.16-5.28-.57-7.7-1.29,.04-.58,.38-2.72,1.14-6.44l2-9.72c2.43-.57,5.22-.39,7.97-.58l-2.43,11.85c-.64,3.09-.93,5.35-.98,6.19Zm-3.44-24.62c.41-2,2.5-3.12,4.81-2.64,2.31,.47,3.82,2.33,3.41,4.33-.41,2.01-2.54,3.16-4.85,2.69-2.3-.47-3.78-2.36-3.36-4.38Z"/><path class="cls-9" d="M326.91,333.43c1.42-5.54,6.85-8.62,12.44-7.2,5.18,1.32,8.04,5.79,6.72,10.95-1.4,5.49-6.86,8.64-12.5,7.2-5.16-1.32-7.98-5.82-6.67-10.95Zm11.54,2.53c.71-2.62-.12-3.85-1.2-4.13-1.15-.29-2.09,.51-2.72,2.84-.71,2.62,0,3.82,1.09,4.1,1.15,.29,2.2-.48,2.83-2.81Z"/><path class="cls-9" d="M364.5,352.75c-2.55-.34-5.1-.9-7.66-1.82,.1-.58,.69-2.72,1.9-6.42l1.19-3.65c.33-1,.03-1.8-.93-2.11-1.29-.42-2.59,.41-3.17,2.2l-.77,2.36c-.98,3-1.53,5.21-1.67,6.03-2.71-.47-5.18-1.16-7.5-2.15,.11-.57,.68-2.66,1.86-6.27l1.1-3.38c.96-2.95,1.19-4.93,1.38-6.49,2.14-.25,4.51,.17,6.89,.28,.1,1.13,.21,2.54,.03,4.25,1.68-2.17,4.44-2.82,7.06-1.97,3.45,1.13,4.79,4.26,3.35,8.65l-1.51,4.62c-1.2,3.67-1.59,5.51-1.55,5.87Z"/><path class="cls-9" d="M366.97,353.87c.01-2.18,.54-4.27,1.57-6.36,.85,1.25,2.74,3.2,5.08,4.12,1.06,.42,1.78,.46,1.93,.07,.17-.43-.5-1.04-1.78-2.23-1.35-1.25-3.97-3.67-2.65-7.02,1.31-3.33,5.25-4.44,10.51-2.37,2.04,.8,3.79,1.92,4.54,2.53-.6,1.54-1.69,3.1-3.15,4.59-.51-.76-1.73-1.98-3.2-2.56-.98-.39-1.6-.33-1.74,.02-.18,.44,.5,1.06,1.78,2.23,1.38,1.27,4,3.66,2.67,7-1.31,3.33-5.47,4.82-10.99,2.64-2.19-.86-3.79-1.99-4.55-2.66Z"/><path class="cls-9" d="M383.84,357.94c.88-1.96,3.09-2.75,5.07-1.87,1.84,.82,2.62,2.66,1.8,4.48-.87,1.94-3.09,2.76-5.09,1.86-1.83-.82-2.59-2.66-1.78-4.48Zm4.03-5.47l4.34-14.48c3.84,1.71,6.64,2.85,7.69,3.24l-7.92,12.97c-1.5-.47-2.86-1.03-4.11-1.74h0Z"/></g><g><path class="cls-23" d="M248.51,210.49c2.94,.35,5.89,.1,8.83,.15,1.24,.02,1.59-1.03,2.11-1.83,4.72-7.32,10.78-13.19,18.46-17.34,2.61-1.41,5.35-2.49,8.18-3.35,1.62-.5,2.99-.03,4.06,1.25,1.03,1.23,1.18,2.63,.43,4.05-4.15,7.76-5.3,16.18-5.33,24.8-.06,16.57-.01,33.14-.02,49.71,0,9.24-5.47,14.72-14.68,14.72-10.42,0-20.85-.03-31.27,0-14.36,.04-25.16-6.18-32.53-18.49-.2-.34-.45-.64-.67-.96-.13-.37-.23-.75-.39-1.1-11.11-24.8,6.08-51.42,33.22-51.47,3.21,0,6.41-.09,9.62-.14Z"/><g><path class="cls-17" d="M240.03,195.86c2.94,.35,5.89,.1,8.83,.15,1.24,.02,1.59-1.03,2.11-1.83,4.72-7.32,10.78-13.19,18.46-17.34,2.61-1.41,5.35-2.49,8.18-3.35,1.62-.5,2.99-.03,4.06,1.25,1.03,1.23,1.18,2.63,.43,4.05-4.15,7.76-5.3,16.18-5.33,24.8-.06,16.57-.01,33.14-.02,49.71,0,9.24-5.47,14.72-14.68,14.72-10.42,0-20.85-.03-31.27,0-14.36,.04-25.16-6.18-32.53-18.49-.2-.34-.45-.64-.67-.96-.13-.37-.23-.75-.39-1.1-11.11-24.8,6.08-51.42,33.22-51.47,3.21,0,6.41-.09,9.62-.14Z"/><path class="cls-23" d="M230.63,270.12c-14.93,0-26.42-6.56-34.17-19.51-.1-.17-.22-.33-.34-.5l-.25-.35c-.11-.16-.2-.33-.26-.51l-.13-.4c-.06-.18-.12-.37-.19-.55-5.51-12.3-4.61-26.14,2.43-37.03,7.02-10.87,19.25-17.37,32.7-17.39,2.17,0,4.34-.04,6.51-.08l3.09-.05c.08,0,.18,0,.28,.01,1.82,.22,3.66,.19,5.62,.15,.93-.01,1.87-.03,2.79-.02,.07-.11,.15-.25,.22-.36,.1-.17,.2-.34,.3-.5,5.04-7.81,11.5-13.88,19.22-18.05,2.56-1.39,5.36-2.54,8.56-3.51,2.42-.74,4.64-.06,6.28,1.91,1.58,1.89,1.82,4.22,.67,6.38-3.43,6.43-5.05,14-5.09,23.82-.04,10.82-.03,21.64-.03,32.46v17.23c0,10.37-6.43,16.82-16.77,16.82h-11.17c-6.7,0-13.4-.01-20.1,0h-.16Zm-31.15-22.52l.03,.04c.19,.27,.38,.53,.55,.81,7.04,11.75,17.04,17.47,30.56,17.47h.15c6.71-.02,13.4-.02,20.12,0h11.17c7.99,0,12.57-4.6,12.58-12.62v-17.23c-.01-10.83-.02-21.66,.02-32.48,.04-10.54,1.82-18.73,5.58-25.78,.35-.65,.29-1.13-.19-1.71-.55-.66-1.04-.83-1.83-.59-2.93,.9-5.48,1.94-7.79,3.19-7.09,3.83-13.04,9.43-17.69,16.63l-.2,.34c-.47,.8-1.43,2.45-3.64,2.45h-.07c-.96-.02-1.91,0-2.86,.02-1.96,.04-3.99,.07-6.05-.16l-2.94,.05c-2.19,.04-4.38,.08-6.57,.08-12.2,.02-22.84,5.66-29.18,15.47-6.35,9.83-7.13,21.87-2.12,33.03,.14,.31,.25,.64,.35,.96v.03Z"/></g><path class="cls-23" d="M247.64,236.2c-.73,0-1.37-.48-1.52-1.22-.34-1.62,.43-4.99,5.81-6.14,5.06-1.07,7.3,1.57,7.77,3.12,.25,.83-.22,1.71-1.05,1.96-.83,.25-1.69-.2-1.95-1.01-.08-.2-.78-1.7-4.11-.99-3.49,.74-3.4,2.29-3.37,2.46,.11,.84-.46,1.65-1.29,1.79-.09,.02-.18,.02-.28,.02Z"/><path class="cls-23" d="M215.53,238.9c-.6,0-1.17-.35-1.44-.93-.36-.79,0-1.73,.79-2.08l5.97-2.69-5.59-3.28c-.75-.44-1-1.41-.56-2.16,.44-.75,1.4-1,2.16-.56l8.21,4.82c.51,.3,.81,.85,.78,1.44-.03,.59-.39,1.11-.93,1.35l-8.75,3.94c-.21,.09-.43,.14-.65,.14Z"/></g></svg>