<?xml version="1.0" encoding="UTF-8"?><svg id="_图层_1" xmlns="http://www.w3.org/2000/svg" xmlns:xlink="http://www.w3.org/1999/xlink" viewBox="0 0 500 500"><defs><style>.cls-1{opacity:.25;}.cls-1,.cls-2,.cls-3{fill:#e1d9eb;}.cls-4{clip-path:url(#clippath-2);}.cls-3{opacity:.33;}.cls-5{fill:#535354;}.cls-6{clip-path:url(#clippath-1);}.cls-7{clip-path:url(#clippath-4);}.cls-8{fill:#ec7552;}.cls-9{clip-path:url(#clippath);}.cls-10{fill:none;}.cls-11{fill:#999;}.cls-12{clip-path:url(#clippath-3);}.cls-13{fill:#383838;}.cls-14{clip-path:url(#clippath-5);}.cls-15{fill:#666;}</style><clipPath id="clippath"><rect class="cls-10" x="218.68" y="191.42" width="94.87" height="103.81"/></clipPath><clipPath id="clippath-1"><rect class="cls-10" x="335.79" y="168.73" width="36.01" height="35.9"/></clipPath><clipPath id="clippath-2"><rect class="cls-10" x="327.36" y="209.26" width="47.66" height="47.8" transform="translate(-29.19 414.85) rotate(-59.11)"/></clipPath><clipPath id="clippath-3"><rect class="cls-10" x="267.67" y="152.08" width="25.99" height="25.91" transform="translate(-34.4 82.92) rotate(-15.85)"/></clipPath><clipPath id="clippath-4"><rect class="cls-10" x="150.74" y="158.86" width="45.92" height="45.78"/></clipPath><clipPath id="clippath-5"><rect class="cls-10" x="131.63" y="202.06" width="29.78" height="29.69" transform="translate(-56.26 51.38) rotate(-16.74)"/></clipPath></defs><g><ellipse class="cls-3" cx="264.62" cy="257.43" rx="150.35" ry="118.57"/><ellipse class="cls-2" cx="264.62" cy="257.43" rx="119.27" ry="94.06"/><ellipse class="cls-1" cx="264.62" cy="257.43" rx="96.19" ry="75.86"/><ellipse class="cls-2" cx="264.62" cy="257.43" rx="71.17" ry="56.13"/></g><g><g class="cls-9"><path class="cls-13" d="M301.34,191.41h-59.17c-6.63,0-12.03,5.36-12.09,11.98-2.27,.36-4.37,1.05-6.13,2.03-3.35,1.87-5.27,4.73-5.27,7.84s1.92,5.97,5.27,7.84c1.76,.98,3.86,1.67,6.13,2.03v5.46c-2.27,.36-4.37,1.05-6.13,2.03-3.35,1.87-5.27,4.73-5.27,7.84s1.92,5.97,5.27,7.84c1.76,.98,3.86,1.67,6.13,2.03v5.53c-2.11,.37-4.07,1.04-5.73,1.96-3.35,1.87-5.27,4.73-5.27,7.84s1.92,5.97,5.27,7.84c1.66,.93,3.62,1.59,5.73,1.96v9.55c0,6.67,5.42,12.09,12.09,12.09h59.17c6.67,0,12.09-5.42,12.09-12.09v-79.51c0-6.67-5.42-12.09-12.09-12.09h0Zm-72.91,22.99c-1-.45-1.49-.9-1.68-1.14,.19-.24,.68-.7,1.68-1.15,.5-.23,1.06-.42,1.65-.57v3.43c-.59-.15-1.15-.34-1.65-.57h0Zm0,25.2c-1-.45-1.49-.9-1.68-1.15,.19-.24,.68-.69,1.68-1.14,.5-.23,1.06-.42,1.65-.57v3.43c-.59-.15-1.15-.34-1.65-.57h0Zm.4,25.2c-1-.45-1.49-.9-1.68-1.15,.19-.24,.68-.7,1.68-1.14,.39-.17,.81-.33,1.25-.46v3.21c-.44-.13-.86-.28-1.25-.46h0Zm76.6,18.21c0,2.26-1.83,4.09-4.09,4.09h-59.17c-2.26,0-4.09-1.83-4.09-4.09v-20.96c.44,.13,.86,.28,1.25,.46,1.15,.52,1.63,1.05,1.75,1.24,.05,2.16,1.82,3.9,4,3.9s4-1.79,4-4c0-3.11-1.92-5.97-5.27-7.84-1.66-.93-3.62-1.59-5.73-1.96v-16.87c.3,.1,.58,.21,.85,.33,1.15,.52,1.63,1.05,1.75,1.24,.05,2.16,1.82,3.9,4,3.9s4-1.79,4-4c0-3.11-1.92-5.97-5.27-7.84-1.55-.87-3.37-1.5-5.33-1.89v-16.95c.3,.1,.58,.21,.85,.33,1.15,.52,1.63,1.05,1.75,1.24,.05,2.16,1.82,3.9,4,3.9s4-1.79,4-4c0-3.11-1.92-5.97-5.27-7.84-1.55-.87-3.37-1.5-5.33-1.89v-.03c0-2.25,1.83-4.09,4.09-4.09h59.17c2.26,0,4.09,1.84,4.09,4.09v79.51Zm0,0"/></g><path class="cls-13" d="M294.07,216.9h-36.69c-2.21,0-4-1.79-4-4s1.79-4,4-4h36.69c2.21,0,4,1.79,4,4s-1.79,4-4,4h0Zm0,20.26h-36.69c-2.21,0-4-1.79-4-4s1.79-4,4-4h36.69c2.21,0,4,1.79,4,4s-1.79,4-4,4h0Zm0,20.26h-36.69c-2.21,0-4-1.79-4-4s1.79-4,4-4h36.69c2.21,0,4,1.79,4,4s-1.79,4-4,4h0Zm0,20.26h-36.69c-2.21,0-4-1.79-4-4s1.79-4,4-4h36.69c2.21,0,4,1.79,4,4s-1.79,4-4,4h0Zm0,0"/></g><g class="cls-6"><path class="cls-11" d="M371.42,173.23c.11,.25,.2,.53,.27,.86,.07,.33,.1,.67,.1,1.02s-.07,.71-.2,1.06c-.14,.35-.35,.7-.66,1.02-.33,.33-.62,.61-.88,.86-.26,.25-.48,.46-.68,.66-.22,.22-.42,.41-.61,.57l-7.66-7.66c.33-.3,.72-.66,1.17-1.09,.45-.42,.83-.76,1.13-1,.38-.3,.78-.51,1.19-.63,.41-.12,.81-.18,1.21-.16,.4,.01,.78,.08,1.15,.18,.37,.11,.69,.23,.96,.37,.57,.3,1.21,.83,1.9,1.58,.7,.75,1.24,1.54,1.62,2.35h0Zm-31.9,19.98c.16-.16,.55-.55,1.15-1.17,.6-.61,1.35-1.37,2.25-2.27l15.11-15.11,7.66,7.7-8.8,8.8-3.28,3.32c-1.09,1.06-2.07,2.04-2.95,2.93-.87,.89-1.6,1.62-2.17,2.19-.57,.57-.91,.9-1.02,.98-.27,.25-.59,.51-.94,.78-.36,.27-.72,.49-1.11,.66-.38,.19-.94,.42-1.68,.7-.74,.27-1.51,.54-2.31,.8-.81,.26-1.57,.48-2.29,.68-.72,.19-1.26,.31-1.62,.37-.74,.08-1.23-.03-1.47-.33-.25-.3-.31-.81-.2-1.52,.05-.38,.18-.94,.39-1.66,.2-.72,.42-1.47,.66-2.25,.23-.78,.46-1.49,.68-2.15,.22-.66,.4-1.11,.53-1.35,.16-.38,.35-.73,.55-1.04,.2-.31,.5-.66,.88-1.04h0Zm0,0"/></g><g class="cls-4"><path class="cls-13" d="M380.44,229.86c-.04,.35-.14,.74-.28,1.16-.15,.42-.34,.83-.58,1.24s-.56,.76-.96,1.07c-.4,.31-.88,.55-1.44,.72-.6,.15-1.13,.28-1.59,.38-.46,.1-.87,.2-1.22,.29-.4,.1-.76,.18-1.09,.23l-3.51-13.94c.58-.12,1.27-.27,2.07-.44,.8-.18,1.46-.3,1.97-.38,.64-.08,1.24-.05,1.79,.09,.55,.14,1.05,.35,1.49,.64,.44,.29,.84,.62,1.18,.99,.35,.38,.63,.73,.85,1.08,.45,.73,.81,1.76,1.09,3.09,.28,1.33,.36,2.59,.24,3.78h0Zm-49.96,1.03c.3-.07,1-.26,2.1-.55,1.1-.29,2.47-.64,4.11-1.05l27.51-6.92,3.48,13.99-16.03,4.03-5.99,1.55c-1.97,.47-3.75,.91-5.35,1.33-1.6,.42-2.92,.75-3.97,1.02-1.04,.26-1.66,.4-1.84,.42-.48,.09-1.01,.18-1.6,.24-.59,.07-1.16,.07-1.71,0-.57-.04-1.36-.16-2.39-.35-1.03-.19-2.09-.41-3.18-.67-1.09-.25-2.12-.52-3.07-.79-.95-.28-1.65-.5-2.09-.68-.9-.41-1.38-.87-1.46-1.38-.08-.51,.19-1.13,.8-1.87,.32-.4,.85-.94,1.57-1.62,.73-.68,1.49-1.39,2.28-2.12,.79-.73,1.54-1.39,2.23-1.99,.7-.6,1.2-.99,1.53-1.18,.45-.32,.89-.59,1.34-.81,.45-.22,1.02-.41,1.71-.59h0Zm0,0"/></g><g class="cls-12"><path class="cls-15" d="M290.26,152.22c.12,.15,.24,.33,.35,.54,.11,.21,.2,.44,.27,.69s.09,.51,.07,.78c-.02,.27-.11,.55-.25,.84-.16,.29-.31,.55-.44,.77-.13,.22-.25,.42-.34,.59-.11,.19-.21,.37-.31,.52l-6.83-3.81c.17-.27,.37-.6,.6-.98,.23-.38,.42-.69,.58-.92,.21-.28,.44-.51,.7-.67,.26-.17,.53-.28,.81-.35,.28-.07,.56-.1,.83-.1,.28,0,.52,.03,.74,.07,.46,.1,1,.34,1.63,.72,.63,.38,1.16,.82,1.59,1.32h0Zm-18.21,20.16c.08-.15,.27-.49,.57-1.04,.3-.54,.67-1.22,1.12-2.02l7.51-13.47,6.83,3.84-4.38,7.85-1.62,2.95c-.55,.95-1.04,1.83-1.47,2.61-.43,.79-.79,1.44-1.08,1.95-.29,.51-.46,.81-.52,.88-.14,.22-.31,.47-.5,.73-.19,.26-.41,.48-.64,.67-.23,.21-.57,.48-1.03,.81-.46,.33-.94,.67-1.45,1.01-.51,.34-.99,.65-1.46,.92-.46,.28-.81,.47-1.05,.57-.5,.2-.86,.22-1.09,.06-.23-.16-.38-.5-.44-1.01-.04-.28-.06-.69-.06-1.23,0-.54,0-1.11,.01-1.69,0-.59,.02-1.13,.05-1.63,.02-.5,.06-.85,.1-1.04,.04-.3,.1-.58,.18-.83,.08-.26,.22-.56,.41-.9h0Zm0,0"/></g><g class="cls-7"><path class="cls-11" d="M151.22,164.6c.49-1.04,1.17-2.05,2.06-3,.89-.96,1.7-1.63,2.43-2.01,.35-.17,.76-.33,1.23-.47,.47-.14,.96-.22,1.46-.24,.5-.02,1.02,.05,1.54,.21,.52,.16,1.03,.43,1.51,.81,.38,.31,.86,.74,1.44,1.28,.57,.54,1.07,1,1.49,1.38l-9.76,9.76c-.24-.21-.5-.45-.78-.73-.24-.24-.53-.52-.86-.84-.33-.31-.7-.68-1.12-1.1-.38-.42-.66-.85-.84-1.31-.17-.45-.26-.91-.26-1.36s.04-.89,.13-1.31c.09-.42,.2-.78,.34-1.1h0Zm40.67,25.48c.49,.49,.86,.93,1.12,1.33,.26,.4,.5,.84,.7,1.33,.17,.31,.4,.89,.68,1.72,.28,.84,.57,1.75,.86,2.74,.3,.99,.57,1.95,.84,2.87,.26,.92,.43,1.63,.5,2.11,.14,.91,.05,1.55-.26,1.93-.31,.38-.94,.52-1.88,.42-.45-.07-1.14-.23-2.06-.47-.92-.24-1.9-.53-2.92-.86-1.03-.33-2.01-.67-2.95-1.02-.94-.35-1.65-.64-2.14-.89-.49-.21-.96-.49-1.41-.84-.45-.35-.85-.68-1.2-.99-.14-.1-.57-.52-1.31-1.25-.73-.73-1.65-1.66-2.77-2.79-1.11-1.13-2.37-2.38-3.76-3.73l-4.18-4.23-11.23-11.23,9.76-9.82,19.27,19.27c1.15,1.15,2.11,2.11,2.87,2.9,.77,.78,1.25,1.28,1.46,1.49h0Zm0,0"/></g><g class="cls-14"><path class="cls-15" d="M129.36,210.45c.11-.74,.35-1.49,.72-2.25,.37-.76,.75-1.33,1.13-1.7,.18-.17,.41-.35,.67-.52,.27-.17,.55-.31,.86-.42,.31-.1,.64-.16,1-.16,.35,0,.72,.07,1.09,.22,.3,.12,.67,.3,1.13,.53,.46,.23,.85,.42,1.18,.58l-4.24,7.89c-.19-.08-.4-.19-.62-.31-.2-.11-.43-.23-.69-.36-.26-.13-.56-.29-.9-.47-.32-.19-.57-.41-.76-.65-.19-.25-.33-.51-.42-.79s-.14-.56-.16-.84c-.02-.28-.02-.52,0-.74h0Zm30.02,8.23c.39,.21,.71,.42,.95,.62,.24,.2,.47,.43,.69,.7,.17,.16,.41,.48,.74,.94,.33,.47,.68,.98,1.05,1.54,.37,.56,.72,1.1,1.06,1.63,.33,.52,.57,.93,.7,1.22,.26,.54,.32,.95,.2,1.25-.12,.3-.49,.5-1.09,.61-.29,.04-.75,.07-1.37,.09-.62,.02-1.28,.02-1.98,.01-.7-.01-1.37-.04-2.02-.08-.65-.04-1.15-.09-1.5-.15-.34-.04-.69-.12-1.03-.26-.35-.13-.66-.26-.93-.39-.11-.04-.45-.22-1.04-.53-.59-.32-1.34-.72-2.24-1.22-.9-.49-1.91-1.03-3.03-1.62l-3.38-1.85-9.07-4.88,4.23-7.92,15.56,8.37c.93,.5,1.7,.92,2.32,1.26,.62,.34,1.02,.56,1.19,.65h0Zm0,0"/></g><g><path class="cls-5" d="M34.58,263.25h-9.43l-.67,4.79h8.44c-.11,2-.75,4.15-1.15,6.22h-8.16l-.69,4.89h10.38c-.14,2.61-.98,5.4-1.5,8.1H11.43l4.48-31.89h20.13c-.13,2.54-.95,5.26-1.46,7.89Z"/><path class="cls-5" d="M62.13,260.22l-2.98,21.2c-.35,2.46-.16,5.03,.14,5.83-2.01,.29-5.18,.65-6.52,.65-2.29,0-3.4-.74-3.46-3.27-1.5,2.02-3.65,3.29-6.29,3.29-4.54,0-7.21-3.55-7.21-9.06,0-8.87,6.78-15.24,16.32-15.57l.42-2.99c.56-3.96,.44-6.31,.19-6.93,1.97-.47,5.07-1.09,6.39-1.09,2.93,0,3.94,1.21,3,7.93Zm-11.29,12.24v.02s.28-1.95,.28-1.95c-3.88,.02-5.36,3.28-5.36,6.86,0,2.05,.55,3.08,1.57,3.08,1.67,0,2.81-3.35,3.51-8.01Z"/><path class="cls-5" d="M74.74,271.22l-.17,.99-1.18,6.78-.42,2.42c-.42,2.45-.24,5.02,.09,5.84-1.98,.28-5.08,.65-6.4,.65-2.93,0-4.19-1.18-3.38-5.84l.53-3.07,1.18-6.78,.15-.91c.66-3.94,.49-6.3,.17-6.93,1.97-.47,5.07-1.09,6.39-1.09,2.93,0,4.19,1.25,3.03,7.94Zm-1.86-19.11c2.72,0,4.68,1.62,4.68,3.9,0,2.9-2.88,5.13-5.95,5.13-2.71,0-4.63-1.66-4.63-3.95,0-2.92,2.84-5.08,5.9-5.08h0Z"/><path class="cls-5" d="M91.09,280c1.57,0,3.44-.73,4.47-1.3,.11,1.95-.53,4.31-1.43,6.99-1.42,.95-4.2,2.26-7.7,2.26-3.92,0-8.66-1.84-7.62-9.18l.98-6.98h-3.21c.69-2.33,1.72-4.71,2.08-6.99l2.77-.56c.08-.61,.24-1.36,.57-2.14,1.49-3.5,10.3-3,10.3-3,0,0-.94,1.95-1.79,5.7h7.04c-.36,2.28-1.38,4.66-2.08,6.99h-6.12l-.57,4.38c-.39,3.02,1.14,3.83,2.3,3.83h0Z"/><path class="cls-5" d="M124.52,275.85l-1.6,11.4c-3.57,.42-6.97,.51-10.38,.2l1.62-11.54-7.52-20.56c3.73,0,7.06-.1,10.89-.58l3.45,12.98,6.25-12.41h10.47l-13.18,20.5Z"/><path class="cls-5" d="M131.81,278.2c.02-7.78,6.51-14.91,14.35-14.91,5.72,0,9.48,3.82,9.49,9.73-.02,7.79-6.51,14.91-14.35,14.91-5.71,0-9.48-3.81-9.49-9.73Zm14.28-3.85c0-2.48-.62-3.62-1.74-3.62-1.8,0-2.97,2.73-2.97,6.15,0,2.48,.62,3.6,1.73,3.6,1.8,0,2.98-2.72,2.98-6.13Z"/><path class="cls-5" d="M182.4,263.95c.04,.94-.13,3.83-.75,8.26l-1.29,9.21c-.35,2.46-.16,5.03,.14,5.83-2.01,.29-5.18,.65-6.52,.65-2.62,0-3.69-.97-3.42-4.49-1.73,2.95-4.54,4.51-7.42,4.51-4.22,0-6.56-3.36-5.52-9.28l1.13-6.43,.16-.92c.67-3.96,.5-6.29,.18-6.93,1.97-.47,5.07-1.09,6.39-1.09,2.93,0,4.2,1.25,3.02,7.94l-.18,.99-.96,5.19c-.27,1.47,.14,2.4,1.05,2.4,1.68,0,3.03-2.96,3.69-7.59,.56-4,.69-6.88,.61-7.91,3.39-.49,6.58-.63,9.7-.36h0Z"/><path class="cls-5" d="M204.99,263.36c-.1,3.46-1.17,7.29-3.01,11.25-3.57-2.2-6.51-.31-7.17,4.38-.56,4-.69,6.88-.61,7.91-3.39,.49-6.58,.63-9.7,.35-.05-.94,.13-3.83,.75-8.26l1.08-7.69c.56-3.96,.44-6.31,.19-6.93,1.97-.47,5.07-1.09,6.39-1.09,2.4,0,3.51,.81,3.32,4.79,2.21-3.09,5.52-4.72,8.77-4.72Z"/></g><g><path class="cls-5" d="M359.89,284.66l6,13.91-11.4,.65-2.93-12.2c-.71,0-1.43-.02-2.12-.08l-1.63,11.63c-3.57,.42-6.97,.51-10.38,.2l4.38-31.2c2.01-.53,6.4-1.24,11.06-1.24,8.81,0,13.88,2.59,13.88,8.17,0,4.37-2.54,8.3-6.86,10.15Zm-3.14-8.23c0-2.23-1.65-2.94-3.69-2.94-.86,0-1.67,.13-2.36,.28l-1,7.09c.51,.13,1.04,.2,1.57,.2,3.16,0,5.48-1.66,5.48-4.64Z"/><path class="cls-5" d="M368.09,289.5c.02-7.79,6.5-14.89,14.34-14.89,5.31,0,7.93,3.25,7.93,7.17,0,4.93-4.08,7.83-8.92,7.83-1.56,0-2.96-.37-4.1-.87,0,.07,0,.14,0,.21,0,1.79,2.02,3.06,4.9,3.06,2.63,0,5.03-1.03,6.14-1.81,.13,1.73-.33,3.74-.92,5.96-1.67,1.32-5.2,3.09-9.32,3.09-6.24,0-10.03-3.81-10.05-9.75Zm13.96-7.05c0-1.08-.47-1.59-1.37-1.59-1.78,0-3.09,1.95-3.61,4.42,.42,.1,.94,.19,1.45,.19,2.29,0,3.53-1.28,3.53-3.02Z"/><path class="cls-5" d="M391.83,289.97l1.16-6.6c.72-4.07,.6-6.77,.31-7.68,1.97-.47,5.07-1.09,6.39-1.09,2.93,0,4.11,1.74,2.87,8.76l-.95,5.37c-.26,1.47-.1,2.4,1.3,2.4,2.94,0,4.25-3.7,4.25-7.64,0-2.78-.64-5.68-1.77-7.46,1.3-.61,3.8-1.42,5.92-1.42,3.13,0,4.82,3,4.82,7.05,0,7.39-5.58,17.59-16.82,17.59-6.38,0-8.52-3.36-7.48-9.28Z"/><path class="cls-5" d="M429.07,282.55l-.17,.99-1.18,6.78-.42,2.42c-.42,2.45-.24,5.02,.09,5.84-1.98,.28-5.08,.65-6.4,.65-2.93,0-4.19-1.18-3.38-5.84l.53-3.07,1.18-6.78,.15-.91c.66-3.94,.49-6.3,.17-6.93,1.97-.47,5.07-1.09,6.39-1.09,2.93,0,4.19,1.25,3.03,7.94Zm-1.86-19.11c2.72,0,4.68,1.62,4.68,3.9,0,2.9-2.88,5.13-5.95,5.13-2.71,0-4.63-1.66-4.63-3.95,0-2.92,2.84-5.08,5.9-5.08h0Z"/><path class="cls-5" d="M430.82,289.5c.02-7.79,6.5-14.89,14.34-14.89,5.31,0,7.93,3.25,7.93,7.17,0,4.93-4.08,7.83-8.92,7.83-1.56,0-2.96-.37-4.1-.87,0,.07,0,.14,0,.21,0,1.79,2.02,3.06,4.9,3.06,2.63,0,5.03-1.03,6.14-1.81,.13,1.73-.33,3.74-.92,5.96-1.67,1.32-5.2,3.09-9.32,3.09-6.24,0-10.03-3.81-10.05-9.75Zm13.96-7.05c0-1.08-.47-1.59-1.37-1.59-1.78,0-3.09,1.95-3.61,4.42,.42,.1,.94,.19,1.45,.19,2.29,0,3.53-1.28,3.53-3.02Z"/><path class="cls-5" d="M486.85,274.61c2.8,0,4.31,3,4.31,7.05,0,7.39-5.07,17.59-15.95,17.59-4.68,0-7.08-1.81-7.62-5.11-1.66,3.34-4.61,5.11-7.64,5.11-4.15,0-6.47-3.36-5.43-9.28l1.13-6.43h0l.16-.92c.67-3.96,.5-6.29,.18-6.93,1.97-.47,5.07-1.09,6.39-1.09,2.93,0,4.2,1.25,3.02,7.94l-.18,.99h0s-.96,5.19-.96,5.19c-.27,1.47,.13,2.4,1.01,2.4,1.55,0,2.71-2.65,3.36-6.3v-.08s.02-.03,.02-.03l.24-1.35c.72-4.07,.6-6.77,.31-7.68,1.97-.47,5.07-1.09,6.39-1.09,2.93,0,4.11,1.74,2.87,8.76l-.95,5.37c-.26,1.47-.09,2.4,1.11,2.4,2.39,0,3.58-3.7,3.58-7.75,0-2.66-.45-5.56-1.27-7.35,1.3-.61,3.8-1.42,5.92-1.42h0Z"/></g><g><path class="cls-8" d="M252.55,251.99c-4.18,.5-8.38,.14-12.56,.21-1.76,.03-2.26-1.46-3-2.6-6.71-10.4-15.33-18.76-26.25-24.66-3.71-2-7.61-3.54-11.63-4.77-2.31-.71-4.25-.04-5.77,1.78-1.46,1.75-1.68,3.74-.61,5.76,5.9,11.03,7.54,23.01,7.59,35.27,.09,23.56,.02,47.12,.03,70.69,0,13.14,7.78,20.93,20.87,20.94,14.83,0,29.65-.04,44.48,.01,20.43,.06,35.78-8.79,46.26-26.29,.29-.48,.63-.92,.95-1.37,.18-.52,.33-1.06,.56-1.57,15.8-35.26-8.64-73.12-47.24-73.19-4.56,0-9.12-.13-13.68-.19Z"/><path class="cls-8" d="M265.69,357.6c-9.88-.04-19.76-.03-29.64-.02h-14.83c-14.71,0-23.85-9.17-23.86-23.91v-24.51c.02-15.39,.03-30.78-.03-46.17-.05-13.97-2.35-24.74-7.23-33.88-1.64-3.08-1.3-6.38,.95-9.07,2.34-2.81,5.51-3.77,8.94-2.72,4.55,1.39,8.53,3.03,12.17,5,10.98,5.93,20.18,14.57,27.34,25.67,.15,.23,.29,.47,.43,.72,.09,.15,.21,.36,.31,.51,1.31-.01,2.64,0,3.96,.03,2.79,.05,5.4,.1,8-.21,.13-.02,.26-.02,.4-.02l4.39,.08c3.08,.06,6.17,.11,9.25,.12,19.13,.03,36.52,9.28,46.51,24.73,10,15.48,11.3,35.17,3.46,52.66-.11,.25-.19,.5-.27,.76l-.19,.58c-.09,.25-.21,.49-.36,.7l-.36,.51c-.17,.23-.34,.46-.48,.7-11.03,18.41-27.38,27.75-48.61,27.75h-.22Zm44.55-32.09c.15-.46,.31-.91,.5-1.35,7.12-15.88,6.01-33-3.02-46.98-9.02-13.95-24.15-21.97-41.5-22-3.12,0-6.23-.06-9.35-.12l-4.18-.07c-2.93,.33-5.81,.28-8.6,.23-1.36-.02-2.7-.05-4.07-.03-3.09-.04-4.6-2.34-5.27-3.49l-.29-.48c-6.61-10.24-15.07-18.2-25.16-23.65-3.29-1.78-6.92-3.27-11.08-4.54-1.12-.34-1.81-.11-2.6,.83-.69,.83-.76,1.51-.27,2.44,5.36,10.03,7.89,21.68,7.94,36.67,.06,15.4,.05,30.8,.04,46.2v24.5c0,11.4,6.52,17.95,17.88,17.95h14.82c9.89,0,19.78-.02,29.66,0,19.2,.13,33.64-8.07,43.69-24.85,.23-.39,.5-.76,.76-1.13l.05-.08,.02-.07Z"/></g></svg>