<?xml version="1.0" encoding="UTF-8"?><svg id="_图层_1" xmlns="http://www.w3.org/2000/svg" xmlns:xlink="http://www.w3.org/1999/xlink" viewBox="0 0 500 500"><defs><style>.cls-1,.cls-2,.cls-3{fill:#f4cab6;}.cls-2{opacity:.33;}.cls-4{fill:#f5f5f5;}.cls-5{fill:#fff;}.cls-5,.cls-6{stroke:#e27251;stroke-linejoin:round;stroke-width:2.51px;}.cls-7{fill:#535354;}.cls-6{fill:#3b63ad;}.cls-3{opacity:.25;}.cls-8{fill:#ec7552;}.cls-9{clip-path:url(#clippath);}.cls-10{fill:none;}</style><clipPath id="clippath"><rect class="cls-10" x="70.65" y="136.38" width="108.36" height="108.06" transform="translate(-99.96 154.19) rotate(-47.6)"/></clipPath></defs><g><ellipse class="cls-2" cx="256.37" cy="266.86" rx="173.44" ry="136.79"/><ellipse class="cls-1" cx="256.37" cy="266.86" rx="137.59" ry="108.51"/><ellipse class="cls-3" cx="256.37" cy="266.86" rx="110.96" ry="87.51"/><ellipse class="cls-1" cx="256.37" cy="266.86" rx="82.1" ry="64.75"/></g><g><path class="cls-7" d="M36.08,318.27h-10.87l-.78,5.53h9.74c-.12,2.31-.87,4.78-1.33,7.17h-9.42l-.79,5.64h11.98c-.16,3.01-1.13,6.23-1.73,9.35H9.37l5.17-36.8h23.22c-.16,2.93-1.1,6.07-1.68,9.11Z"/><path class="cls-7" d="M67.87,314.78l-3.44,24.46c-.4,2.84-.18,5.81,.16,6.72-2.33,.33-5.98,.75-7.53,.75-2.64,0-3.92-.85-3.99-3.77-1.73,2.33-4.21,3.79-7.25,3.79-5.23,0-8.32-4.1-8.32-10.45,0-10.24,7.82-17.59,18.83-17.96l.49-3.45c.64-4.56,.51-7.27,.22-7.99,2.28-.54,5.85-1.25,7.37-1.25,3.38,0,4.55,1.4,3.46,9.15Zm-13.03,14.12v.03s.32-2.25,.32-2.25c-4.47,.03-6.18,3.78-6.18,7.91,0,2.36,.63,3.55,1.81,3.55,1.92,0,3.25-3.87,4.05-9.24Z"/><path class="cls-7" d="M82.42,327.46l-.2,1.15-1.37,7.82-.48,2.79c-.49,2.82-.28,5.8,.11,6.74-2.28,.32-5.86,.75-7.38,.75-3.38,0-4.83-1.37-3.9-6.74l.62-3.54,1.36-7.82,.18-1.05c.76-4.55,.57-7.27,.2-8,2.27-.54,5.85-1.25,7.37-1.25,3.38,0,4.84,1.44,3.5,9.16Zm3.25-17.54c0,3.35-3.33,5.92-6.87,5.92-3.13,0-5.34-1.92-5.34-4.56,0-3.37,3.28-5.86,6.81-5.86,3.14,0,5.4,1.87,5.4,4.5Z"/><path class="cls-7" d="M101.27,337.59c1.81,0,3.97-.84,5.16-1.5,.13,2.25-.61,4.98-1.65,8.06-1.64,1.1-4.84,2.61-8.89,2.61-4.52,0-9.99-2.12-8.79-10.59l1.13-8.06h-3.7c.8-2.69,1.98-5.43,2.4-8.06l3.19-.65c.09-.7,.28-1.57,.66-2.47,1.71-4.04,11.88-3.46,11.88-3.46,0,0-1.08,2.25-2.06,6.58h8.13c-.42,2.63-1.6,5.38-2.4,8.06h-7.06l-.66,5.06c-.45,3.48,1.31,4.42,2.66,4.42h0Z"/><path class="cls-7" d="M162.08,309.17l-1.07,36.28c-3.29,.62-7.01,.94-11.05,.94l1.57-23.05-10,22.55c-2.64,.46-5.18,.67-7.68,.61l-3.84-23.15-4.47,22.99c-3.23-.28-6.47-.45-9.71-.52l9.06-36.22c3.88-.25,7.76-.64,11.67-1.19l4.06,21.54,10.77-21.18c3.55,.28,7.12,.4,10.71,.39Z"/><path class="cls-7" d="M194.65,319.08c.05,1.08-.14,4.42-.86,9.53h0s0,0,0,0l-1.88,13.37c-1.43,10.15-7.98,15.29-17.08,15.29-6.82,0-10.88-2.86-10.88-7.15,0-3.18,2.26-5.2,4.54-6.42-2.12-1.52-3.01-4.43-2.29-8.52l1.15-6.56,.18-1.06c.78-4.56,.58-7.26,.21-7.99,2.28-.54,5.85-1.25,7.37-1.25,3.38,0,4.84,1.44,3.48,9.16l-.2,1.15h0l-.95,5.14c-.31,1.67,.16,2.73,1.21,2.73,1.94,0,3.38-3.06,4.1-7.86h0s0,0,0,0h0c.65-4.62,.79-7.94,.71-9.13,3.91-.57,7.59-.73,11.19-.41h0Zm-13.78,26.3l.72-5.13c-1.6,2.49-4.13,4.02-6.91,4.5-.1,.48-.16,1-.16,1.58,0,2.12,.88,3.28,2.54,3.28s3.39-1.25,3.81-4.24Z"/></g><g><path class="cls-7" d="M369.15,318.3h-10.87l-.78,5.53h9.74c-.12,2.31-.87,4.78-1.33,7.17h-9.42l-.79,5.64h11.98c-.16,3.01-1.13,6.23-1.73,9.35h-23.51l5.17-36.8h23.22c-.16,2.93-1.1,6.07-1.68,9.11Z"/><path class="cls-7" d="M371.63,336.06l1.34-7.61c.83-4.7,.69-7.82,.36-8.86,2.27-.54,5.85-1.25,7.37-1.25,3.38,0,4.74,2,3.32,10.11l-1.09,6.19c-.3,1.69-.11,2.77,1.5,2.77,3.39,0,4.91-4.27,4.91-8.81,0-3.2-.74-6.55-2.04-8.61,1.5-.71,4.39-1.64,6.83-1.64,3.62,0,5.56,3.46,5.56,8.14,0,8.53-6.44,20.29-19.4,20.29-7.36,0-9.83-3.88-8.63-10.7Z"/><path class="cls-7" d="M400.85,335.52c.02-8.99,7.5-17.18,16.55-17.18,6.13,0,9.15,3.75,9.15,8.28,0,5.69-4.7,9.04-10.29,9.04-1.8,0-3.42-.43-4.73-1.01,0,.08-.01,.16-.01,.24,0,2.06,2.33,3.53,5.65,3.53,3.03,0,5.81-1.19,7.08-2.08,.15,1.99-.38,4.31-1.06,6.88-1.93,1.52-6,3.56-10.75,3.56-7.2,0-11.57-4.39-11.59-11.24Zm16.11-8.14c0-1.25-.54-1.83-1.58-1.83-2.05,0-3.56,2.25-4.17,5.1,.49,.12,1.08,.22,1.67,.22,2.64,0,4.08-1.48,4.08-3.48Z"/><path class="cls-7" d="M456.43,329.04l-1.31,7.42-.5,2.82c-.49,2.79-.28,5.77,.11,6.71-2.28,.33-5.85,.77-7.37,.77-3.38,0-4.85-1.37-3.91-6.71l.63-3.59,1.06-5.99c.3-1.69-.16-2.76-1.21-2.76-1.93,0-3.5,3.41-4.25,8.76-.65,4.62-.79,7.94-.71,9.12-3.91,.57-7.59,.73-11.19,.41-.05-1.08,.14-4.42,.86-9.53l1.25-8.88c.64-4.56,.51-7.27,.22-7.99,2.28-.54,5.85-1.25,7.37-1.25,2.75,0,4.03,.92,3.83,5.41,1.94-3.5,5.28-5.41,8.7-5.41,4.86,0,7.62,3.88,6.42,10.7Z"/><path class="cls-7" d="M475.55,337.63c1.81,0,3.97-.84,5.16-1.5,.13,2.25-.61,4.98-1.65,8.06-1.64,1.1-4.84,2.61-8.89,2.61-4.52,0-9.99-2.12-8.79-10.59l1.13-8.06h-3.7c.8-2.69,1.98-5.43,2.4-8.06l3.19-.65c.09-.7,.28-1.57,.66-2.47,1.71-4.04,11.88-3.46,11.88-3.46,0,0-1.08,2.25-2.06,6.58h8.13c-.42,2.63-1.6,5.38-2.4,8.06h-7.06l-.66,5.06c-.45,3.48,1.31,4.42,2.66,4.42h0Z"/></g><path class="cls-8" d="M122.74,212.42c16.96-7.89,30.45,35.96,35.71,56.27v36.76c-.18-.03-.36-.06-.54-.09-17.44-3.15-27.15-20.26-45.3-54.55-12.5-23.64-6.87-30.48,10.13-38.39Z"/><path class="cls-6" d="M147.5,234.67s-11.82,17.31-34.89,16.14c0,0-.84,6.05,3.51,5.71,4.35-.34,26.43-2.47,33.75-16.62,0,0,2.02-5.87-2.37-5.23Z"/><path class="cls-5" d="M151.52,243.05s-11.82,17.31-34.89,16.14c0,0-.84,6.05,3.51,5.71,4.35-.34,26.43-2.47,33.75-16.62,0,0,2.02-5.87-2.37-5.23Z"/><g><path class="cls-8" d="M266.51,220.03c6.21,.74,12.44,.21,18.66,.31,2.61,.04,3.36-2.17,4.45-3.86,9.97-15.45,22.77-27.87,38.99-36.63,5.51-2.98,11.3-5.26,17.27-7.09,3.43-1.05,6.32-.06,8.57,2.64,2.17,2.6,2.5,5.56,.9,8.55-8.76,16.39-11.2,34.17-11.27,52.4-.13,35-.03,70-.04,105,0,19.52-11.56,31.09-31,31.1-22.02,0-44.04-.05-66.06,.02-30.34,.09-53.14-13.06-68.71-39.06-.42-.71-.94-1.36-1.41-2.04-.27-.78-.49-1.58-.83-2.33-23.47-52.38,12.84-108.62,70.17-108.72,6.77-.01,13.55-.19,20.32-.29Z"/><g><path class="cls-4" d="M248.61,189.12c6.21,.74,12.44,.21,18.66,.31,2.61,.04,3.36-2.17,4.45-3.86,9.97-15.45,22.77-27.87,38.99-36.63,5.51-2.98,11.3-5.26,17.27-7.09,3.43-1.05,6.32-.06,8.57,2.64,2.17,2.6,2.5,5.56,.9,8.55-8.76,16.39-11.2,34.17-11.27,52.4-.13,35-.03,70-.04,105,0,19.52-11.56,31.09-31,31.1-22.02,0-44.04-.05-66.06,.02-30.34,.09-53.14-13.06-68.71-39.06-.42-.71-.94-1.36-1.41-2.04-.27-.78-.49-1.58-.83-2.33-23.47-52.38,12.84-108.62,70.17-108.72,6.77-.01,13.55-.19,20.32-.29Z"/><path class="cls-8" d="M228.75,345.99c-31.53,0-55.81-13.86-72.18-41.21-.22-.36-.47-.71-.73-1.05l-.53-.73c-.23-.33-.41-.69-.55-1.07l-.28-.83c-.13-.39-.24-.78-.41-1.16-11.65-25.99-9.73-55.23,5.13-78.22,14.84-22.96,40.66-36.69,69.08-36.74,4.58,0,9.16-.09,13.75-.18l6.52-.11c.17,0,.39,0,.59,.03,3.85,.46,7.74,.39,11.88,.32,1.97-.03,3.95-.07,5.88-.05,.15-.23,.33-.53,.46-.76,.21-.36,.42-.72,.64-1.06,10.64-16.49,24.3-29.32,40.61-38.13,5.41-2.93,11.33-5.36,18.08-7.42,5.1-1.56,9.81-.12,13.27,4.04,3.34,4,3.85,8.91,1.41,13.48-7.26,13.57-10.67,29.56-10.74,50.32-.09,22.86-.07,45.72-.05,68.58v36.41c0,21.91-13.58,35.53-35.43,35.54h-23.6c-14.15-.02-28.31-.03-42.45,.01h-.35Zm-65.8-47.57l.06,.08c.41,.56,.81,1.13,1.17,1.72,14.87,24.82,35.99,36.9,64.56,36.9h.33c14.17-.04,28.32-.03,42.49-.02h23.59c16.88,0,26.56-9.72,26.56-26.66v-36.39c-.02-22.87-.04-45.75,.04-68.62,.08-22.26,3.83-39.57,11.8-54.47,.73-1.38,.62-2.39-.4-3.62-1.17-1.4-2.19-1.75-3.86-1.24-6.18,1.9-11.57,4.1-16.46,6.75-14.98,8.09-27.55,19.91-37.37,35.13l-.42,.71c-.98,1.69-3.01,5.18-7.68,5.18h-.15c-2.03-.04-4.02,0-6.04,.04-4.14,.08-8.43,.15-12.77-.35l-6.2,.11c-4.63,.09-9.26,.17-13.89,.18-25.78,.05-48.25,11.96-61.64,32.69-13.42,20.76-15.06,46.2-4.49,69.78,.3,.66,.53,1.35,.75,2.04l.02,.07Z"/></g><rect class="cls-7" x="183.33" y="247.81" width="40.58" height="4.47" rx=".5" ry=".5"/><rect class="cls-7" x="243.61" y="247.81" width="40.58" height="4.47" rx=".5" ry=".5"/><rect class="cls-7" x="183.33" y="248.19" width="10.27" height="10.27" rx=".5" ry=".5"/><rect class="cls-7" x="243.61" y="248.19" width="10.27" height="10.27" rx=".5" ry=".5"/></g><g class="cls-9"><path class="cls-7" d="M141.9,249.08c.39-.64,.6-1.41,.57-2.22l-2.19-46.47c3.28-1.61,6.36-3.72,9.13-6.33,.23-.16,.44-.35,.64-.56l.16-.21c.41-.41,.8-.82,1.2-1.25,13.92-15.25,12.85-38.89-2.4-52.81-3.93-3.59-8.42-6.18-13.16-7.79-.65-.45-1.44-.7-2.28-.69-.48-.13-.96-.25-1.44-.36l.03,.64c-1.51,.6-2.55,2.11-2.47,3.83l1.06,25-14.37,.71-1.06-25.06c-.08-1.81-1.37-3.27-3.05-3.66l-.04-.56c-.5,.16-.99,.34-1.49,.52-.57,.09-1.09,.31-1.55,.62-4.79,2.03-9.24,5.1-12.98,9.2-13.92,15.25-12.85,38.89,2.4,52.81,3.49,3.19,7.42,5.59,11.58,7.21l2,42.47c-.1,1.28-.04,2.56,.18,3.83v.28c.04,.62,.21,1.2,.49,1.7,.78,2.44,2.18,4.71,4.21,6.56,6.17,5.63,15.74,5.2,21.37-.97,1.73-1.9,2.89-4.12,3.48-6.44h0Zm-19.61,1.68c-1.02-.93-1.72-2.08-2.08-3.32l-.17-3.55c.04-.19,.08-.37,.13-.56l-.53-11.09s-.1,.06-.15,.08l-1.35-28.55s.03,0,.04,0l-.37-8.04c-5.07-1.04-9.93-3.41-14.03-7.15-12.1-11.04-12.95-29.81-1.9-41.9,1.76-1.92,3.71-3.56,5.8-4.92l.93,21.89c0,.15,.02,.3,.05,.44-.04,.25-.05,.5-.04,.76,.1,2.17,1.94,3.85,4.11,3.75l22.24-1.1c2.17-.1,3.85-1.94,3.75-4.11,0-.14-.02-.27-.04-.41,.03-.23,.04-.47,.03-.71l-.92-21.76c2.12,1.14,4.14,2.55,5.99,4.25,12.1,11.04,12.95,29.8,1.9,41.9-.21,.22-.41,.44-.62,.66-.22,.16-.42,.34-.61,.54l-.19,.25c-2.29,2.19-4.85,3.94-7.57,5.25l.14,.58c-.26-.04-.52-.06-.79-.04-2.17,.1-3.85,1.94-3.75,4.11l1.25,26.52h.05s.18,4.93,.18,4.93l.1,2.23s-.01,0-.02-.01l.43,11.49c.06,.21,.12,.43,.16,.64l.11,2.29c-.16,1.5-.78,2.95-1.88,4.15-2.74,3-7.39,3.21-10.38,.47h0Zm0,0"/></g><path class="cls-8" d="M115.7,215.6s6.97-3.29,9.48-.29c5.14,6.14,.97,32.11-5.22,34.58-6.19,2.48-25.85-24.71-4.27-34.29Z"/><path class="cls-8" d="M132.76,213.49s-7.5,6.73-7.92,12.76c-.42,6.04,16.39-3.11,16.39-3.11,0,0,.54-11.18-8.47-9.65Z"/></svg>