<?xml version="1.0" encoding="UTF-8"?><svg id="_图层_1" xmlns="http://www.w3.org/2000/svg" viewBox="0 0 500 500"><defs><style>.cls-1{fill:#f5f5f5;}.cls-2,.cls-3,.cls-4{fill:#dfeed9;}.cls-3{opacity:.25;}.cls-5{fill:#b7b1af;}.cls-6{fill:#535354;}.cls-7{fill:#948e8b;}.cls-8{fill:#f1c71f;}.cls-9{fill:#ec7552;}.cls-4{opacity:.33;}</style></defs><g><ellipse class="cls-4" cx="278.34" cy="256.28" rx="203.35" ry="112.72"/><ellipse class="cls-2" cx="278.34" cy="256.28" rx="161.31" ry="89.42"/><ellipse class="cls-3" cx="278.34" cy="256.28" rx="130.09" ry="72.11"/><ellipse class="cls-2" cx="278.34" cy="256.28" rx="96.26" ry="53.36"/></g><g><path class="cls-6" d="M33.46,304.13c-1.89,.21-3.62,.26-5.3,.1l-1.12-1.62c-1.47,1.17-3.5,2.09-6.02,2.09-5.61,0-9.96-4.3-9.96-11.38,0-8.96,7.06-16.15,15.63-16.15,3.46,0,6.15,1.18,7.34,2.35-.12,1.42-.98,4.81-2.45,7.29-.6-1.08-2.34-2.5-4.98-2.5-4.23,0-6.96,3.28-6.96,7.5,0,3.59,2.05,5.63,5.55,5.63,.41,0,.8-.03,1.17-.09l.46-3.25h-3.32c.44-1.59,1.11-3.22,1.33-4.77h10.71l-2.08,14.79Z"/><path class="cls-6" d="M46.14,290.87l-.14,.82-.98,5.61-.35,2c-.35,2.02-.2,4.16,.08,4.83-1.63,.23-4.2,.54-5.29,.54-2.42,0-3.46-.98-2.79-4.83l.44-2.54,.98-5.61,.13-.75c.55-3.26,.41-5.21,.14-5.73,1.63-.39,4.2-.9,5.28-.9,2.42,0,3.47,1.03,2.51,6.57Zm-1.54-15.8c2.25,0,3.87,1.34,3.87,3.22,0,2.4-2.39,4.24-4.92,4.24-2.24,0-3.83-1.38-3.83-3.27,0-2.41,2.35-4.2,4.88-4.2h0Z"/><path class="cls-6" d="M48.31,297.01l.96-5.46c.59-3.37,.49-5.6,.25-6.35,1.63-.39,4.2-.9,5.28-.9,2.43,0,3.4,1.44,2.38,7.25l-.78,4.44c-.21,1.21-.08,1.98,1.07,1.98,2.43,0,3.52-3.06,3.52-6.32,0-2.3-.53-4.7-1.47-6.17,1.07-.51,3.14-1.18,4.89-1.18,2.59,0,3.98,2.48,3.98,5.83,0,6.11-4.62,14.55-13.91,14.55-5.28,0-7.05-2.78-6.19-7.67Z"/><path class="cls-6" d="M69.27,296.62c.01-6.45,5.38-12.32,11.86-12.32,4.4,0,6.56,2.69,6.56,5.93,0,4.08-3.37,6.48-7.38,6.48-1.29,0-2.45-.31-3.39-.72,0,.06,0,.11,0,.17,0,1.48,1.67,2.53,4.05,2.53,2.17,0,4.16-.85,5.08-1.49,.11,1.43-.27,3.09-.76,4.93-1.38,1.09-4.3,2.55-7.71,2.55-5.16,0-8.3-3.15-8.31-8.06Zm11.55-5.83c0-.9-.39-1.31-1.13-1.31-1.47,0-2.55,1.61-2.99,3.65,.35,.08,.77,.16,1.2,.16,1.9,0,2.92-1.06,2.92-2.5Z"/><path class="cls-6" d="M113.44,292.62l4.96,11.51-9.43,.54-2.42-10.09c-.58,0-1.18-.02-1.75-.07l-1.35,9.62c-2.95,.35-5.77,.42-8.59,.17l3.63-25.8c1.66-.44,5.29-1.02,9.15-1.02,7.29,0,11.48,2.14,11.48,6.76,0,3.62-2.1,6.86-5.67,8.39Zm-2.6-6.81c0-1.85-1.37-2.43-3.05-2.43-.71,0-1.38,.11-1.96,.23l-.82,5.86c.42,.1,.86,.17,1.3,.17,2.62,0,4.54-1.38,4.54-3.83Z"/><path class="cls-6" d="M120.22,296.62c.01-6.45,5.38-12.32,11.86-12.32,4.4,0,6.56,2.69,6.56,5.93,0,4.08-3.37,6.48-7.38,6.48-1.29,0-2.45-.31-3.39-.72,0,.06,0,.11,0,.17,0,1.48,1.67,2.53,4.05,2.53,2.17,0,4.16-.85,5.08-1.49,.11,1.43-.27,3.09-.76,4.93-1.38,1.09-4.3,2.55-7.71,2.55-5.16,0-8.3-3.15-8.31-8.06Zm11.55-5.83c0-.9-.39-1.31-1.13-1.31-1.47,0-2.55,1.61-2.99,3.65,.35,.08,.77,.16,1.2,.16,1.9,0,2.92-1.06,2.92-2.5Z"/><path class="cls-6" d="M139.85,297.01l.96-5.46c.59-3.37,.49-5.6,.25-6.35,1.63-.39,4.2-.9,5.28-.9,2.43,0,3.4,1.44,2.38,7.25l-.78,4.44c-.21,1.21-.08,1.98,1.07,1.98,2.43,0,3.52-3.06,3.52-6.32,0-2.3-.53-4.7-1.47-6.17,1.07-.51,3.14-1.18,4.89-1.18,2.59,0,3.98,2.48,3.98,5.83,0,6.11-4.62,14.55-13.91,14.55-5.28,0-7.05-2.78-6.19-7.67Z"/><path class="cls-6" d="M170.66,290.87l-.14,.82-.98,5.61-.35,2c-.35,2.02-.2,4.16,.08,4.83-1.63,.23-4.2,.54-5.29,.54-2.42,0-3.46-.98-2.79-4.83l.44-2.54,.98-5.61,.13-.75c.55-3.26,.41-5.21,.14-5.73,1.63-.39,4.2-.9,5.28-.9,2.42,0,3.47,1.03,2.51,6.57Zm-1.54-15.8c2.25,0,3.87,1.34,3.87,3.22,0,2.4-2.39,4.24-4.92,4.24-2.24,0-3.83-1.38-3.83-3.27,0-2.41,2.35-4.2,4.88-4.2h0Z"/><path class="cls-6" d="M172.11,296.62c.01-6.45,5.38-12.32,11.86-12.32,4.4,0,6.56,2.69,6.56,5.93,0,4.08-3.37,6.48-7.38,6.48-1.29,0-2.45-.31-3.39-.72,0,.06,0,.11,0,.17,0,1.48,1.67,2.53,4.05,2.53,2.17,0,4.16-.85,5.08-1.49,.11,1.43-.27,3.09-.76,4.93-1.38,1.09-4.3,2.55-7.71,2.55-5.16,0-8.3-3.15-8.31-8.06Zm11.55-5.83c0-.9-.39-1.31-1.13-1.31-1.47,0-2.55,1.61-2.99,3.65,.35,.08,.77,.16,1.2,.16,1.9,0,2.92-1.06,2.92-2.5Z"/><path class="cls-6" d="M218.46,284.3c2.32,0,3.57,2.48,3.57,5.83,0,6.11-4.19,14.55-13.2,14.55-3.87,0-5.86-1.5-6.3-4.23-1.38,2.76-3.82,4.23-6.32,4.23-3.43,0-5.35-2.78-4.49-7.67l.94-5.32h0l.13-.76c.56-3.27,.42-5.21,.15-5.73,1.63-.39,4.2-.9,5.28-.9,2.42,0,3.47,1.03,2.5,6.57l-.15,.82h0s-.79,4.3-.79,4.3c-.22,1.22,.1,1.98,.83,1.98,1.28,0,2.24-2.2,2.78-5.21v-.07s.02-.02,.02-.02l.2-1.12c.59-3.37,.5-5.6,.25-6.35,1.63-.39,4.2-.9,5.28-.9,2.42,0,3.4,1.44,2.38,7.25l-.78,4.44c-.21,1.21-.07,1.98,.91,1.98,1.98,0,2.96-3.06,2.96-6.41,0-2.2-.38-4.6-1.05-6.08,1.07-.51,3.15-1.18,4.89-1.18h0Z"/></g><g><path class="cls-9" d="M353.42,211.73c4.45,.53,8.92,.15,13.38,.22,1.87,.03,2.41-1.56,3.19-2.77,7.15-11.08,16.33-19.98,27.95-26.27,3.95-2.13,8.1-3.77,12.39-5.08,2.46-.75,4.53-.04,6.14,1.89,1.55,1.87,1.79,3.99,.65,6.13-6.28,11.75-8.03,24.5-8.08,37.57-.09,25.09-.02,50.19-.03,75.28,0,14-8.29,22.29-22.23,22.3-15.79,0-31.58-.04-47.37,.01-21.75,.07-38.1-9.36-49.27-28-.3-.51-.67-.98-1.01-1.46-.2-.56-.35-1.13-.59-1.67-16.83-37.55,9.2-77.88,50.31-77.95,4.86,0,9.71-.14,14.57-.21Z"/><g><path class="cls-1" d="M340.59,189.57c4.45,.53,8.92,.15,13.38,.22,1.87,.03,2.41-1.56,3.19-2.77,7.15-11.08,16.33-19.98,27.95-26.27,3.95-2.13,8.1-3.77,12.39-5.08,2.46-.75,4.53-.04,6.14,1.89,1.55,1.87,1.79,3.99,.65,6.13-6.28,11.75-8.03,24.5-8.08,37.57-.09,25.09-.02,50.19-.03,75.28,0,14-8.29,22.29-22.23,22.3-15.79,0-31.58-.04-47.37,.01-21.75,.07-38.1-9.36-49.27-28-.3-.51-.67-.98-1.01-1.46-.2-.56-.35-1.13-.59-1.67-16.83-37.55,9.2-77.88,50.31-77.95,4.86,0,9.71-.14,14.57-.21Z"/><path class="cls-9" d="M326.34,302.05c-22.61,0-40.02-9.94-51.76-29.55-.16-.26-.34-.51-.52-.75l-.38-.52c-.16-.24-.3-.5-.39-.77l-.2-.6c-.09-.28-.17-.56-.29-.83-8.35-18.63-6.98-39.6,3.68-56.08,10.64-16.46,29.15-26.31,49.53-26.34,3.29,0,6.57-.07,9.86-.13l4.68-.08c.12,0,.28,0,.42,.02,2.76,.33,5.55,.28,8.52,.23,1.41-.02,2.83-.05,4.22-.03,.11-.16,.23-.38,.33-.54,.15-.26,.3-.52,.46-.76,7.63-11.82,17.42-21.02,29.12-27.34,3.88-2.1,8.12-3.84,12.97-5.32,3.66-1.12,7.03-.09,9.51,2.9,2.39,2.86,2.76,6.39,1.01,9.66-5.2,9.73-7.65,21.2-7.7,36.08-.06,16.39-.05,32.78-.04,49.17v26.1c0,15.71-9.74,25.48-25.4,25.48h-16.92c-10.15-.01-20.3-.02-30.44,.01h-.25Zm-47.18-34.11l.04,.06c.29,.4,.58,.81,.84,1.23,10.66,17.8,25.8,26.45,46.29,26.45h.23c10.16-.03,20.3-.02,30.47-.01h16.91c12.1,0,19.04-6.97,19.05-19.12v-26.09c-.02-16.4-.03-32.8,.03-49.2,.06-15.96,2.75-28.37,8.46-39.05,.53-.99,.45-1.71-.29-2.59-.84-1-1.57-1.25-2.77-.89-4.43,1.36-8.3,2.94-11.8,4.84-10.74,5.8-19.75,14.28-26.8,25.19l-.3,.51c-.7,1.21-2.16,3.71-5.51,3.71h-.1c-1.45-.03-2.89,0-4.33,.03-2.97,.05-6.04,.11-9.16-.25l-4.45,.08c-3.32,.06-6.64,.12-9.96,.13-18.48,.03-34.59,8.57-44.2,23.44-9.62,14.89-10.8,33.12-3.22,50.03,.21,.48,.38,.97,.54,1.46l.02,.05Z"/></g></g><path class="cls-7" d="M236.61,222.73h-34.68c-3.6,0-6.54,2.93-6.54,6.54v20.94c0,3.6,2.93,6.54,6.54,6.54h2l.8,9.47,8.27-9.47h23.61c3.6,0,6.54-2.93,6.54-6.54v-20.94c0-3.6-2.93-6.54-6.54-6.54h0Zm-29.34,19.61c-1.73,0-3.2-1.47-3.2-3.2s1.47-3.2,3.2-3.2,3.2,1.47,3.2,3.2c.13,1.73-1.33,3.2-3.2,3.2h0Zm12,0c-1.73,0-3.2-1.47-3.2-3.2s1.47-3.2,3.2-3.2,3.2,1.47,3.2,3.2-1.47,3.2-3.2,3.2h0Zm11.87,0c-1.73,0-3.2-1.47-3.2-3.2s1.47-3.2,3.2-3.2,3.2,1.47,3.2,3.2c.13,1.73-1.33,3.2-3.2,3.2h0Zm0,0"/><path class="cls-5" d="M302.98,267.82h-51.18c-5.31,0-9.64,4.33-9.64,9.64v30.9c0,5.31,4.33,9.64,9.64,9.64h2.95l1.18,13.98,12.2-13.98h34.84c5.31,0,9.64-4.33,9.64-9.64v-30.9c0-5.31-4.33-9.64-9.64-9.64h0Zm-43.3,28.93c-2.56,0-4.72-2.17-4.72-4.72s2.17-4.72,4.72-4.72,4.72,2.17,4.72,4.72c.2,2.56-1.97,4.72-4.72,4.72h0Zm17.72,0c-2.56,0-4.72-2.17-4.72-4.72s2.17-4.72,4.72-4.72,4.72,2.17,4.72,4.72-2.17,4.72-4.72,4.72h0Zm17.52,0c-2.56,0-4.72-2.17-4.72-4.72s2.17-4.72,4.72-4.72,4.72,2.17,4.72,4.72c.2,2.56-1.97,4.72-4.72,4.72h0Zm0,0"/><path class="cls-7" d="M377.58,306.16h-41.19c-4.28,0-7.76,3.49-7.76,7.76v24.87c0,4.28,3.49,7.76,7.76,7.76h2.38l.95,11.25,9.82-11.25h28.04c4.28,0,7.76-3.49,7.76-7.76v-24.87c0-4.28-3.49-7.76-7.76-7.76h0Zm-34.86,23.29c-2.06,0-3.8-1.74-3.8-3.8s1.74-3.8,3.8-3.8,3.8,1.74,3.8,3.8c.16,2.06-1.58,3.8-3.8,3.8h0Zm14.26,0c-2.06,0-3.8-1.74-3.8-3.8s1.74-3.8,3.8-3.8,3.8,1.74,3.8,3.8-1.74,3.8-3.8,3.8h0Zm14.1,0c-2.06,0-3.8-1.74-3.8-3.8s1.74-3.8,3.8-3.8,3.8,1.74,3.8,3.8c.16,2.06-1.58,3.8-3.8,3.8h0Zm0,0"/><path class="cls-8" d="M307.01,250.03l-10.03,5.27c-.83,.44-1.83,.36-2.59-.19-.76-.55-1.13-1.48-.98-2.4l1.92-11.17-8.11-7.91c-.67-.65-.91-1.63-.62-2.52,.29-.89,1.06-1.54,1.98-1.67l11.21-1.63,5.01-10.16c.41-.84,1.27-1.37,2.2-1.37s1.79,.53,2.2,1.37l5.01,10.16,11.21,1.63c.92,.13,1.69,.78,1.98,1.67,.29,.89,.05,1.86-.62,2.52l-8.11,7.91,1.92,11.17c.16,.92-.22,1.85-.98,2.4-.76,.55-1.76,.62-2.59,.19l-10.03-5.27Zm0,0"/><path class="cls-8" d="M360.47,250.03l-10.03,5.27c-.83,.44-1.83,.36-2.59-.19-.76-.55-1.13-1.48-.98-2.4l1.92-11.17-8.11-7.91c-.67-.65-.91-1.63-.62-2.52,.29-.89,1.06-1.54,1.98-1.67l11.21-1.63,5.01-10.16c.41-.84,1.27-1.37,2.2-1.37s1.79,.53,2.2,1.37l5.01,10.16,11.21,1.63c.92,.13,1.69,.78,1.98,1.67,.29,.89,.05,1.86-.62,2.52l-8.11,7.91,1.92,11.17c.16,.92-.22,1.85-.98,2.4-.76,.55-1.76,.62-2.59,.19l-10.03-5.27Zm0,0"/></svg>