<?xml version="1.0" encoding="UTF-8"?><svg id="_图层_1" xmlns="http://www.w3.org/2000/svg" viewBox="0 0 500 500"><defs><style>.cls-1{fill:#f5f5f5;}.cls-2{fill:#b7b1af;}.cls-3{fill:#535354;}.cls-4{fill:#948e8b;}.cls-5{opacity:.25;}.cls-5,.cls-6,.cls-7{fill:#ece8e8;}.cls-8{fill:#ec7552;}.cls-6{opacity:.33;}.cls-9{fill:#545454;}</style></defs><g><ellipse class="cls-6" cx="244.98" cy="252.51" rx="195.72" ry="108.49"/><ellipse class="cls-7" cx="244.98" cy="252.51" rx="155.26" ry="86.07"/><ellipse class="cls-5" cx="244.98" cy="252.51" rx="125.21" ry="69.41"/><ellipse class="cls-7" cx="244.98" cy="252.51" rx="92.65" ry="51.36"/></g><g><path class="cls-3" d="M38.27,273.18l-.74,25.03c-2.27,.43-4.84,.65-7.62,.65l1.08-15.9-6.9,15.56c-1.82,.32-3.57,.46-5.3,.42l-2.65-15.97-3.08,15.86c-2.23-.19-4.46-.31-6.7-.36l6.25-24.99c2.67-.17,5.36-.44,8.05-.82l2.8,14.86,7.43-14.61c2.45,.19,4.91,.28,7.39,.27Z"/><path class="cls-3" d="M60.75,280.02c.04,.75-.1,3.05-.6,6.58h0l-1.3,9.22c-.98,7-5.51,10.55-11.78,10.55-4.7,0-7.5-1.97-7.5-4.93,0-2.2,1.56-3.58,3.13-4.43-1.46-1.05-2.08-3.06-1.58-5.88l.79-4.53,.12-.73c.54-3.15,.4-5.01,.14-5.51,1.57-.37,4.04-.87,5.09-.87,2.33,0,3.34,.99,2.4,6.32l-.14,.79h0l-.65,3.54c-.21,1.15,.11,1.88,.83,1.88,1.34,0,2.33-2.11,2.83-5.43h0s0,0,0,0h0c.45-3.19,.54-5.48,.49-6.3,2.7-.39,5.24-.5,7.72-.28h0Zm-9.51,18.15l.5-3.54c-1.1,1.72-2.85,2.78-4.77,3.11-.07,.33-.11,.69-.11,1.09,0,1.47,.61,2.27,1.75,2.27s2.34-.87,2.63-2.92Z"/><path class="cls-3" d="M86.27,287.49l4.78,11.08-9.08,.52-2.33-9.71c-.56,0-1.14-.02-1.69-.07l-1.3,9.26c-2.84,.33-5.55,.4-8.26,.16l3.49-24.83c1.6-.42,5.09-.99,8.8-.99,7.01,0,11.04,2.06,11.04,6.51,0,3.48-2.02,6.6-5.46,8.08Zm-2.5-6.55c0-1.78-1.32-2.34-2.94-2.34-.68,0-1.33,.1-1.88,.22l-.79,5.64c.41,.1,.83,.16,1.25,.16,2.52,0,4.37-1.32,4.37-3.69Z"/><path class="cls-3" d="M92.79,291.34c.01-6.2,5.18-11.86,11.42-11.86,4.23,0,6.31,2.58,6.31,5.71,0,3.93-3.25,6.23-7.1,6.23-1.24,0-2.36-.3-3.26-.7,0,.06,0,.11,0,.17,0,1.42,1.61,2.43,3.9,2.43,2.09,0,4.01-.82,4.89-1.44,.1,1.38-.26,2.98-.73,4.74-1.33,1.05-4.14,2.46-7.42,2.46-4.97,0-7.98-3.03-8-7.76Zm11.12-5.61c0-.86-.37-1.26-1.09-1.26-1.42,0-2.46,1.55-2.88,3.52,.34,.08,.74,.15,1.15,.15,1.83,0,2.81-1.02,2.81-2.4Z"/><path class="cls-3" d="M111.69,291.71l.93-5.25c.57-3.24,.48-5.39,.24-6.11,1.57-.37,4.04-.87,5.08-.87,2.33,0,3.27,1.38,2.29,6.97l-.75,4.27c-.21,1.17-.08,1.91,1.03,1.91,2.34,0,3.39-2.95,3.39-6.08,0-2.21-.51-4.52-1.41-5.94,1.03-.49,3.03-1.13,4.71-1.13,2.5,0,3.83,2.39,3.83,5.61,0,5.88-4.44,14-13.39,14-5.08,0-6.79-2.68-5.96-7.38Z"/><path class="cls-3" d="M141.34,285.8l-.14,.79-.94,5.39-.33,1.93c-.34,1.95-.19,4,.08,4.65-1.57,.22-4.05,.52-5.09,.52-2.33,0-3.33-.94-2.69-4.65l.43-2.44,.94-5.39,.12-.73c.53-3.14,.39-5.01,.14-5.52,1.57-.37,4.04-.87,5.08-.87,2.33,0,3.34,1,2.41,6.32Zm-1.48-15.21c2.16,0,3.72,1.29,3.72,3.1,0,2.31-2.3,4.08-4.74,4.08-2.16,0-3.68-1.32-3.68-3.14,0-2.32,2.26-4.04,4.7-4.04h0Z"/><path class="cls-3" d="M142.74,291.34c.01-6.2,5.18-11.86,11.42-11.86,4.23,0,6.31,2.58,6.31,5.71,0,3.93-3.25,6.23-7.1,6.23-1.24,0-2.36-.3-3.26-.7,0,.06,0,.11,0,.17,0,1.42,1.61,2.43,3.9,2.43,2.09,0,4.01-.82,4.89-1.44,.1,1.38-.26,2.98-.73,4.74-1.33,1.05-4.14,2.46-7.42,2.46-4.97,0-7.98-3.03-8-7.76Zm11.12-5.61c0-.86-.37-1.26-1.09-1.26-1.42,0-2.46,1.55-2.88,3.52,.34,.08,.74,.15,1.15,.15,1.83,0,2.81-1.02,2.81-2.4Z"/><path class="cls-3" d="M187.34,279.48c2.23,0,3.43,2.39,3.43,5.61,0,5.88-4.04,14-12.7,14-3.73,0-5.64-1.44-6.06-4.07-1.32,2.66-3.67,4.07-6.08,4.07-3.3,0-5.15-2.68-4.32-7.38l.9-5.12h0l.12-.73c.54-3.15,.4-5.01,.14-5.51,1.57-.37,4.04-.87,5.09-.87,2.33,0,3.34,.99,2.4,6.32l-.14,.79h0l-.76,4.13c-.22,1.17,.1,1.91,.8,1.91,1.23,0,2.16-2.11,2.67-5.01v-.06s.02-.02,.02-.02l.19-1.07c.57-3.24,.48-5.39,.25-6.11,1.57-.37,4.04-.87,5.09-.87,2.33,0,3.27,1.38,2.29,6.97l-.75,4.27c-.21,1.17-.07,1.91,.88,1.91,1.91,0,2.85-2.95,2.85-6.17,0-2.12-.36-4.43-1.01-5.85,1.03-.49,3.03-1.13,4.71-1.13h0Z"/></g><g><path class="cls-8" d="M317.25,209.63c4.29,.51,8.59,.15,12.88,.21,1.8,.03,2.32-1.5,3.07-2.66,6.88-10.67,15.71-19.23,26.9-25.28,3.8-2.05,7.8-3.63,11.92-4.89,2.37-.72,4.36-.04,5.91,1.82,1.5,1.8,1.73,3.84,.62,5.9-6.04,11.31-7.73,23.58-7.78,36.16-.09,24.15-.02,48.31-.03,72.46,0,13.47-7.98,21.46-21.4,21.46-15.2,0-30.39-.04-45.59,.01-20.94,.07-36.67-9.01-47.42-26.95-.29-.49-.65-.94-.98-1.41-.19-.54-.34-1.09-.57-1.61-16.2-36.15,8.86-74.96,48.43-75.03,4.67,0,9.35-.13,14.02-.2Z"/><g><path class="cls-1" d="M304.9,188.3c4.29,.51,8.59,.15,12.88,.21,1.8,.03,2.32-1.5,3.07-2.66,6.88-10.67,15.71-19.23,26.9-25.28,3.8-2.05,7.8-3.63,11.92-4.89,2.37-.72,4.36-.04,5.91,1.82,1.5,1.8,1.73,3.84,.62,5.9-6.04,11.31-7.73,23.58-7.78,36.16-.09,24.15-.02,48.31-.03,72.46,0,13.47-7.98,21.46-21.4,21.46-15.2,0-30.39-.04-45.59,.01-20.94,.07-36.67-9.01-47.42-26.95-.29-.49-.65-.94-.98-1.41-.19-.54-.34-1.09-.57-1.61-16.2-36.15,8.86-74.96,48.43-75.03,4.67,0,9.35-.13,14.02-.2Z"/><path class="cls-8" d="M291.19,296.56c-21.76,0-38.51-9.57-49.82-28.44-.15-.25-.33-.49-.5-.72l-.36-.5c-.16-.23-.29-.48-.38-.74l-.19-.58c-.09-.27-.17-.54-.28-.8-8.04-17.93-6.72-38.11,3.54-53.98,10.24-15.84,28.06-25.32,47.67-25.36,3.16,0,6.32-.06,9.49-.12l4.5-.08c.11,0,.27,0,.41,.02,2.66,.32,5.34,.27,8.2,.22,1.36-.02,2.72-.05,4.06-.03,.1-.16,.22-.37,.32-.52,.14-.25,.29-.5,.44-.73,7.34-11.38,16.77-20.23,28.02-26.31,3.73-2.02,7.82-3.7,12.48-5.12,3.52-1.08,6.77-.08,9.16,2.79,2.3,2.76,2.66,6.15,.97,9.3-5.01,9.37-7.36,20.4-7.41,34.73-.06,15.78-.05,31.55-.04,47.33v25.12c0,15.12-9.37,24.52-24.45,24.52h-16.29c-9.77-.01-19.53-.02-29.3,.01h-.24Zm-45.41-32.83l.04,.06c.28,.39,.56,.78,.81,1.19,10.26,17.13,24.84,25.46,44.56,25.46h.22c9.78-.03,19.54-.02,29.32-.01h16.28c11.65,0,18.33-6.71,18.33-18.4v-25.12c-.02-15.79-.03-31.57,.03-47.36,.06-15.36,2.65-27.31,8.14-37.59,.51-.95,.43-1.65-.28-2.5-.81-.97-1.51-1.21-2.66-.85-4.27,1.31-7.99,2.83-11.36,4.66-10.34,5.58-19.01,13.74-25.79,24.25l-.29,.49c-.68,1.17-2.08,3.57-5.3,3.57h-.1c-1.4-.03-2.78,0-4.17,.03-2.85,.05-5.82,.11-8.82-.24l-4.28,.07c-3.19,.06-6.39,.12-9.58,.12-17.79,.03-33.3,8.25-42.54,22.56-9.26,14.33-10.39,31.88-3.1,48.16,.2,.46,.36,.93,.52,1.41l.02,.05Z"/></g></g><path class="cls-9" d="M292.22,226.2c-.4-5.27-3.28-10.17-8.12-13.79-5.6-4.19-12.74-5.88-19.11-4.52-6.12,1.3-11.27,5.39-14.51,11.5-2.93,5.53-3.94,12.1-2.78,18.02,2.61,13.29,15.7,20.99,26.97,20.99,.52,0,1.04-.02,1.55-.05,1.67-.11,2.94-1.55,2.83-3.23-.05-.8-.42-1.55-1.03-2.09-.61-.53-1.4-.8-2.2-.75-4.63,.3-9.67-1.14-13.82-3.95-4.44-3.01-7.41-7.31-8.35-12.11-.89-4.51-.07-9.75,2.19-14.01,2.38-4.5,6.08-7.49,10.41-8.41,4.61-.98,10.06,.34,14.21,3.44,3.41,2.55,5.43,5.88,5.7,9.38,.27,3.53-1.24,7.47-4.04,10.54-2.43,2.66-5.44,4.21-8.28,4.25-3.14,.04-6.45-1.64-8.47-4.31-.48-.63-2.81-3.95-2.03-7.79,.18-.86,.5-2.46,1.88-3.67,1.46-1.28,3.25-1.36,3.77-1.38,2.83,0,5.93,2.22,6.15,4.37,.03,.36,0,1.78-.7,2.25-.34,.22-1,.41-1.32,.18-.28-.21-.41-.65-.33-1.11,.3-1.65-.8-3.23-2.45-3.53-1.65-.3-3.23,.8-3.53,2.45-.49,2.72,.57,5.5,2.7,7.07,2.71,2,6.11,1.44,8.28,0,3.82-2.53,3.44-7.36,3.39-7.91-.48-4.74-5.49-9.82-12.17-9.84-1.36,0-4.82,.27-7.8,2.89-2.9,2.56-3.56,5.79-3.81,7.01-1.28,6.24,2.08,11.28,3.13,12.67,3.2,4.22,8.34,6.8,13.41,6.72,4.5-.07,9.12-2.34,12.67-6.23,3.91-4.28,6-9.92,5.61-15.09h0Z"/><path class="cls-9" d="M350.74,226.2c-.4-5.27-3.28-10.17-8.12-13.79-5.6-4.19-12.74-5.88-19.11-4.52-6.12,1.3-11.27,5.39-14.51,11.5-2.93,5.53-3.94,12.1-2.78,18.02,2.61,13.29,15.7,20.99,26.97,20.99,.52,0,1.04-.02,1.55-.05,1.67-.11,2.94-1.55,2.83-3.23-.05-.8-.42-1.55-1.03-2.09-.61-.53-1.4-.8-2.2-.75-4.63,.3-9.67-1.14-13.82-3.95-4.44-3.01-7.41-7.31-8.35-12.11-.89-4.51-.07-9.75,2.19-14.01,2.38-4.5,6.08-7.49,10.41-8.41,4.61-.98,10.06,.34,14.21,3.44,3.41,2.55,5.43,5.88,5.7,9.38,.27,3.53-1.24,7.47-4.04,10.54-2.43,2.66-5.44,4.21-8.28,4.25-3.14,.04-6.45-1.64-8.47-4.31-.48-.63-2.81-3.95-2.03-7.79,.18-.86,.5-2.46,1.88-3.67,1.46-1.28,3.25-1.36,3.77-1.38,2.83,0,5.93,2.22,6.15,4.37,.03,.36,0,1.78-.7,2.25-.34,.22-1,.41-1.32,.18-.28-.21-.41-.65-.33-1.11,.3-1.65-.8-3.23-2.45-3.53-1.65-.3-3.23,.8-3.53,2.45-.49,2.72,.57,5.5,2.7,7.07,2.71,2,6.11,1.44,8.28,0,3.82-2.53,3.44-7.36,3.39-7.91-.48-4.74-5.49-9.82-12.17-9.84-1.36,0-4.82,.27-7.8,2.89-2.9,2.56-3.56,5.79-3.81,7.01-1.28,6.24,2.08,11.28,3.13,12.67,3.2,4.22,8.34,6.8,13.41,6.72,4.5-.07,9.12-2.34,12.67-6.23,3.91-4.28,6-9.92,5.61-15.09h0Z"/><path class="cls-4" d="M204.82,220.22h-33.38c-3.47,0-6.29,2.82-6.29,6.29v20.16c0,3.47,2.82,6.29,6.29,6.29h1.93l.77,9.12,7.96-9.12h22.72c3.47,0,6.29-2.82,6.29-6.29v-20.16c0-3.47-2.82-6.29-6.29-6.29h0Zm-28.24,18.87c-1.67,0-3.08-1.41-3.08-3.08s1.41-3.08,3.08-3.08,3.08,1.41,3.08,3.08c.13,1.67-1.28,3.08-3.08,3.08h0Zm11.55,0c-1.67,0-3.08-1.41-3.08-3.08s1.41-3.08,3.08-3.08,3.08,1.41,3.08,3.08-1.41,3.08-3.08,3.08h0Zm11.43,0c-1.67,0-3.08-1.41-3.08-3.08s1.41-3.08,3.08-3.08,3.08,1.41,3.08,3.08c.13,1.67-1.28,3.08-3.08,3.08h0Zm0,0"/><path class="cls-2" d="M268.7,263.61h-49.26c-5.12,0-9.28,4.17-9.28,9.28v29.74c0,5.12,4.17,9.28,9.28,9.28h2.84l1.14,13.45,11.75-13.45h33.53c5.12,0,9.28-4.17,9.28-9.28v-29.74c0-5.12-4.17-9.28-9.28-9.28h0Zm-41.68,27.85c-2.46,0-4.55-2.08-4.55-4.55s2.08-4.55,4.55-4.55,4.55,2.08,4.55,4.55c.19,2.46-1.89,4.55-4.55,4.55h0Zm17.05,0c-2.46,0-4.55-2.08-4.55-4.55s2.08-4.55,4.55-4.55,4.55,2.08,4.55,4.55-2.08,4.55-4.55,4.55h0Zm16.86,0c-2.46,0-4.55-2.08-4.55-4.55s2.08-4.55,4.55-4.55,4.55,2.08,4.55,4.55c.19,2.46-1.89,4.55-4.55,4.55h0Zm0,0"/><path class="cls-4" d="M340.5,300.52h-39.65c-4.12,0-7.47,3.35-7.47,7.47v23.94c0,4.12,3.35,7.47,7.47,7.47h2.29l.92,10.83,9.45-10.83h26.99c4.12,0,7.47-3.35,7.47-7.47v-23.94c0-4.12-3.35-7.47-7.47-7.47h0Zm-33.55,22.42c-1.98,0-3.66-1.68-3.66-3.66s1.68-3.66,3.66-3.66,3.66,1.68,3.66,3.66c.15,1.98-1.52,3.66-3.66,3.66h0Zm13.72,0c-1.98,0-3.66-1.68-3.66-3.66s1.68-3.66,3.66-3.66,3.66,1.68,3.66,3.66-1.68,3.66-3.66,3.66h0Zm13.57,0c-1.98,0-3.66-1.68-3.66-3.66s1.68-3.66,3.66-3.66,3.66,1.68,3.66,3.66c.15,1.98-1.52,3.66-3.66,3.66h0Zm0,0"/><path class="cls-4" d="M473.81,206.25h-36.66c-3.81,0-6.91,3.1-6.91,6.91v22.13c0,3.81,3.1,6.91,6.91,6.91h2.11l.85,10.01,8.74-10.01h24.95c3.81,0,6.91-3.1,6.91-6.91v-22.13c0-3.81-3.1-6.91-6.91-6.91h0Zm-31.02,20.72c-1.83,0-3.38-1.55-3.38-3.38s1.55-3.38,3.38-3.38,3.38,1.55,3.38,3.38c.14,1.83-1.41,3.38-3.38,3.38h0Zm12.69,0c-1.83,0-3.38-1.55-3.38-3.38s1.55-3.38,3.38-3.38,3.38,1.55,3.38,3.38-1.55,3.38-3.38,3.38h0Zm12.55,0c-1.83,0-3.38-1.55-3.38-3.38s1.55-3.38,3.38-3.38,3.38,1.55,3.38,3.38c.14,1.83-1.41,3.38-3.38,3.38h0Zm0,0"/><path class="cls-2" d="M433.8,239.37h-58.87c-6.11,0-11.09,4.98-11.09,11.09v35.55c0,6.11,4.98,11.09,11.09,11.09h3.4l1.36,16.08,14.04-16.08h40.07c6.11,0,11.09-4.98,11.09-11.09v-35.55c0-6.11-4.98-11.09-11.09-11.09h0Zm-49.81,33.28c-2.94,0-5.43-2.49-5.43-5.43s2.49-5.43,5.43-5.43,5.43,2.49,5.43,5.43c.23,2.94-2.26,5.43-5.43,5.43h0Zm20.38,0c-2.94,0-5.43-2.49-5.43-5.43s2.49-5.43,5.43-5.43,5.43,2.49,5.43,5.43-2.49,5.43-5.43,5.43h0Zm20.15,0c-2.94,0-5.43-2.49-5.43-5.43s2.49-5.43,5.43-5.43,5.43,2.49,5.43,5.43c.23,2.94-2.26,5.43-5.43,5.43h0Zm0,0"/></svg>