<?xml version="1.0" encoding="UTF-8"?><svg id="_图层_1" xmlns="http://www.w3.org/2000/svg" xmlns:xlink="http://www.w3.org/1999/xlink" viewBox="0 0 500 500"><defs><style>.cls-1{fill:#3b63ad;}.cls-1,.cls-2{stroke:#e27251;stroke-linejoin:round;stroke-width:2.4px;}.cls-3{fill:#f5f5f5;}.cls-4{fill:#535354;}.cls-5{fill:#e07251;}.cls-6{opacity:.25;}.cls-6,.cls-7,.cls-8{fill:#cbe1e1;}.cls-9{fill:#ec7552;}.cls-2{fill:#fff;}.cls-7{opacity:.33;}.cls-10{clip-path:url(#clippath);}.cls-11{fill:none;}.cls-12{fill:#545454;}</style><clipPath id="clippath"><rect class="cls-11" x="191.57" y="109.91" width="92.84" height="120.03" transform="translate(-17.11 26.96) rotate(-6.26)"/></clipPath></defs><g><ellipse class="cls-7" cx="263.72" cy="263.17" rx="222.28" ry="123.21"/><ellipse class="cls-8" cx="263.72" cy="263.17" rx="176.33" ry="97.74"/><ellipse class="cls-6" cx="263.72" cy="263.17" rx="142.21" ry="78.83"/><ellipse class="cls-8" cx="263.72" cy="263.17" rx="105.22" ry="58.33"/></g><g><path class="cls-4" d="M54.25,254.88l-.84,28.43c-2.58,.49-5.5,.74-8.66,.74l1.23-18.06-7.84,17.67c-2.07,.36-4.06,.53-6.02,.47l-3.01-18.14-3.5,18.02c-2.53-.22-5.07-.35-7.61-.41l7.1-28.38c3.04-.19,6.09-.5,9.14-.93l3.18,16.88,8.44-16.6c2.78,.22,5.58,.31,8.39,.31Z"/><path class="cls-4" d="M79.1,270.11h0s0,0,0,0l-1.47,10.48c-1.12,7.96-6.25,11.98-13.39,11.98-5.34,0-8.52-2.24-8.52-5.6,0-2.49,1.77-4.07,3.56-5.03-1.66-1.19-2.36-3.48-1.79-6.68l.9-5.14,.14-.83c.61-3.58,.45-5.69,.16-6.26,1.78-.42,4.59-.98,5.78-.98,2.65,0,3.8,1.13,2.73,7.18l-.16,.9h0l-.74,4.03c-.24,1.31,.13,2.14,.95,2.14,1.52,0,2.65-2.4,3.21-6.16h0s0,0,0,0h0c.51-3.62,.62-6.22,.56-7.15,3.07-.45,5.95-.57,8.77-.32,.04,.85-.11,3.46-.68,7.47Zm-10.12,13.14l.57-4.02c-1.25,1.95-3.24,3.15-5.41,3.53-.08,.37-.13,.79-.13,1.24,0,1.67,.69,2.57,1.99,2.57s2.66-.98,2.99-3.32Z"/><path class="cls-4" d="M109.41,262h-8.52l-.61,4.34h7.63c-.1,1.81-.68,3.75-1.04,5.62h-7.38l-.62,4.42h9.39c-.12,2.36-.89,4.88-1.35,7.33h-18.42l4.05-28.84h18.2c-.12,2.29-.86,4.76-1.32,7.14Z"/><path class="cls-4" d="M111.35,275.92l1.05-5.97c.65-3.68,.54-6.12,.28-6.94,1.78-.42,4.59-.98,5.78-.98,2.65,0,3.72,1.57,2.6,7.92l-.85,4.85c-.23,1.33-.09,2.17,1.17,2.17,2.66,0,3.85-3.35,3.85-6.91,0-2.51-.58-5.13-1.6-6.75,1.17-.55,3.44-1.29,5.35-1.29,2.83,0,4.36,2.71,4.36,6.38,0,6.68-5.05,15.9-15.21,15.9-5.77,0-7.71-3.04-6.76-8.39Z"/><path class="cls-4" d="M134.25,275.5c.01-7.05,5.88-13.47,12.97-13.47,4.81,0,7.17,2.93,7.17,6.49,0,4.46-3.69,7.08-8.06,7.08-1.41,0-2.68-.34-3.7-.79,0,.06,0,.13,0,.19,0,1.62,1.83,2.76,4.43,2.76,2.38,0,4.55-.93,5.55-1.63,.12,1.56-.3,3.38-.83,5.39-1.51,1.19-4.7,2.79-8.43,2.79-5.64,0-9.07-3.45-9.08-8.81Zm12.63-6.38c0-.98-.42-1.44-1.24-1.44-1.61,0-2.79,1.76-3.27,3.99,.38,.09,.85,.17,1.31,.17,2.07,0,3.19-1.16,3.19-2.73Z"/><path class="cls-4" d="M177.82,270.42l-1.03,5.82-.39,2.21c-.39,2.19-.22,4.52,.09,5.26-1.78,.26-4.59,.6-5.78,.6-2.65,0-3.8-1.08-3.07-5.26l.5-2.81,.83-4.7c.23-1.33-.13-2.17-.95-2.17-1.51,0-2.74,2.67-3.33,6.86-.51,3.62-.62,6.22-.56,7.15-3.07,.45-5.95,.57-8.77,.32-.04-.85,.11-3.46,.68-7.47l.98-6.96c.5-3.58,.4-5.7,.17-6.26,1.78-.42,4.59-.98,5.78-.98,2.15,0,3.16,.72,3.01,4.24,1.52-2.75,4.14-4.24,6.82-4.24,3.81,0,5.97,3.04,5.03,8.39Z"/><path class="cls-4" d="M196.85,275.97c.1,1.76-.48,3.9-1.29,6.32-1.29,.86-3.79,2.04-6.97,2.04-3.54,0-7.83-1.66-6.89-8.3l.89-6.31h-2.9c.63-2.11,1.55-4.26,1.88-6.32l2.5-.51c.07-.55,.22-1.23,.52-1.93,1.34-3.16,9.31-2.71,9.31-2.71,0,0-.85,1.76-1.61,5.16h6.37c-.33,2.06-1.25,4.21-1.88,6.32h-5.53l-.52,3.96c-.35,2.73,1.03,3.47,2.08,3.47,1.42,0,3.11-.66,4.05-1.18Z"/></g><path class="cls-9" d="M240.33,202.98c16.19-7.54,29.09,34.34,34.1,53.74v35.11c-.17-.03-.34-.05-.51-.08-16.66-3.01-25.93-19.35-43.26-52.1-11.94-22.57-6.56-29.11,9.67-36.66Z"/><path class="cls-1" d="M263.98,224.22s-11.29,16.53-33.32,15.42c0,0-.8,5.78,3.35,5.45,4.16-.33,25.24-2.36,32.23-15.88,0,0,1.93-5.61-2.26-5Z"/><path class="cls-2" d="M267.82,232.23s-11.29,16.53-33.32,15.42c0,0-.8,5.78,3.35,5.45s25.24-2.36,32.23-15.88c0,0,1.93-5.61-2.26-5Z"/><g><g><path class="cls-9" d="M355.55,217.23c4.87,.58,9.75,.17,14.63,.24,2.05,.03,2.64-1.7,3.49-3.02,7.81-12.11,17.85-21.84,30.56-28.71,4.32-2.33,8.86-4.12,13.54-5.55,2.69-.82,4.95-.05,6.72,2.07,1.7,2.04,1.96,4.36,.71,6.7-6.86,12.84-8.78,26.78-8.83,41.06-.1,27.43-.02,54.86-.03,82.29,0,15.3-9.06,24.37-24.3,24.38-17.26,0-34.52-.04-51.78,.01-23.78,.07-41.65-10.23-53.85-30.61-.33-.55-.74-1.07-1.11-1.6-.21-.61-.39-1.24-.65-1.83-18.4-41.05,10.06-85.13,55-85.21,5.31,0,10.62-.15,15.92-.23Z"/><g><path class="cls-3" d="M341.52,193.01c4.87,.58,9.75,.17,14.63,.24,2.05,.03,2.64-1.7,3.49-3.02,7.81-12.11,17.85-21.84,30.56-28.71,4.32-2.33,8.86-4.12,13.54-5.55,2.69-.82,4.95-.05,6.72,2.07,1.7,2.04,1.96,4.36,.71,6.7-6.86,12.84-8.78,26.78-8.83,41.06-.1,27.43-.02,54.86-.03,82.29,0,15.3-9.06,24.37-24.3,24.38-17.26,0-34.52-.04-51.78,.01-23.78,.07-41.65-10.23-53.85-30.61-.33-.55-.74-1.07-1.11-1.6-.21-.61-.39-1.24-.65-1.83-18.4-41.05,10.06-85.13,55-85.21,5.31,0,10.62-.15,15.92-.23Z"/><path class="cls-9" d="M325.95,315.95c-24.71,0-43.74-10.87-56.57-32.3-.17-.29-.37-.55-.57-.82l-.41-.57c-.18-.26-.32-.54-.43-.84l-.22-.65c-.1-.31-.19-.61-.32-.91-9.13-20.37-7.63-43.29,4.02-61.3,11.63-17.99,31.87-28.76,54.14-28.8,3.59,0,7.18-.07,10.77-.14l5.11-.09c.13,0,.31,0,.46,.02,3.02,.36,6.06,.31,9.31,.25,1.54-.02,3.09-.05,4.61-.04,.12-.18,.26-.42,.36-.59,.16-.28,.33-.56,.5-.83,8.34-12.92,19.05-22.98,31.83-29.88,4.24-2.29,8.88-4.2,14.17-5.82,4-1.22,7.68-.1,10.4,3.17,2.62,3.13,3.02,6.98,1.11,10.56-5.69,10.64-8.36,23.17-8.42,39.44-.07,17.92-.06,35.83-.04,53.75v28.53c0,17.17-10.64,27.85-27.77,27.85h-18.5c-11.09-.02-22.19-.02-33.27,.01h-.27Zm-51.57-37.28l.05,.06c.32,.44,.64,.88,.92,1.35,11.65,19.45,28.21,28.92,50.6,28.92h.26c11.1-.03,22.19-.03,33.3-.02h18.49c13.23,0,20.82-7.62,20.82-20.9v-28.52c-.02-17.93-.03-35.85,.03-53.78,.06-17.45,3.01-31.01,9.24-42.69,.58-1.08,.49-1.87-.31-2.84-.92-1.1-1.72-1.37-3.02-.97-4.85,1.49-9.07,3.22-12.9,5.29-11.74,6.34-21.59,15.61-29.29,27.54l-.33,.56c-.77,1.32-2.36,4.06-6.02,4.06h-.11c-1.59-.03-3.15,0-4.73,.03-3.24,.06-6.61,.12-10.01-.27l-4.86,.08c-3.63,.07-7.26,.13-10.88,.14-20.21,.04-37.81,9.37-48.31,25.62-10.52,16.27-11.8,36.21-3.52,54.69,.23,.52,.41,1.06,.59,1.6l.02,.06Z"/></g></g><path class="cls-5" d="M300.51,256.96c-1.01,0-1.97-.58-2.41-1.56-.6-1.33,0-2.9,1.32-3.5l10.03-4.52-9.39-5.51c-1.26-.74-1.68-2.36-.94-3.62,.74-1.25,2.36-1.68,3.62-.94l13.81,8.11c.86,.5,1.36,1.44,1.3,2.43-.05,.99-.65,1.86-1.56,2.27l-14.7,6.62c-.35,.16-.72,.23-1.09,.23Z"/><path class="cls-5" d="M369.85,256.96c1.01,0,1.97-.58,2.41-1.56,.6-1.33,0-2.9-1.32-3.5l-10.03-4.52,9.39-5.51c1.26-.74,1.68-2.36,.94-3.62-.74-1.25-2.36-1.68-3.62-.94l-13.81,8.11c-.86,.5-1.36,1.44-1.3,2.43,.05,.99,.65,1.86,1.56,2.27l14.7,6.62c.35,.16,.72,.23,1.09,.23Z"/></g><g><g class="cls-10"><path class="cls-12" d="M241.14,186.14h-.08c-19.31,1.84-35.66-4.36-44.86-17-9.07-12.48-9.82-30.75-1.99-48.89,.73-1.68,2.38-2.84,4.15-3.02,13.71-1.3,26.04,1.98,35.66,9.47,2.2,1.71,2.6,4.88,.87,7.08-1.71,2.19-4.88,2.6-7.08,.87-6.86-5.34-15.62-7.95-25.49-7.59-5.19,13.83-4.48,27.18,2.03,36.12,7.05,9.69,20.08,14.39,35.75,12.9,2.77-.27,5.23,1.77,5.5,4.54,.28,2.76-1.71,5.2-4.45,5.5h0Zm0,0"/><path class="cls-12" d="M242.02,185.87c-1.56,.17-3.11-.39-4.21-1.54-13.18-13.89-17.95-30.08-13.46-45.57,4.46-15.36,17.82-26.87,36.64-31.6,1.77-.48,3.64,.1,4.89,1.42,13.36,14.08,18.46,30.96,14,46.3-4.29,14.75-17.84,26-37.19,30.87-.21,.05-.44,.09-.67,.12h0Zm-7.98-44.3c-3.24,11.14-.01,22.97,9.09,33.6,9.42-2.82,23.03-9.23,27.06-23.1,3.21-11.05-.3-23.43-9.63-34.33-13.71,4.2-23.31,12.77-26.52,23.82h0Zm0,0"/></g><path class="cls-12" d="M222.07,213.81c-.83,.09-1.67-.02-2.49-.36-4.35-1.82-8.39-4.29-12.01-7.33-2.13-1.79-2.41-4.97-.61-7.1,1.79-2.14,4.97-2.42,7.11-.62,2.84,2.38,6.01,4.32,9.41,5.75,2.57,1.07,3.79,4.03,2.7,6.6-.74,1.75-2.35,2.87-4.11,3.06h0Zm40.57-4.83c-1.73,.19-3.52-.52-4.62-2.02-1.65-2.24-1.17-5.4,1.08-7.05,2.8-2.06,5.3-4.5,7.41-7.26,1.7-2.21,4.86-2.63,7.07-.93,2.21,1.7,2.63,4.86,.94,7.08-2.69,3.52-5.88,6.64-9.45,9.25-.73,.54-1.57,.84-2.42,.94h0Zm0,0"/><path class="cls-12" d="M244.02,229.49c-2.77,.3-5.26-1.7-5.56-4.46l-3.55-32.39c-.3-2.77,1.7-5.26,4.46-5.56s5.26,1.7,5.56,4.46l3.55,32.39c.3,2.77-1.69,5.26-4.46,5.56h0Zm0,0"/></g><path class="cls-9" d="M233.6,206.01s6.66-3.14,9.06-.28c4.91,5.86,.93,30.66-4.98,33.03s-24.68-23.6-4.08-32.75Z"/><path class="cls-9" d="M249.9,204s-7.17,6.43-7.57,12.19c-.4,5.76,15.66-2.97,15.66-2.97,0,0,.52-10.68-8.09-9.22Z"/></svg>