<?xml version="1.0" encoding="UTF-8"?><svg id="_图层_1" xmlns="http://www.w3.org/2000/svg" viewBox="0 0 500 500"><defs><style>.cls-1{fill:#f5f5f5;}.cls-2{fill:#b7b1af;}.cls-3{fill:#535354;}.cls-4{fill:#948e8b;}.cls-5{fill:#ec7552;}.cls-6{fill:#545454;}</style></defs><g><path class="cls-3" d="M48.67,263.46l-.73,24.97c-2.26,.43-4.83,.65-7.61,.65l1.08-15.86-6.88,15.52c-1.82,.32-3.56,.46-5.29,.42l-2.64-15.93-3.08,15.83c-2.22-.19-4.45-.31-6.69-.36l6.23-24.93c2.67-.17,5.34-.44,8.03-.82l2.79,14.83,7.41-14.58c2.45,.19,4.9,.28,7.37,.27Z"/><path class="cls-3" d="M70.5,276.83h0l-1.29,9.2c-.98,6.99-5.49,10.52-11.75,10.52-4.69,0-7.49-1.96-7.49-4.92,0-2.19,1.56-3.58,3.12-4.42-1.46-1.05-2.07-3.05-1.58-5.87l.79-4.52,.12-.73c.54-3.14,.4-5,.14-5.5,1.57-.37,4.03-.86,5.07-.86,2.33,0,3.33,.99,2.4,6.3l-.14,.79h0l-.65,3.54c-.21,1.15,.11,1.88,.83,1.88,1.33,0,2.32-2.11,2.82-5.41h0s0,0,0,0h0c.45-3.18,.54-5.47,.49-6.28,2.69-.39,5.23-.5,7.7-.28,.04,.75-.1,3.04-.59,6.56Zm-8.89,11.54l.5-3.53c-1.1,1.71-2.84,2.77-4.75,3.1-.07,.33-.11,.69-.11,1.09,0,1.46,.61,2.26,1.75,2.26s2.33-.86,2.62-2.92Z"/><path class="cls-3" d="M96.55,277.72l4.76,11.05-9.05,.52-2.32-9.69c-.56,0-1.13-.02-1.68-.07l-1.3,9.24c-2.84,.33-5.53,.4-8.24,.16l3.48-24.77c1.59-.42,5.08-.98,8.78-.98,7,0,11.02,2.06,11.02,6.49,0,3.47-2.01,6.59-5.44,8.06Zm-2.49-6.54c0-1.77-1.31-2.33-2.93-2.33-.68,0-1.33,.1-1.88,.22l-.79,5.63c.4,.1,.83,.16,1.24,.16,2.51,0,4.35-1.32,4.35-3.68Z"/><path class="cls-3" d="M103.05,281.57c.01-6.19,5.16-11.83,11.39-11.83,4.22,0,6.3,2.58,6.3,5.7,0,3.92-3.24,6.22-7.08,6.22-1.24,0-2.35-.3-3.25-.7,0,.06,0,.11,0,.17,0,1.42,1.61,2.43,3.89,2.43,2.09,0,4-.82,4.87-1.43,.1,1.37-.26,2.97-.73,4.73-1.33,1.04-4.13,2.45-7.4,2.45-4.95,0-7.96-3.03-7.98-7.74Zm11.09-5.6c0-.86-.37-1.26-1.09-1.26-1.41,0-2.45,1.55-2.87,3.51,.34,.08,.74,.15,1.15,.15,1.82,0,2.81-1.02,2.81-2.4Z"/><path class="cls-3" d="M121.91,281.94l.92-5.24c.57-3.24,.48-5.38,.24-6.09,1.57-.37,4.03-.86,5.07-.86,2.33,0,3.26,1.38,2.28,6.96l-.75,4.26c-.21,1.17-.08,1.91,1.03,1.91,2.33,0,3.38-2.94,3.38-6.07,0-2.21-.51-4.51-1.41-5.92,1.03-.49,3.02-1.13,4.7-1.13,2.49,0,3.82,2.38,3.82,5.6,0,5.87-4.43,13.96-13.35,13.96-5.07,0-6.77-2.67-5.94-7.37Z"/><path class="cls-3" d="M151.48,276.04l-.14,.79-.94,5.38-.33,1.92c-.34,1.94-.19,3.99,.08,4.64-1.57,.22-4.04,.52-5.08,.52-2.33,0-3.32-.94-2.68-4.64l.42-2.44,.94-5.38,.12-.73c.52-3.13,.39-5,.13-5.5,1.57-.37,4.03-.86,5.07-.86,2.33,0,3.33,.99,2.41,6.3Zm-1.48-15.17c2.16,0,3.71,1.29,3.71,3.09,0,2.31-2.29,4.07-4.73,4.07-2.15,0-3.67-1.32-3.67-3.14,0-2.32,2.26-4.03,4.69-4.03h0Z"/><path class="cls-3" d="M152.88,281.57c.01-6.19,5.16-11.83,11.39-11.83,4.22,0,6.3,2.58,6.3,5.7,0,3.92-3.24,6.22-7.08,6.22-1.24,0-2.35-.3-3.25-.7,0,.06,0,.11,0,.17,0,1.42,1.61,2.43,3.89,2.43,2.09,0,4-.82,4.87-1.43,.1,1.37-.26,2.97-.73,4.73-1.33,1.04-4.13,2.45-7.4,2.45-4.95,0-7.96-3.03-7.98-7.74Zm11.09-5.6c0-.86-.37-1.26-1.09-1.26-1.41,0-2.45,1.55-2.87,3.51,.34,.08,.74,.15,1.15,.15,1.82,0,2.81-1.02,2.81-2.4Z"/><path class="cls-3" d="M200.79,275.34c0,5.87-4.03,13.96-12.67,13.96-3.72,0-5.62-1.44-6.05-4.06-1.32,2.65-3.66,4.06-6.07,4.06-3.29,0-5.14-2.67-4.31-7.37l.9-5.11h0l.12-.73c.53-3.14,.4-5,.14-5.5,1.57-.37,4.03-.86,5.07-.86,2.33,0,3.33,.99,2.4,6.3l-.14,.79h0l-.76,4.12c-.21,1.17,.1,1.9,.8,1.9,1.23,0,2.15-2.11,2.67-5v-.06s.02-.02,.02-.02l.19-1.07c.57-3.24,.48-5.38,.24-6.09,1.57-.37,4.03-.86,5.07-.86,2.33,0,3.26,1.38,2.28,6.96l-.75,4.26c-.21,1.17-.07,1.91,.88,1.91,1.9,0,2.84-2.94,2.84-6.16,0-2.11-.36-4.42-1.01-5.83,1.03-.49,3.02-1.13,4.7-1.13,2.22,0,3.43,2.38,3.43,5.6Z"/></g><g><path class="cls-5" d="M326.94,200.07c4.27,.51,8.56,.15,12.85,.21,1.8,.03,2.31-1.49,3.07-2.66,6.86-10.64,15.67-19.18,26.84-25.22,3.79-2.05,7.78-3.62,11.89-4.88,2.36-.72,4.35-.04,5.9,1.82,1.49,1.79,1.72,3.83,.62,5.88-6.03,11.28-7.71,23.52-7.76,36.07-.09,24.09-.02,48.18-.03,72.28,0,13.44-7.96,21.4-21.34,21.41-15.16,0-30.32-.04-45.48,.01-20.89,.06-36.58-8.99-47.3-26.88-.29-.49-.65-.94-.97-1.4-.19-.54-.34-1.09-.57-1.6-16.16-36.05,8.84-74.77,48.3-74.84,4.66,0,9.32-.13,13.99-.2Z"/><g><path class="cls-1" d="M314.62,178.79c4.27,.51,8.56,.15,12.85,.21,1.8,.03,2.31-1.49,3.07-2.66,6.86-10.64,15.67-19.18,26.84-25.22,3.79-2.05,7.78-3.62,11.89-4.88,2.36-.72,4.35-.04,5.9,1.82,1.49,1.79,1.72,3.83,.62,5.88-6.03,11.28-7.71,23.52-7.76,36.07-.09,24.09-.02,48.18-.03,72.28,0,13.44-7.96,21.4-21.34,21.41-15.16,0-30.32-.04-45.48,.01-20.89,.06-36.58-8.99-47.3-26.88-.29-.49-.65-.94-.97-1.4-.19-.54-.34-1.09-.57-1.6-16.16-36.05,8.84-74.77,48.3-74.84,4.66,0,9.32-.13,13.99-.2Z"/><path class="cls-5" d="M300.95,286.78c-21.7,0-38.42-9.54-49.69-28.37-.15-.25-.32-.49-.5-.72l-.36-.5c-.16-.23-.28-.48-.38-.74l-.19-.57c-.09-.27-.17-.54-.28-.8-8.02-17.89-6.7-38.02,3.53-53.84,10.21-15.8,27.99-25.26,47.55-25.29,3.16,0,6.31-.06,9.46-.12l4.49-.08c.11,0,.27,0,.41,.02,2.65,.32,5.33,.27,8.18,.22,1.35-.02,2.72-.05,4.05-.03,.1-.16,.22-.37,.31-.52,.14-.25,.29-.5,.44-.73,7.32-11.35,16.73-20.18,27.95-26.25,3.72-2.01,7.8-3.69,12.45-5.11,3.51-1.07,6.75-.08,9.13,2.78,2.3,2.75,2.65,6.13,.97,9.28-4.99,9.34-7.34,20.35-7.4,34.64-.06,15.73-.05,31.47-.04,47.21v25.06c0,15.08-9.35,24.46-24.39,24.46h-16.25c-9.74-.01-19.48-.02-29.22,.01h-.24Zm-45.29-32.75l.04,.06c.28,.39,.56,.78,.8,1.18,10.23,17.09,24.77,25.4,44.44,25.4h.22c9.75-.03,19.49-.02,29.25-.01h16.24c11.62,0,18.28-6.69,18.29-18.35v-25.05c-.02-15.74-.03-31.49,.03-47.23,.06-15.32,2.64-27.24,8.12-37.49,.51-.95,.43-1.65-.27-2.49-.8-.96-1.51-1.2-2.66-.85-4.26,1.3-7.97,2.82-11.33,4.64-10.31,5.57-18.97,13.71-25.73,24.18l-.29,.49c-.68,1.16-2.07,3.57-5.29,3.57h-.1c-1.4-.03-2.77,0-4.16,.03-2.85,.05-5.8,.11-8.79-.24l-4.27,.07c-3.19,.06-6.37,.12-9.56,.12-17.75,.03-33.21,8.23-42.43,22.5-9.24,14.29-10.36,31.8-3.09,48.03,.2,.46,.36,.93,.52,1.4l.02,.05Z"/></g></g><path class="cls-6" d="M301.97,216.6c-.4-5.26-3.27-10.14-8.1-13.75-5.58-4.18-12.71-5.86-19.07-4.51-6.1,1.3-11.24,5.38-14.47,11.48-2.92,5.52-3.93,12.07-2.77,17.98,2.6,13.25,15.66,20.94,26.9,20.94,.52,0,1.04-.02,1.55-.05,1.67-.11,2.93-1.55,2.83-3.22-.05-.8-.42-1.55-1.02-2.08-.6-.53-1.39-.8-2.2-.75-4.62,.3-9.64-1.14-13.79-3.94-4.43-3-7.39-7.29-8.33-12.08-.88-4.5-.07-9.73,2.18-13.97,2.38-4.49,6.06-7.47,10.38-8.39,4.6-.98,10.03,.33,14.17,3.43,3.4,2.55,5.42,5.87,5.69,9.36,.27,3.52-1.24,7.45-4.03,10.51-2.42,2.65-5.43,4.2-8.26,4.24-3.13,.04-6.44-1.64-8.45-4.3-.48-.63-2.8-3.94-2.02-7.77,.18-.86,.5-2.45,1.87-3.66,1.45-1.28,3.25-1.36,3.76-1.37,2.82,0,5.91,2.22,6.13,4.36,.03,.36,0,1.78-.7,2.24-.34,.22-1,.41-1.32,.18-.28-.21-.41-.65-.33-1.11,.3-1.65-.8-3.22-2.44-3.52-1.65-.3-3.22,.8-3.52,2.44-.49,2.72,.57,5.49,2.69,7.06,2.7,1.99,6.09,1.43,8.26,0,3.81-2.52,3.44-7.35,3.38-7.89-.48-4.73-5.47-9.8-12.14-9.82-1.35,0-4.81,.27-7.78,2.89-2.9,2.55-3.56,5.77-3.8,6.99-1.27,6.22,2.07,11.25,3.13,12.64,3.19,4.21,8.31,6.78,13.37,6.7,4.49-.07,9.1-2.33,12.64-6.21,3.9-4.27,5.99-9.9,5.6-15.05h0Z"/><path class="cls-6" d="M360.35,216.6c-.4-5.26-3.27-10.14-8.1-13.75-5.58-4.18-12.71-5.86-19.07-4.51-6.1,1.3-11.24,5.38-14.47,11.48-2.92,5.52-3.93,12.07-2.77,17.98,2.6,13.25,15.66,20.94,26.9,20.94,.52,0,1.04-.02,1.55-.05,1.67-.11,2.93-1.55,2.83-3.22-.05-.8-.42-1.55-1.02-2.08-.6-.53-1.39-.8-2.2-.75-4.62,.3-9.64-1.14-13.79-3.94-4.43-3-7.39-7.29-8.33-12.08-.88-4.5-.07-9.73,2.18-13.97,2.38-4.49,6.06-7.47,10.38-8.39,4.6-.98,10.03,.33,14.17,3.43,3.4,2.55,5.42,5.87,5.69,9.36,.27,3.52-1.24,7.45-4.03,10.51-2.42,2.65-5.43,4.2-8.26,4.24-3.13,.04-6.44-1.64-8.45-4.3-.48-.63-2.8-3.94-2.02-7.77,.18-.86,.5-2.45,1.87-3.66,1.45-1.28,3.25-1.36,3.76-1.37,2.82,0,5.91,2.22,6.13,4.36,.03,.36,0,1.78-.7,2.24-.34,.22-1,.41-1.32,.18-.28-.21-.41-.65-.33-1.11,.3-1.65-.8-3.22-2.44-3.52-1.65-.3-3.22,.8-3.52,2.44-.49,2.72,.57,5.49,2.69,7.06,2.7,1.99,6.09,1.43,8.26,0,3.81-2.52,3.44-7.35,3.38-7.89-.48-4.73-5.47-9.8-12.14-9.82-1.35,0-4.81,.27-7.78,2.89-2.9,2.55-3.56,5.77-3.8,6.99-1.27,6.22,2.07,11.25,3.13,12.64,3.19,4.21,8.31,6.78,13.37,6.7,4.49-.07,9.1-2.33,12.64-6.21,3.9-4.27,5.99-9.9,5.6-15.05h0Z"/><path class="cls-4" d="M214.8,210.63h-33.29c-3.46,0-6.27,2.82-6.27,6.27v20.1c0,3.46,2.82,6.27,6.27,6.27h1.92l.77,9.09,7.94-9.09h22.67c3.46,0,6.27-2.82,6.27-6.27v-20.1c0-3.46-2.82-6.27-6.27-6.27h0Zm-28.17,18.82c-1.66,0-3.07-1.41-3.07-3.07s1.41-3.07,3.07-3.07,3.07,1.41,3.07,3.07c.13,1.66-1.28,3.07-3.07,3.07h0Zm11.53,0c-1.66,0-3.07-1.41-3.07-3.07s1.41-3.07,3.07-3.07,3.07,1.41,3.07,3.07-1.41,3.07-3.07,3.07h0Zm11.4,0c-1.66,0-3.07-1.41-3.07-3.07s1.41-3.07,3.07-3.07,3.07,1.41,3.07,3.07c.13,1.66-1.28,3.07-3.07,3.07h0Zm0,0"/><path class="cls-2" d="M278.52,253.91h-49.13c-5.1,0-9.26,4.16-9.26,9.26v29.67c0,5.1,4.16,9.26,9.26,9.26h2.83l1.13,13.42,11.72-13.42h33.45c5.1,0,9.26-4.16,9.26-9.26v-29.67c0-5.1-4.16-9.26-9.26-9.26h0Zm-41.57,27.78c-2.46,0-4.54-2.08-4.54-4.54s2.08-4.53,4.54-4.53,4.54,2.08,4.54,4.53c.19,2.46-1.89,4.54-4.54,4.54h0Zm17.01,0c-2.46,0-4.54-2.08-4.54-4.54s2.08-4.53,4.54-4.53,4.53,2.08,4.53,4.53-2.08,4.54-4.53,4.54h0Zm16.82,0c-2.46,0-4.54-2.08-4.54-4.54s2.08-4.53,4.54-4.53,4.54,2.08,4.54,4.53c.19,2.46-1.89,4.54-4.54,4.54h0Zm0,0"/><path class="cls-4" d="M350.13,290.72h-39.55c-4.11,0-7.45,3.35-7.45,7.45v23.88c0,4.11,3.35,7.45,7.45,7.45h2.28l.91,10.8,9.43-10.8h26.92c4.11,0,7.45-3.35,7.45-7.45v-23.88c0-4.11-3.35-7.45-7.45-7.45h0Zm-33.46,22.36c-1.98,0-3.65-1.67-3.65-3.65s1.67-3.65,3.65-3.65,3.65,1.67,3.65,3.65c.15,1.98-1.52,3.65-3.65,3.65h0Zm13.69,0c-1.98,0-3.65-1.67-3.65-3.65s1.67-3.65,3.65-3.65,3.65,1.67,3.65,3.65-1.67,3.65-3.65,3.65h0Zm13.54,0c-1.98,0-3.65-1.67-3.65-3.65s1.67-3.65,3.65-3.65,3.65,1.67,3.65,3.65c.15,1.98-1.52,3.65-3.65,3.65h0Zm0,0"/><path class="cls-4" d="M483.11,196.69h-36.56c-3.8,0-6.89,3.09-6.89,6.89v22.08c0,3.8,3.09,6.89,6.89,6.89h2.11l.84,9.98,8.72-9.98h24.89c3.8,0,6.89-3.09,6.89-6.89v-22.08c0-3.8-3.09-6.89-6.89-6.89h0Zm-30.94,20.67c-1.83,0-3.38-1.55-3.38-3.38s1.55-3.37,3.38-3.37,3.38,1.55,3.38,3.37c.14,1.83-1.41,3.38-3.38,3.38h0Zm12.66,0c-1.83,0-3.38-1.55-3.38-3.38s1.55-3.37,3.38-3.37,3.37,1.55,3.37,3.37-1.55,3.38-3.37,3.38h0Zm12.52,0c-1.83,0-3.38-1.55-3.38-3.38s1.55-3.37,3.38-3.37,3.38,1.55,3.38,3.37c.14,1.83-1.41,3.38-3.38,3.38h0Zm0,0"/><path class="cls-2" d="M443.2,229.73h-58.72c-6.1,0-11.07,4.97-11.07,11.07v35.46c0,6.1,4.97,11.07,11.07,11.07h3.39l1.36,16.03,14-16.03h39.97c6.1,0,11.07-4.97,11.07-11.07v-35.46c0-6.1-4.97-11.07-11.07-11.07h0Zm-49.68,33.2c-2.94,0-5.42-2.48-5.42-5.42s2.48-5.42,5.42-5.42,5.42,2.48,5.42,5.42c.23,2.94-2.26,5.42-5.42,5.42h0Zm20.33,0c-2.94,0-5.42-2.48-5.42-5.42s2.48-5.42,5.42-5.42,5.42,2.48,5.42,5.42-2.48,5.42-5.42,5.42h0Zm20.1,0c-2.94,0-5.42-2.48-5.42-5.42s2.48-5.42,5.42-5.42,5.42,2.48,5.42,5.42c.23,2.94-2.26,5.42-5.42,5.42h0Zm0,0"/></svg>