<?xml version="1.0" encoding="UTF-8"?><svg id="_图层_1" xmlns="http://www.w3.org/2000/svg" xmlns:xlink="http://www.w3.org/1999/xlink" viewBox="0 0 500 500"><defs><style>.cls-1{fill:#f4f4f4;}.cls-2{fill:#fff;}.cls-2,.cls-3{stroke:#d76f50;stroke-linejoin:round;stroke-width:1.92px;}.cls-4{fill:#303030;}.cls-5{fill:#535354;}.cls-6{fill:#2b90bf;}.cls-7{fill:#e07251;}.cls-8{clip-path:url(#clippath);}.cls-9{fill:none;}.cls-3{fill:#395ea1;}</style><clipPath id="clippath"><rect class="cls-9" x="255.7" y="152.02" width="97.42" height="89.65"/></clipPath></defs><g><path class="cls-5" d="M49.3,232.04c0,10.24-8.56,19.03-20.03,19.03-.83,0-1.68-.07-2.5-.18l-1.48,10.55c-4.66,.55-9.09,.66-13.54,.26l5.72-40.69c2.75-.68,8.34-1.59,13.58-1.59,11.79,0,18.24,4.46,18.24,12.63Zm-13.03,1.82c0-3.06-1.57-4.66-4.3-4.66-.95,0-1.91,.16-2.67,.36l-1.61,11.46c.71,.17,1.37,.23,1.81,.23,4.14,0,6.77-2.88,6.77-7.39Z"/><path class="cls-5" d="M75.95,230.27c-.13,4.51-1.52,9.5-3.92,14.67-4.66-2.87-8.5-.4-9.36,5.71-.73,5.22-.89,8.98-.8,10.32-4.42,.65-8.58,.82-12.66,.46-.06-1.23,.16-4.99,.98-10.78l1.41-10.03c.72-5.16,.58-8.22,.25-9.04,2.57-.61,6.62-1.42,8.33-1.42,3.13,0,4.58,1.06,4.33,6.25,2.88-4.03,7.2-6.15,11.43-6.15Z"/><path class="cls-5" d="M74.15,249.6c.02-10.16,8.48-19.43,18.71-19.43,6.93,0,10.34,4.23,10.34,9.36,0,6.43-5.32,10.22-11.63,10.22-2.03,0-3.86-.48-5.34-1.14,0,.09-.01,.18-.01,.27,0,2.33,2.64,3.99,6.39,3.99,3.43,0,6.57-1.34,8-2.36,.17,2.25-.43,4.88-1.2,7.77-2.18,1.72-6.79,4.03-12.16,4.03-8.14,0-13.08-4.97-13.1-12.71Zm18.21-9.2c0-1.42-.61-2.07-1.78-2.07-2.32,0-4.03,2.54-4.71,5.76,.55,.13,1.22,.24,1.89,.24,2.99,0,4.61-1.67,4.61-3.94Z"/><path class="cls-5" d="M105.12,250.21l1.52-8.61c.94-5.31,.78-8.84,.4-10.01,2.57-.61,6.62-1.42,8.33-1.42,3.82,0,5.36,2.27,3.75,11.43l-1.23,7c-.34,1.92-.12,3.13,1.69,3.13,3.83,0,5.55-4.83,5.55-9.96,0-3.62-.83-7.4-2.31-9.73,1.69-.8,4.96-1.86,7.72-1.86,4.09,0,6.28,3.91,6.28,9.2,0,9.64-7.28,22.94-21.94,22.94-8.33,0-11.12-4.39-9.76-12.1Z"/><path class="cls-5" d="M153.69,240.52l-.22,1.3-1.54,8.84-.55,3.16c-.55,3.19-.31,6.55,.12,7.62-2.58,.37-6.63,.85-8.35,.85-3.82,0-5.46-1.55-4.41-7.62l.7-4,1.54-8.84,.2-1.19c.86-5.14,.64-8.22,.22-9.04,2.57-.61,6.62-1.42,8.33-1.42,3.82,0,5.47,1.63,3.95,10.35Zm-2.42-24.92c3.54,0,6.1,2.12,6.1,5.08,0,3.79-3.76,6.69-7.76,6.69-3.53,0-6.04-2.17-6.04-5.15,0-3.81,3.71-6.62,7.7-6.62h0Z"/><path class="cls-5" d="M168.36,262.31c-7.45,0-12.36-4.97-12.38-12.69,.02-10.15,8.49-19.45,18.72-19.45,7.46,0,12.36,4.99,12.38,12.69-.02,10.16-8.5,19.45-18.72,19.45h0Zm6.24-17.71c0-3.23-.81-4.72-2.27-4.72-2.34,0-3.87,3.56-3.87,8.02,0,3.24,.8,4.7,2.25,4.7,2.35,0,3.89-3.54,3.89-8Z"/><path class="cls-5" d="M221.96,231.04c.06,1.23-.16,4.99-.98,10.78l-1.69,12.01c-.45,3.21-.21,6.56,.18,7.6-2.63,.37-6.76,.85-8.51,.85-3.42,0-4.82-1.26-4.47-5.86-2.25,3.85-5.92,5.89-9.68,5.89-5.5,0-8.56-4.39-7.2-12.1l1.48-8.39,.2-1.19c.88-5.16,.66-8.21,.24-9.04,2.57-.61,6.62-1.42,8.33-1.42,3.82,0,5.48,1.63,3.94,10.35l-.23,1.3-1.25,6.77c-.35,1.92,.18,3.12,1.37,3.12,2.19,0,3.96-3.86,4.81-9.9,.73-5.22,.89-8.98,.8-10.32,4.42-.65,8.58-.82,12.66-.46h0Z"/><path class="cls-5" d="M225.39,261.35c-1.12-3.47-1.21-7.01-.68-10.6,1.34,1.1,4.84,2.47,8.38,2.47,1.8,0,2.9-.42,2.9-1.22s-1.19-1.39-3.37-2.44c-2.27-1.09-6.51-3.13-6.51-8.35,0-6.99,7.35-11.04,16.01-11.04,3.46,0,6.45,.69,7.75,1.23-.17,2.81-1.15,5.9-2.76,9.07-1.21-.88-3.48-1.95-5.96-1.95-1.3,0-2.43,.32-2.43,1.24,0,.98,1.33,1.69,3.67,2.95,2.25,1.21,6.21,3.34,6.21,8.81,0,7.15-6.52,10.79-15.63,10.79-3.5,0-6.28-.55-7.58-.96Z"/><path class="cls-5" d="M95.66,285.54h-12.29l-.88,6.25h11.01c-.14,2.61-.98,5.41-1.5,8.11h-10.65l-.9,6.38h13.54c-.18,3.4-1.28,7.05-1.95,10.57h-26.58l5.85-41.6h26.25c-.18,3.31-1.24,6.86-1.9,10.3Z"/><path class="cls-5" d="M98.46,305.62l1.52-8.61c.94-5.31,.78-8.84,.4-10.01,2.57-.61,6.62-1.42,8.33-1.42,3.82,0,5.36,2.27,3.75,11.43l-1.23,7c-.34,1.92-.12,3.13,1.69,3.13,3.83,0,5.55-4.83,5.55-9.96,0-3.62-.83-7.4-2.31-9.73,1.69-.8,4.96-1.86,7.72-1.86,4.09,0,6.28,3.91,6.28,9.2,0,9.64-7.28,22.94-21.94,22.94-8.33,0-11.12-4.39-9.76-12.1Z"/><path class="cls-5" d="M131.49,305.01c.02-10.16,8.48-19.43,18.71-19.43,6.93,0,10.34,4.23,10.34,9.36,0,6.43-5.32,10.22-11.63,10.22-2.03,0-3.86-.48-5.34-1.14,0,.09-.01,.18-.01,.27,0,2.33,2.64,3.99,6.39,3.99,3.43,0,6.57-1.34,8-2.36,.17,2.25-.43,4.88-1.2,7.77-2.18,1.72-6.79,4.03-12.16,4.03-8.14,0-13.08-4.97-13.1-12.71Zm18.21-9.2c0-1.42-.61-2.07-1.78-2.07-2.32,0-4.03,2.54-4.71,5.76,.55,.13,1.22,.24,1.89,.24,2.99,0,4.61-1.67,4.61-3.94Z"/><path class="cls-5" d="M194.34,297.68l-1.48,8.39-.56,3.19c-.56,3.16-.32,6.52,.12,7.59-2.57,.38-6.62,.87-8.33,.87-3.82,0-5.49-1.55-4.42-7.59l.72-4.06,1.19-6.78c.34-1.91-.18-3.12-1.37-3.12-2.19,0-3.96,3.86-4.81,9.9-.73,5.22-.89,8.98-.8,10.32-4.42,.65-8.58,.82-12.66,.46-.06-1.23,.16-4.99,.98-10.78l1.41-10.03c.72-5.16,.58-8.22,.25-9.04,2.57-.61,6.62-1.42,8.33-1.42,3.1,0,4.56,1.04,4.34,6.12,2.2-3.96,5.97-6.12,9.84-6.12,5.5,0,8.61,4.39,7.25,12.1Z"/><path class="cls-5" d="M215.96,307.39c2.05,0,4.49-.95,5.84-1.7,.14,2.54-.69,5.63-1.86,9.11-1.86,1.24-5.47,2.95-10.05,2.95-5.11,0-11.29-2.4-9.94-11.97l1.28-9.11h-4.19c.9-3.04,2.24-6.14,2.71-9.12l3.61-.74c.1-.79,.31-1.77,.74-2.79,1.94-4.56,13.43-3.91,13.43-3.91,0,0-1.22,2.54-2.33,7.44h9.19c-.47,2.97-1.81,6.08-2.71,9.12h-7.98l-.74,5.72c-.51,3.94,1.48,5,3,5h0Z"/><path class="cls-5" d="M225.39,316.76c-1.12-3.47-1.21-7.01-.68-10.6,1.34,1.1,4.84,2.47,8.38,2.47,1.8,0,2.9-.42,2.9-1.22s-1.19-1.39-3.37-2.44c-2.27-1.09-6.51-3.13-6.51-8.35,0-6.99,7.35-11.04,16.01-11.04,3.46,0,6.45,.69,7.75,1.23-.17,2.81-1.15,5.9-2.76,9.07-1.21-.88-3.48-1.95-5.96-1.95-1.3,0-2.43,.32-2.43,1.24,0,.98,1.33,1.69,3.67,2.95,2.25,1.21,6.21,3.34,6.21,8.81,0,7.15-6.52,10.79-15.63,10.79-3.5,0-6.28-.55-7.58-.96Z"/></g><g><path class="cls-7" d="M309.11,233.26c12.93-6.02,23.22,27.41,27.22,42.89v28.03c-.14-.02-.27-.04-.41-.07-13.3-2.4-20.7-15.44-34.53-41.59-9.53-18.02-5.24-23.23,7.72-29.26Z"/><path class="cls-3" d="M327.99,250.22s-9.01,13.2-26.6,12.31c0,0-.64,4.62,2.68,4.35s20.15-1.88,25.73-12.67c0,0,1.54-4.48-1.81-3.99Z"/><path class="cls-2" d="M331.06,256.61s-9.01,13.2-26.6,12.31c0,0-.64,4.62,2.68,4.35s20.15-1.88,25.73-12.67c0,0,1.54-4.48-1.81-3.99Z"/><path class="cls-7" d="M316.75,234.07s-5.72,5.13-6.04,9.73c-.32,4.6,12.5-2.37,12.5-2.37,0,0,.41-8.53-6.46-7.36Z"/><g><path class="cls-6" d="M268.97,198.94c0,19.12,15.5,34.63,34.63,34.63s34.63-15.5,34.63-34.63-15.5-34.63-34.63-34.63-34.63,15.5-34.63,34.63h0Zm0,0"/><g class="cls-8"><path class="cls-4" d="M332.13,199.7h-27.07v-28.43c0-1.81,1.47-3.28,3.28-3.28s3.28,1.47,3.28,3.28v21.87h20.51c1.17,0,2.25,.63,2.84,1.64,.59,1.02,.59,2.27,0,3.28-.59,1.01-1.67,1.64-2.84,1.64h0Zm-65.22,8.12c-1.33,0-2.52-.8-3.03-2.03-.51-1.23-.23-2.64,.71-3.57l7.7-7.7c.83-.83,2.04-1.16,3.17-.86,1.13,.3,2.02,1.19,2.32,2.32,.3,1.13-.02,2.34-.86,3.17l-7.7,7.7c-.61,.62-1.45,.96-2.32,.96h0Zm0,0"/><path class="cls-4" d="M266.67,207.82c-.87,0-1.7-.34-2.32-.96l-7.7-7.7c-.83-.83-1.16-2.04-.86-3.17,.3-1.13,1.19-2.02,2.32-2.32,1.13-.3,2.34,.02,3.17,.86l7.7,7.7c.94,.94,1.22,2.35,.71,3.57-.51,1.23-1.7,2.02-3.03,2.03h0Zm0,0"/></g><path class="cls-4" d="M308.34,241.54c-11.94,0-23.17-4.65-31.61-13.09-.85-.82-1.19-2.04-.89-3.19,.3-1.15,1.2-2.04,2.34-2.34,1.15-.3,2.36,.04,3.19,.89,7.14,7.18,16.85,11.2,26.97,11.17,21.03,0,38.15-17.11,38.15-38.15s-17.11-38.15-38.15-38.15-38.15,17.11-38.15,38.15c0,1.81-1.47,3.28-3.28,3.28s-3.28-1.47-3.28-3.28c0-24.65,20.06-44.71,44.71-44.71s44.71,20.06,44.71,44.71-20.06,44.71-44.71,44.71h0Zm0,0"/></g><path class="cls-7" d="M301.11,233.96s5.39-2.54,7.33-.22c3.98,4.74,.75,24.83-4.03,26.74s-19.99-19.1-3.3-26.52Z"/><g><path class="cls-7" d="M413.53,233.77c4.8,.57,9.62,.16,14.43,.24,2.02,.03,2.6-1.68,3.44-2.98,7.71-11.95,17.61-21.55,30.15-28.33,4.26-2.3,8.74-4.06,13.36-5.48,2.65-.81,4.89-.05,6.63,2.04,1.68,2.01,1.93,4.3,.7,6.61-6.77,12.67-8.66,26.43-8.71,40.52-.1,27.06-.02,54.13-.03,81.19,0,15.1-8.94,24.04-23.98,24.05-17.03,0-34.06-.04-51.09,.01-23.46,.07-41.09-10.1-53.13-30.2-.33-.55-.73-1.05-1.09-1.58-.21-.6-.38-1.22-.64-1.8-18.15-40.5,9.93-83.99,54.26-84.07,5.24,0,10.47-.15,15.71-.22Z"/><g><path class="cls-1" d="M399.69,209.87c4.8,.57,9.62,.16,14.43,.24,2.02,.03,2.6-1.68,3.44-2.98,7.71-11.95,17.61-21.55,30.15-28.33,4.26-2.3,8.74-4.06,13.36-5.48,2.65-.81,4.89-.05,6.63,2.04,1.68,2.01,1.93,4.3,.7,6.61-6.77,12.67-8.66,26.43-8.71,40.52-.1,27.06-.02,54.13-.03,81.19,0,15.1-8.94,24.04-23.98,24.05-17.03,0-34.06-.04-51.09,.01-23.46,.07-41.09-10.1-53.13-30.2-.33-.55-.73-1.05-1.09-1.58-.21-.6-.38-1.22-.64-1.8-18.15-40.5,9.93-83.99,54.26-84.07,5.24,0,10.47-.15,15.71-.22Z"/><path class="cls-7" d="M384.32,331.17c-24.38,0-43.16-10.72-55.82-31.87-.17-.28-.36-.55-.56-.81l-.41-.56c-.18-.26-.32-.53-.42-.83l-.22-.65c-.1-.3-.19-.6-.32-.89-9.01-20.09-7.53-42.71,3.97-60.48,11.47-17.75,31.44-28.37,53.41-28.41,3.54,0,7.09-.07,10.63-.14l5.04-.09c.13,0,.3,0,.46,.02,2.98,.36,5.98,.3,9.19,.25,1.52-.02,3.05-.05,4.55-.04,.12-.17,.25-.41,.35-.59,.16-.28,.33-.56,.5-.82,8.23-12.75,18.79-22.67,31.4-29.48,4.18-2.26,8.76-4.14,13.98-5.74,3.95-1.21,7.58-.09,10.26,3.12,2.58,3.09,2.98,6.89,1.09,10.42-5.61,10.5-8.25,22.86-8.31,38.91-.07,17.68-.06,35.35-.04,53.03v28.15c0,16.94-10.5,27.48-27.4,27.48h-18.25c-10.94-.02-21.89-.02-32.83,.01h-.27Zm-50.88-36.79l.05,.06c.32,.43,.63,.87,.9,1.33,11.5,19.19,27.83,28.53,49.93,28.53h.25c10.95-.03,21.9-.03,32.86-.02h18.24c13.05,0,20.54-7.51,20.54-20.62v-28.14c-.02-17.69-.03-35.37,.03-53.06,.06-17.21,2.97-30.6,9.12-42.12,.57-1.06,.48-1.85-.31-2.8-.9-1.08-1.7-1.35-2.98-.96-4.78,1.47-8.95,3.17-12.73,5.22-11.58,6.26-21.31,15.4-28.9,27.17l-.33,.55c-.76,1.31-2.33,4.01-5.94,4.01h-.11c-1.57-.03-3.11,0-4.67,.03-3.2,.06-6.52,.12-9.88-.27l-4.8,.08c-3.58,.07-7.16,.13-10.74,.14-19.94,.04-37.31,9.25-47.67,25.28-10.38,16.05-11.64,35.72-3.47,53.96,.23,.51,.41,1.04,.58,1.57l.02,.05Z"/></g><path class="cls-7" d="M412.11,275.78c-1.19,0-2.23-.79-2.48-1.98-.56-2.65,.7-8.16,9.49-10.02,8.27-1.75,11.92,2.56,12.68,5.09,.41,1.36-.35,2.8-1.71,3.21-1.36,.41-2.75-.33-3.19-1.65-.13-.33-1.28-2.78-6.71-1.62-5.7,1.21-5.55,3.73-5.51,4.01,.18,1.37-.75,2.69-2.11,2.92-.15,.03-.3,.04-.45,.04Z"/><path class="cls-7" d="M359.66,280.17c-.98,0-1.92-.56-2.34-1.52-.58-1.29,0-2.82,1.29-3.4l9.75-4.39-9.12-5.36c-1.23-.72-1.64-2.3-.92-3.52,.72-1.22,2.29-1.64,3.52-.91l13.42,7.88c.83,.49,1.32,1.4,1.27,2.36-.05,.96-.64,1.81-1.51,2.21l-14.29,6.43c-.34,.15-.7,.23-1.06,.23Z"/></g></g></svg>