<svg width="31" height="31" viewBox="0 0 31 31" fill="none" xmlns="http://www.w3.org/2000/svg">
<g clip-path="url(#clip0_252_116)">
<path d="M1.10074 29.3344C2.12484 28.9751 3.08321 28.6952 3.99315 28.3048C4.85464 27.9385 5.02417 27.4651 4.62283 26.6152C4.37719 26.0969 4.00353 25.627 3.64716 25.1674C0.000512926 20.4787 -1.06511 15.2994 1.15609 9.74346C3.31848 4.32917 7.43913 1.05365 13.2378 0.179484C22.5758 -1.22678 30.7929 5.7769 30.9971 15.1923C31.1562 22.6521 25.3229 29.4622 17.8221 30.5748C12.9541 31.297 8.12071 31.0724 3.31156 30.0738C2.71301 29.9494 2.13176 29.7283 1.54705 29.5452C1.41558 29.5037 1.29103 29.4242 1.10074 29.331V29.3344Z" fill="#37669C"/>
</g>
<defs>
<clipPath id="clip0_252_116">
<rect width="31" height="31" fill="white"/>
</clipPath>
</defs>
</svg>
