<?xml version="1.0" encoding="UTF-8"?><svg id="_图层_1" xmlns="http://www.w3.org/2000/svg" viewBox="0 0 494.02 301.35"><defs><style>.cls-1{fill:#f4f4f4;}.cls-2{fill:#fff;}.cls-3{opacity:.88;}.cls-4{fill:#9bc3ac;}.cls-5{fill:#738186;}.cls-6{fill:#535354;}.cls-7{fill:#7f1c1f;}.cls-8{fill:#e07251;}.cls-9{fill:#decc35;}</style></defs><g><path class="cls-9" d="M390.28,151.67c0,82.66-67.01,149.68-149.68,149.68S90.92,234.34,90.92,151.67,157.94,1.99,240.6,1.99s149.68,67.01,149.68,149.68"/><path class="cls-2" d="M370.3,151.67c0,71.63-58.07,129.7-129.7,129.7S110.9,223.3,110.9,151.67,168.97,21.97,240.6,21.97s129.7,58.07,129.7,129.7"/><polygon class="cls-9" points="139.47 4.85 149.72 0 168.05 33.97 139.47 4.85"/><polygon class="cls-9" points="155.76 242.06 115.95 278.52 122.82 288.37 155.76 242.06"/><g><polygon class="cls-7" points="69.49 226.54 9.05 270.24 16.91 284.86 69.49 226.54"/><polygon class="cls-9" points="75.46 223.37 7.77 254.67 12.68 270.53 75.46 223.37"/></g><g><polygon class="cls-7" points="358.08 231.33 382.96 280.64 395.83 274.09 358.08 231.33"/><polygon class="cls-9" points="357.97 237 382.85 286.31 395.72 279.77 357.97 237"/></g><g><polygon class="cls-7" points="426.27 67.21 487.01 36.07 478.82 20.22 426.27 67.21"/><polygon class="cls-9" points="433.28 67.3 494.02 36.16 485.83 20.31 433.28 67.3"/></g><g><polygon class="cls-7" points="60.54 79.79 14.94 29.01 1.7 40.97 60.54 79.79"/><polygon class="cls-9" points="58.83 72.99 13.24 22.2 0 34.17 58.83 72.99"/></g><polygon class="cls-9" points="355.46 6.34 362.47 10.65 347.91 29.87 355.46 6.34"/></g><g><g><path class="cls-8" d="M270.25,117.87c5.57,.67,11.17,.19,16.75,.28,2.34,.04,3.02-1.95,4-3.46,8.95-13.87,20.44-25.02,34.99-32.88,4.94-2.67,10.14-4.72,15.5-6.36,3.08-.94,5.67-.06,7.69,2.37,1.95,2.33,2.24,4.99,.81,7.67-7.86,14.71-10.05,30.68-10.11,47.03-.12,31.42-.02,62.83-.04,94.25,0,17.52-10.38,27.91-27.83,27.92-19.77,0-39.53-.05-59.3,.01-27.23,.08-47.7-11.72-61.68-35.06-.38-.64-.84-1.22-1.27-1.83-.25-.7-.44-1.42-.74-2.09-21.07-47.01,11.52-97.5,62.99-97.59,6.08-.01,12.16-.17,18.24-.26Z"/><g><path class="cls-1" d="M254.19,90.13c5.57,.67,11.17,.19,16.75,.28,2.34,.04,3.02-1.95,4-3.46,8.95-13.87,20.44-25.02,34.99-32.88,4.94-2.67,10.14-4.72,15.5-6.36,3.08-.94,5.67-.06,7.69,2.37,1.95,2.33,2.24,4.99,.81,7.67-7.86,14.71-10.05,30.68-10.11,47.03-.12,31.42-.02,62.83-.04,94.25,0,17.52-10.38,27.91-27.83,27.92-19.77,0-39.53-.05-59.3,.01-27.23,.08-47.7-11.72-61.68-35.06-.38-.64-.84-1.22-1.27-1.83-.25-.7-.44-1.42-.74-2.09-21.07-47.01,11.52-97.5,62.99-97.59,6.08-.01,12.16-.17,18.24-.26Z"/><path class="cls-8" d="M236.35,230.93c-28.3,0-50.1-12.44-64.79-36.99-.2-.33-.42-.63-.65-.94l-.47-.66c-.21-.3-.37-.62-.49-.96l-.25-.75c-.11-.35-.22-.7-.37-1.04-10.46-23.32-8.74-49.57,4.61-70.21,13.32-20.61,36.5-32.94,62-32.98,4.11,0,8.22-.08,12.34-.16l5.85-.1c.15,0,.35,0,.53,.03,3.46,.41,6.95,.35,10.66,.29,1.76-.03,3.54-.06,5.28-.04,.14-.2,.29-.48,.41-.68,.19-.32,.38-.65,.58-.95,9.55-14.8,21.81-26.32,36.45-34.23,4.86-2.63,10.17-4.81,16.23-6.66,4.58-1.4,8.8-.11,11.91,3.63,3,3.59,3.46,8,1.27,12.1-6.51,12.18-9.57,26.54-9.64,45.17-.08,20.52-.07,41.04-.05,61.56v32.68c0,19.67-12.19,31.89-31.8,31.9h-21.18c-12.7-.02-25.41-.03-38.11,.01h-.31Zm-59.06-42.7l.05,.07c.37,.5,.73,1.01,1.05,1.54,13.34,22.28,32.31,33.12,57.95,33.12h.29c12.72-.04,25.42-.03,38.14-.02h21.18c15.15,0,23.84-8.72,23.84-23.93v-32.67c-.02-20.53-.03-41.06,.04-61.59,.07-19.98,3.44-35.52,10.59-48.89,.66-1.24,.56-2.15-.36-3.25-1.05-1.26-1.97-1.57-3.46-1.11-5.55,1.7-10.39,3.68-14.78,6.06-13.44,7.26-24.73,17.88-33.55,31.54l-.38,.64c-.88,1.52-2.7,4.65-6.89,4.65h-.13c-1.82-.03-3.61,0-5.42,.03-3.71,.07-7.57,.14-11.47-.31l-5.57,.1c-4.15,.08-8.31,.15-12.47,.16-23.14,.04-43.31,10.73-55.33,29.34-12.05,18.64-13.51,41.47-4.03,62.64,.27,.6,.47,1.21,.67,1.83l.02,.06Z"/></g><path class="cls-8" d="M268.6,166.63c-1.38,0-2.59-.91-2.88-2.3-.65-3.08,.82-9.47,11.02-11.64,9.6-2.03,13.83,2.97,14.72,5.91,.48,1.58-.41,3.25-1.99,3.72-1.58,.47-3.2-.38-3.7-1.92-.15-.38-1.49-3.22-7.79-1.88-6.62,1.4-6.44,4.33-6.4,4.66,.21,1.59-.87,3.12-2.45,3.39-.17,.03-.35,.05-.52,.05Z"/></g><g><g><circle class="cls-5" cx="173.04" cy="152.98" r="68.77"/><path class="cls-6" d="M173.04,226.95c-40.79,0-73.97-33.18-73.97-73.97s33.18-73.97,73.97-73.97,73.97,33.18,73.97,73.97-33.18,73.97-73.97,73.97Zm0-137.54c-35.05,0-63.57,28.52-63.57,63.57s28.52,63.57,63.57,63.57,63.57-28.52,63.57-63.57-28.52-63.57-63.57-63.57Z"/></g><g><circle class="cls-4" cx="173.04" cy="152.98" r="50.68"/><path class="cls-6" d="M173.04,207.49c-30.06,0-54.52-24.46-54.52-54.52s24.46-54.52,54.52-54.52,54.52,24.46,54.52,54.52-24.46,54.52-54.52,54.52Zm0-101.36c-25.83,0-46.85,21.01-46.85,46.85s21.01,46.85,46.85,46.85,46.85-21.01,46.85-46.85-21.01-46.85-46.85-46.85Z"/></g><circle class="cls-6" cx="174.23" cy="152" r="17.96"/><g class="cls-3"><circle class="cls-2" cx="159.2" cy="138.49" r="12.19"/></g></g><rect class="cls-6" x="86.41" y="189.55" width="17.63" height="89.45" rx="8.54" ry="8.54" transform="translate(193.55 1.29) rotate(45)"/></g></svg>