<?xml version="1.0" encoding="UTF-8"?>
<svg id="_图层_1" data-name=" 图层 1" xmlns="http://www.w3.org/2000/svg" viewBox="0 0 144.45 162.06">
  <defs>
    <style>
      .cls-1 {
        fill: #ec7552;
      }

      .cls-2 {
        fill: #f5f5f5;
      }

      .cls-3 {
        fill: #545454;
      }
    </style>
  </defs>
  <g>
    <path class="cls-1" d="M82.59,57.14c4.27,.51,8.56,.15,12.85,.21,1.8,.03,2.31-1.49,3.07-2.66,6.86-10.64,15.67-19.18,26.84-25.22,3.79-2.05,7.78-3.62,11.89-4.88,2.36-.72,4.35-.04,5.9,1.82,1.49,1.79,1.72,3.83,.62,5.88-6.03,11.28-7.71,23.52-7.76,36.07-.09,24.09-.02,48.18-.03,72.28,0,13.44-7.96,21.4-21.34,21.41-15.16,0-30.32-.04-45.48,.01-20.89,.06-36.58-8.99-47.3-26.88-.29-.49-.65-.94-.97-1.4-.19-.54-.34-1.09-.57-1.6C4.15,96.13,29.15,57.41,68.61,57.34c4.66,0,9.32-.13,13.99-.2h0Z"/>
    <g>
      <path class="cls-2" d="M70.27,35.86c4.27,.51,8.56,.15,12.85,.21,1.8,.03,2.31-1.49,3.07-2.66,6.86-10.64,15.67-19.18,26.84-25.22,3.79-2.05,7.78-3.62,11.89-4.88,2.36-.72,4.35-.04,5.9,1.82,1.49,1.79,1.72,3.83,.62,5.88-6.03,11.28-7.71,23.52-7.76,36.07-.09,24.09-.02,48.18-.03,72.28,0,13.44-7.96,21.4-21.34,21.41-15.16,0-30.32-.04-45.48,.01-20.89,.06-36.58-8.99-47.3-26.88-.29-.49-.65-.94-.97-1.4-.19-.54-.34-1.09-.57-1.6C-8.17,74.85,16.83,36.13,56.29,36.06c4.66,0,9.32-.13,13.99-.2h0Z"/>
      <path class="cls-1" d="M56.6,143.85c-21.7,0-38.42-9.54-49.69-28.37-.15-.25-.32-.49-.5-.72l-.36-.5c-.16-.23-.28-.48-.38-.74l-.19-.57c-.09-.27-.17-.54-.28-.8-8.02-17.89-6.7-38.02,3.53-53.84,10.21-15.8,27.99-25.26,47.55-25.29,3.16,0,6.31-.06,9.46-.12l4.49-.08c.11,0,.27,0,.41,.02,2.65,.32,5.33,.27,8.18,.22,1.35-.02,2.72-.05,4.05-.03,.1-.16,.22-.37,.31-.52,.14-.25,.29-.5,.44-.73,7.32-11.35,16.73-20.18,27.95-26.25,3.72-2.01,7.8-3.69,12.45-5.11,3.51-1.07,6.75-.08,9.13,2.78,2.3,2.75,2.65,6.13,.97,9.28-4.99,9.34-7.34,20.35-7.4,34.64-.06,15.73-.05,31.47-.04,47.21v25.06c0,15.08-9.35,24.46-24.39,24.46h-16.25c-9.74-.01-19.48-.02-29.22,.01h-.22ZM11.31,111.1l.04,.06c.28,.39,.56,.78,.8,1.18,10.23,17.09,24.77,25.4,44.44,25.4h.22c9.75-.03,19.49-.02,29.25-.01h16.24c11.62,0,18.28-6.69,18.29-18.35v-25.05c-.02-15.74-.03-31.49,.03-47.23,.06-15.32,2.64-27.24,8.12-37.49,.51-.95,.43-1.65-.27-2.49-.8-.96-1.51-1.2-2.66-.85-4.26,1.3-7.97,2.82-11.33,4.64-10.31,5.57-18.97,13.71-25.73,24.18l-.29,.49c-.68,1.16-2.07,3.57-5.29,3.57h-.1c-1.4-.03-2.77,0-4.16,.03-2.85,.05-5.8,.11-8.79-.24l-4.27,.07c-3.19,.06-6.37,.12-9.56,.12-17.75,.03-33.21,8.23-42.43,22.5-9.24,14.29-10.36,31.8-3.09,48.03,.2,.46,.36,.93,.52,1.4l.02,.05h0Z"/>
    </g>
  </g>
  <path class="cls-3" d="M57.62,73.67c-.4-5.26-3.27-10.14-8.1-13.75-5.58-4.18-12.71-5.86-19.07-4.51-6.1,1.3-11.24,5.38-14.47,11.48-2.92,5.52-3.93,12.07-2.77,17.98,2.6,13.25,15.66,20.94,26.9,20.94,.52,0,1.04-.02,1.55-.05,1.67-.11,2.93-1.55,2.83-3.22-.05-.8-.42-1.55-1.02-2.08-.6-.53-1.39-.8-2.2-.75-4.62,.3-9.64-1.14-13.79-3.94-4.43-3-7.39-7.29-8.33-12.08-.88-4.5-.07-9.73,2.18-13.97,2.38-4.49,6.06-7.47,10.38-8.39,4.6-.98,10.03,.33,14.17,3.43,3.4,2.55,5.42,5.87,5.69,9.36,.27,3.52-1.24,7.45-4.03,10.51-2.42,2.65-5.43,4.2-8.26,4.24-3.13,.04-6.44-1.64-8.45-4.3-.48-.63-2.8-3.94-2.02-7.77,.18-.86,.5-2.45,1.87-3.66,1.45-1.28,3.25-1.36,3.76-1.37,2.82,0,5.91,2.22,6.13,4.36,.03,.36,0,1.78-.7,2.24-.34,.22-1,.41-1.32,.18-.28-.21-.41-.65-.33-1.11,.3-1.65-.8-3.22-2.44-3.52-1.65-.3-3.22,.8-3.52,2.44-.49,2.72,.57,5.49,2.69,7.06,2.7,1.99,6.09,1.43,8.26,0,3.81-2.52,3.44-7.35,3.38-7.89-.48-4.73-5.47-9.8-12.14-9.82-1.35,0-4.81,.27-7.78,2.89-2.9,2.55-3.56,5.77-3.8,6.99-1.27,6.22,2.07,11.25,3.13,12.64,3.19,4.21,8.31,6.78,13.37,6.7,4.49-.07,9.1-2.33,12.64-6.21,3.9-4.27,5.99-9.9,5.6-15.05h0Z"/>
  <path class="cls-3" d="M116,73.67c-.4-5.26-3.27-10.14-8.1-13.75-5.58-4.18-12.71-5.86-19.07-4.51-6.1,1.3-11.24,5.38-14.47,11.48-2.92,5.52-3.93,12.07-2.77,17.98,2.6,13.25,15.66,20.94,26.9,20.94,.52,0,1.04-.02,1.55-.05,1.67-.11,2.93-1.55,2.83-3.22-.05-.8-.42-1.55-1.02-2.08-.6-.53-1.39-.8-2.2-.75-4.62,.3-9.64-1.14-13.79-3.94-4.43-3-7.39-7.29-8.33-12.08-.88-4.5-.07-9.73,2.18-13.97,2.38-4.49,6.06-7.47,10.38-8.39,4.6-.98,10.03,.33,14.17,3.43,3.4,2.55,5.42,5.87,5.69,9.36,.27,3.52-1.24,7.45-4.03,10.51-2.42,2.65-5.43,4.2-8.26,4.24-3.13,.04-6.44-1.64-8.45-4.3-.48-.63-2.8-3.94-2.02-7.77,.18-.86,.5-2.45,1.87-3.66,1.45-1.28,3.25-1.36,3.76-1.37,2.82,0,5.91,2.22,6.13,4.36,.03,.36,0,1.78-.7,2.24-.34,.22-1,.41-1.32,.18-.28-.21-.41-.65-.33-1.11,.3-1.65-.8-3.22-2.44-3.52-1.65-.3-3.22,.8-3.52,2.44-.49,2.72,.57,5.49,2.69,7.06,2.7,1.99,6.09,1.43,8.26,0,3.81-2.52,3.44-7.35,3.38-7.89-.48-4.73-5.47-9.8-12.14-9.82-1.35,0-4.81,.27-7.78,2.89-2.9,2.55-3.56,5.77-3.8,6.99-1.27,6.22,2.07,11.25,3.13,12.64,3.19,4.21,8.31,6.78,13.37,6.7,4.49-.07,9.1-2.33,12.64-6.21,3.9-4.27,5.99-9.9,5.6-15.05h0Z"/>
</svg>