<svg xmlns="http://www.w3.org/2000/svg" xmlns:xlink="http://www.w3.org/1999/xlink" id="_图层_1" viewBox="6.92 114.99 487.08 290.06"><defs><style>.cls-1{fill:#fff;}.cls-2{fill:#f5f5f5;}.cls-3{fill:#e51c3c;}.cls-4{clip-path:url(#clippath-1);}.cls-5{fill:#ec7552;}.cls-6{fill:#15706b;opacity:.25;}.cls-7{clip-path:url(#clippath);}.cls-8{fill:none;}.cls-9{fill:#18716c;opacity:.33;}.cls-10{fill:#7facaa;}</style><clipPath id="clippath"><rect class="cls-8" x="203.64" y="246.45" width="43.05" height="37.6" transform="translate(-58.84 64.26) rotate(-14.39)"/></clipPath><clipPath id="clippath-1"><rect class="cls-8" x="254.1" y="243.73" width="37.6" height="43.05" transform="translate(-45.89 473.12) rotate(-77.29)"/></clipPath></defs><g><ellipse class="cls-9" cx="169.28" cy="260.02" rx="162.36" ry="145.03"/><ellipse class="cls-10" cx="193.41" cy="260.02" rx="128.79" ry="115.05"/><ellipse class="cls-6" cx="226.92" cy="261.46" rx="103.87" ry="92.79"/><ellipse class="cls-10" cx="226.92" cy="261.46" rx="76.86" ry="68.66"/></g><g><ellipse class="cls-9" cx="331.64" cy="260.02" rx="162.36" ry="145.03"/><ellipse class="cls-10" cx="307.51" cy="260.02" rx="128.79" ry="115.05"/><ellipse class="cls-6" cx="274.01" cy="258.58" rx="103.87" ry="92.79"/><ellipse class="cls-10" cx="274.01" cy="258.58" rx="76.86" ry="68.66"/></g><g><g><path class="cls-1" d="M141.23,240.89l-12.31,29.05h-8.42l-2.56-15.99-6.66,15.99h-7.72l-4.53-29.07c3.97,0,6.76-.16,9.67-.53l1.64,18.19,6.75-17.64h6.94l2.25,18.64,6.31-18.64h8.65Z"/><path class="cls-1" d="M150.54,255.35l-.16,.9-1.08,6.17-.38,2.2c-.39,2.23-.22,4.58,.09,5.32-1.8,.26-4.63,.6-5.83,.6-2.67,0-3.81-1.08-3.08-5.32l.49-2.8,1.08-6.17,.14-.83c.6-3.59,.45-5.74,.15-6.31,1.8-.43,4.62-.99,5.82-.99,2.67,0,3.82,1.14,2.76,7.23Zm2.57-13.85c0,2.64-2.63,4.67-5.42,4.67-2.47,0-4.21-1.51-4.21-3.6,0-2.66,2.59-4.63,5.37-4.63,2.48,0,4.26,1.48,4.26,3.55Z"/><path class="cls-1" d="M153.05,269.89c-.78-2.42-.85-4.9-.47-7.4,.93,.77,3.38,1.73,5.85,1.73,1.26,0,2.02-.29,2.02-.85s-.83-.97-2.35-1.7c-1.58-.76-4.55-2.19-4.55-5.83,0-4.88,5.14-7.71,11.18-7.71,2.41,0,4.5,.49,5.41,.86-.12,1.96-.8,4.12-1.93,6.33-.84-.61-2.43-1.36-4.16-1.36-.91,0-1.7,.23-1.7,.87,0,.68,.93,1.18,2.56,2.06,1.57,.84,4.34,2.33,4.34,6.15,0,4.99-4.56,7.54-10.92,7.54-2.45,0-4.39-.38-5.29-.67Z"/><path class="cls-1" d="M194,256.55l-1.43,8.09c-.39,2.2-.22,4.55,.09,5.3-1.8,.26-4.62,.61-5.82,.61-2.67,0-3.83-1.08-3.09-5.3l1.33-7.57c.24-1.34-.13-2.18-.96-2.18-1.53,0-2.76,2.69-3.36,6.91h0s0,0,0,0c-.51,3.65-.62,6.27-.56,7.2-3.09,.45-5.99,.57-8.84,.32-.04-.86,.11-3.49,.68-7.53l2.38-16.92c.51-3.6,.4-5.74,.18-6.31,1.8-.43,4.62-.99,5.82-.99,2.67,0,3.59,1.11,2.73,7.23l-1.06,7.54c1.33-3.13,4.06-4.85,6.89-4.85,3.78,0,5.96,3.06,5,8.45Z"/></g><g><path class="cls-1" d="M335.08,320.22h-19.38l4.08-29.05c4.66,0,8.09-.11,9.46-.2l-2.99,21.3h10.3c-.14,2.56-.96,5.3-1.47,7.95Z"/><path class="cls-1" d="M348.85,305.62l-.16,.9-1.08,6.17-.38,2.2c-.39,2.23-.22,4.58,.09,5.32-1.8,.26-4.63,.6-5.83,.6-2.67,0-3.81-1.08-3.08-5.32l.49-2.8,1.08-6.17,.14-.83c.6-3.59,.45-5.74,.15-6.31,1.8-.43,4.62-.99,5.82-.99,2.67,0,3.82,1.14,2.76,7.23Zm2.57-13.85c0,2.64-2.63,4.67-5.42,4.67-2.47,0-4.21-1.51-4.21-3.6,0-2.66,2.59-4.63,5.37-4.63,2.48,0,4.26,1.48,4.26,3.55Z"/><path class="cls-1" d="M351.36,320.16c-.78-2.42-.85-4.9-.47-7.4,.93,.77,3.38,1.73,5.85,1.73,1.26,0,2.03-.29,2.03-.85s-.83-.97-2.35-1.7c-1.58-.76-4.55-2.19-4.55-5.83,0-4.88,5.14-7.71,11.18-7.71,2.41,0,4.5,.49,5.41,.86-.12,1.96-.8,4.12-1.93,6.33-.84-.61-2.43-1.36-4.16-1.36-.91,0-1.7,.23-1.7,.87,0,.68,.93,1.18,2.56,2.06,1.57,.84,4.34,2.33,4.34,6.15,0,4.99-4.56,7.54-10.92,7.54-2.45,0-4.39-.38-5.29-.67Z"/><path class="cls-1" d="M382.67,313.62c1.43,0,3.14-.66,4.08-1.19,.1,1.77-.48,3.93-1.3,6.36-1.3,.87-3.82,2.06-7.02,2.06-3.57,0-7.88-1.67-6.94-8.36l.89-6.36h-2.92c.63-2.12,1.57-4.29,1.89-6.37l2.52-.51c.07-.55,.22-1.24,.52-1.95,1.35-3.19,9.38-2.73,9.38-2.73,0,0-.85,1.78-1.63,5.19h6.42c-.33,2.08-1.26,4.24-1.89,6.37h-5.57l-.52,3.99c-.35,2.75,1.04,3.49,2.1,3.49h0Z"/></g><g><path class="cls-5" d="M266.86,240.1c4.09,.49,8.2,.14,12.3,.21,1.72,.03,2.22-1.43,2.94-2.54,6.57-10.19,15.01-18.37,25.7-24.15,3.63-1.96,7.45-3.47,11.39-4.67,2.26-.69,4.17-.04,5.65,1.74,1.43,1.71,1.65,3.66,.59,5.64-5.77,10.8-7.38,22.53-7.43,34.54-.09,23.07-.02,46.15-.03,69.22,0,12.87-7.62,20.5-20.44,20.5-14.52,0-29.04-.04-43.55,.01-20,.06-35.04-8.61-45.3-25.75-.28-.47-.62-.9-.93-1.34-.18-.51-.33-1.04-.55-1.54-15.47-34.53,8.46-71.61,46.26-71.68,4.47,0,8.93-.12,13.4-.19Z"/><g><path class="cls-2" d="M255.06,219.72c4.09,.49,8.2,.14,12.3,.21,1.72,.03,2.22-1.43,2.94-2.54,6.57-10.19,15.01-18.37,25.7-24.15,3.63-1.96,7.45-3.47,11.39-4.67,2.26-.69,4.17-.04,5.65,1.74,1.43,1.71,1.65,3.66,.59,5.64-5.77,10.8-7.38,22.53-7.43,34.54-.09,23.07-.02,46.15-.03,69.22,0,12.87-7.62,20.5-20.44,20.5-14.52,0-29.04-.04-43.55,.01-20,.06-35.04-8.61-45.3-25.75-.28-.47-.62-.9-.93-1.34-.18-.51-.33-1.04-.55-1.54-15.47-34.53,8.46-71.61,46.26-71.68,4.47,0,8.93-.12,13.4-.19Z"/><path class="cls-5" d="M241.96,323.15c-20.79,0-36.79-9.14-47.59-27.17-.14-.24-.31-.47-.48-.69l-.35-.48c-.15-.22-.27-.46-.36-.71l-.19-.55c-.08-.26-.16-.51-.27-.76-7.68-17.13-6.42-36.41,3.38-51.57,9.78-15.14,26.81-24.19,45.54-24.22,3.02,0,6.04-.06,9.06-.12l4.3-.07c.11,0,.26,0,.39,.02,2.54,.3,5.1,.26,7.83,.21,1.3-.02,2.6-.04,3.88-.03,.1-.15,.21-.35,.3-.5,.14-.24,.28-.47,.42-.7,7.01-10.87,16.02-19.33,26.77-25.14,3.57-1.93,7.47-3.53,11.92-4.89,3.37-1.03,6.46-.08,8.75,2.66,2.2,2.63,2.54,5.87,.93,8.89-4.78,8.95-7.03,19.49-7.08,33.18-.06,15.07-.05,30.14-.04,45.21v24c0,14.45-8.95,23.43-23.36,23.43h-15.56c-9.33-.01-18.66-.02-27.99,0h-.23Zm-43.38-31.36l.04,.05c.27,.37,.54,.74,.77,1.13,9.8,16.36,23.73,24.32,42.57,24.32h.21c9.34-.03,18.67-.02,28.01-.01h15.55c11.13,0,17.51-6.41,17.51-17.58v-23.99c-.02-15.08-.03-30.16,.03-45.24,.05-14.68,2.53-26.09,7.78-35.91,.48-.91,.41-1.58-.26-2.39-.77-.92-1.45-1.15-2.54-.82-4.08,1.25-7.63,2.7-10.85,4.45-9.87,5.34-18.16,13.13-24.64,23.16l-.28,.47c-.65,1.11-1.99,3.42-5.06,3.42h-.1c-1.34-.02-2.65,0-3.98,.03-2.73,.05-5.56,.1-8.42-.23l-4.09,.07c-3.05,.06-6.11,.11-9.16,.12-17,.03-31.81,7.88-40.64,21.55-8.85,13.69-9.93,30.46-2.96,46,.2,.44,.35,.89,.49,1.34l.02,.05Z"/></g><g class="cls-7"><path class="cls-3" d="M238.89,245.84c-5.47-3.23-12.5-1.43-15.73,4.03l-1.37,2.32-2.32-1.37c-5.47-3.23-12.5-1.43-15.73,4.03-3.21,5.46-1.41,12.49,4.06,15.73l2.89,1.71,18.66,11.04c.31,.18,.69,.09,.88-.23l11.04-18.66,1.71-2.89c3.19-5.45,1.39-12.49-4.08-15.72h0Zm0,0"/></g><g class="cls-4"><path class="cls-3" d="M293.96,254.22c-3.39-5.37-10.47-6.97-15.84-3.57l-2.28,1.44-1.44-2.28c-3.39-5.37-10.47-6.97-15.84-3.57-5.35,3.4-6.94,10.48-3.55,15.85l1.79,2.84,11.58,18.33c.19,.31,.58,.39,.89,.2l18.33-11.58,2.84-1.79c5.32-3.4,6.92-10.48,3.53-15.85h0Zm0,0"/></g></g></g></svg>